kMon60bV7.ufo
<glyph name="exclam" format="2">
  <advance width="1162"/>
  <unicode hex="0021"/>
  <outline>
    <contour>
      <point x="450" y="150" type="curve" smooth="yes"/>
      <point x="450" y="79"/>
      <point x="536" y="0"/>
      <point x="619" y="0" type="curve"/>
      <point x="701" y="0"/>
      <point x="787" y="79"/>
      <point x="787" y="150" type="curve"/>
      <point x="787" y="221"/>
      <point x="701" y="300"/>
      <point x="619" y="300" type="curve"/>
      <point x="536" y="300"/>
      <point x="450" y="221"/>
    </contour>
    <contour>
      <point x="731" y="375" type="line"/>
      <point x="802" y="746"/>
      <point x="825" y="1117"/>
      <point x="825" y="1500" type="curve"/>
      <point x="825" y="1575"/>
      <point x="731" y="1657"/>
      <point x="619" y="1657" type="curve"/>
      <point x="502" y="1657"/>
      <point x="412" y="1575"/>
      <point x="412" y="1500" type="curve"/>
      <point x="412" y="1117"/>
      <point x="435" y="746"/>
      <point x="506" y="375" type="curve"/>
    </contour>
  </outline>
</glyph>
<glyph name="quotesingle" format="2">
  <advance width="376"/>
  <unicode hex="0027"/>
  <outline>
    <contour>
      <point x="222" y="853" type="line"/>
      <point x="249" y="1067"/>
      <point x="319" y="1167"/>
      <point x="319" y="1342" type="curve" smooth="yes"/>
      <point x="319" y="1412"/>
      <point x="269" y="1471"/>
      <point x="186" y="1471" type="curve" smooth="yes"/>
      <point x="106" y="1471"/>
      <point x="57" y="1412"/>
      <point x="57" y="1342" type="curve" smooth="yes"/>
      <point x="57" y="1167"/>
      <point x="123" y="1067"/>
      <point x="154" y="853" type="curve"/>
    </contour>
  </outline>
</glyph>
<glyph name="parenleft" format="2">
  <advance width="926"/>
  <unicode hex="0028"/>
  <outline>
    <contour>
      <point x="661" y="1440" type="line"/>
      <point x="394" y="1302"/>
      <point x="230" y="1010"/>
      <point x="230" y="720" type="curve" smooth="yes"/>
      <point x="230" y="430"/>
      <point x="394" y="137"/>
      <point x="661" y="-1" type="curve"/>
      <point x="706" y="35" type="line"/>
      <point x="522" y="198"/>
      <point x="430" y="450"/>
      <point x="430" y="720" type="curve" smooth="yes"/>
      <point x="430" y="990"/>
      <point x="522" y="1242"/>
      <point x="706" y="1405" type="curve"/>
    </contour>
  </outline>
</glyph>
<glyph name="parenright" format="2">
  <advance width="926"/>
  <unicode hex="0029"/>
  <outline>
    <contour>
      <point x="265" y="-2" type="line"/>
      <point x="532" y="136"/>
      <point x="696" y="428"/>
      <point x="696" y="718" type="curve" smooth="yes"/>
      <point x="696" y="1008"/>
      <point x="532" y="1301"/>
      <point x="265" y="1439" type="curve"/>
      <point x="220" y="1403" type="line"/>
      <point x="404" y="1240"/>
      <point x="496" y="988"/>
      <point x="496" y="718" type="curve" smooth="yes"/>
      <point x="496" y="448"/>
      <point x="404" y="196"/>
      <point x="220" y="33" type="curve"/>
    </contour>
  </outline>
</glyph>
<glyph name="asterisk" format="2">
  <advance width="1447"/>
  <unicode hex="002A"/>
  <outline>
    <contour>
      <point x="1267" y="1009" type="curve"/>
      <point x="1249" y="1042"/>
      <point x="1211" y="1057"/>
      <point x="1159" y="1057" type="curve"/>
      <point x="1132" y="1057"/>
      <point x="1106" y="1054"/>
      <point x="1091" y="1046" type="curve"/>
      <point x="987" y="977"/>
      <point x="939" y="897"/>
      <point x="821" y="817" type="curve"/>
      <point x="831" y="981"/>
      <point x="874" y="1047"/>
      <point x="885" y="1185" type="curve"/>
      <point x="885" y="1245"/>
      <point x="829" y="1290"/>
      <point x="754" y="1290" type="curve"/>
      <point x="679" y="1290"/>
      <point x="622" y="1245"/>
      <point x="622" y="1185" type="curve"/>
      <point x="633" y="1047"/>
      <point x="677" y="981"/>
      <point x="686" y="817" type="curve"/>
      <point x="557" y="906"/>
      <point x="540" y="971"/>
      <point x="412" y="1046" type="curve"/>
      <point x="397" y="1054"/>
      <point x="371" y="1057"/>
      <point x="349" y="1057" type="curve"/>
      <point x="292" y="1057"/>
      <point x="259" y="1042"/>
      <point x="236" y="1005" type="curve"/>
      <point x="225" y="986"/>
      <point x="221" y="964"/>
      <point x="221" y="952" type="curve"/>
      <point x="221" y="919"/>
      <point x="244" y="889"/>
      <point x="285" y="862" type="curve"/>
      <point x="417" y="805"/>
      <point x="497" y="809"/>
      <point x="664" y="720" type="curve"/>
      <point x="497" y="633"/>
      <point x="416" y="639"/>
      <point x="285" y="581" type="curve"/>
      <point x="240" y="555"/>
      <point x="221" y="521"/>
      <point x="221" y="491" type="curve"/>
      <point x="221" y="480"/>
      <point x="225" y="465"/>
      <point x="232" y="450" type="curve"/>
      <point x="259" y="405"/>
      <point x="300" y="386"/>
      <point x="349" y="386" type="curve"/>
      <point x="371" y="386"/>
      <point x="397" y="390"/>
      <point x="412" y="397" type="curve"/>
      <point x="532" y="470"/>
      <point x="562" y="534"/>
      <point x="686" y="626" type="curve"/>
      <point x="676" y="458"/>
      <point x="632" y="396"/>
      <point x="622" y="255" type="curve"/>
      <point x="622" y="199"/>
      <point x="679" y="154"/>
      <point x="754" y="154" type="curve"/>
      <point x="829" y="154"/>
      <point x="885" y="199"/>
      <point x="885" y="255" type="curve"/>
      <point x="875" y="396"/>
      <point x="831" y="458"/>
      <point x="821" y="626" type="curve"/>
      <point x="944" y="536"/>
      <point x="980" y="474"/>
      <point x="1091" y="397" type="curve"/>
      <point x="1106" y="390"/>
      <point x="1132" y="386"/>
      <point x="1159" y="386" type="curve"/>
      <point x="1211" y="386"/>
      <point x="1249" y="409"/>
      <point x="1275" y="450" type="curve"/>
      <point x="1282" y="465"/>
      <point x="1286" y="480"/>
      <point x="1286" y="491" type="curve"/>
      <point x="1286" y="525"/>
      <point x="1264" y="555"/>
      <point x="1222" y="581" type="curve"/>
      <point x="1091" y="639"/>
      <point x="1010" y="634"/>
      <point x="844" y="720" type="curve"/>
      <point x="1009" y="809"/>
      <point x="1090" y="804"/>
      <point x="1222" y="862" type="curve"/>
      <point x="1267" y="889"/>
      <point x="1286" y="922"/>
      <point x="1286" y="952" type="curve"/>
      <point x="1286" y="964"/>
      <point x="1279" y="990"/>
    </contour>
  </outline>
</glyph>
<glyph name="period" format="2">
  <advance width="600"/>
  <unicode hex="002E"/>
  <outline>
    <contour>
      <point x="140" y="138" type="curve" smooth="yes"/>
      <point x="140" y="61"/>
      <point x="203" y="-2"/>
      <point x="280" y="-2" type="curve" smooth="yes"/>
      <point x="357" y="-2"/>
      <point x="420" y="61"/>
      <point x="420" y="138" type="curve" smooth="yes"/>
      <point x="420" y="215"/>
      <point x="357" y="278"/>
      <point x="280" y="278" type="curve" smooth="yes"/>
      <point x="203" y="278"/>
      <point x="140" y="215"/>
    </contour>
  </outline>
</glyph>
<glyph name="three" format="2">
  <advance width="1082"/>
  <unicode hex="0033"/>
  <outline>
    <contour>
      <point x="323" y="692" type="line"/>
      <point x="610" y="692"/>
      <point x="745" y="555"/>
      <point x="745" y="373" type="curve"/>
      <point x="745" y="231"/>
      <point x="662" y="101"/>
      <point x="513" y="101" type="curve"/>
      <point x="467" y="101"/>
      <point x="437" y="123"/>
      <point x="407" y="144" type="curve"/>
      <point x="369" y="170"/>
      <point x="330" y="198"/>
      <point x="243" y="198" type="curve"/>
      <point x="187" y="198"/>
      <point x="100" y="176"/>
      <point x="100" y="103" type="curve"/>
      <point x="100" y="22"/>
      <point x="200" y="-32"/>
      <point x="363" y="-32" type="curve"/>
      <point x="713" y="-32"/>
      <point x="982" y="138"/>
      <point x="982" y="479" type="curve"/>
      <point x="982" y="627"/>
      <point x="872" y="789"/>
      <point x="728" y="853" type="curve"/>
      <point x="830" y="945"/>
      <point x="913" y="1072"/>
      <point x="913" y="1156" type="curve"/>
      <point x="913" y="1334"/>
      <point x="741" y="1470"/>
      <point x="538" y="1470" type="curve"/>
      <point x="316" y="1470"/>
      <point x="175" y="1320"/>
      <point x="117" y="1138" type="curve"/>
      <point x="216" y="1091" type="line"/>
      <point x="272" y="1199"/>
      <point x="382" y="1282"/>
      <point x="461" y="1282" type="curve"/>
      <point x="575" y="1282"/>
      <point x="651" y="1192"/>
      <point x="651" y="1079" type="curve"/>
      <point x="651" y="907"/>
      <point x="517" y="785"/>
      <point x="323" y="764" type="curve"/>
    </contour>
  </outline>
</glyph>
<glyph name="equal" format="2">
  <advance width="1340"/>
  <unicode hex="003D"/>
  <outline>
    <contour>
      <point x="1010" y="167" type="line"/>
      <point x="1010" y="317" type="line"/>
      <point x="330" y="317" type="line"/>
      <point x="330" y="167" type="line"/>
    </contour>
    <contour>
      <point x="1010" y="460" type="line"/>
      <point x="1010" y="598" type="line"/>
      <point x="330" y="598" type="line"/>
      <point x="330" y="460" type="line"/>
    </contour>
  </outline>
</glyph>
<glyph name="question" format="2">
  <advance width="1690"/>
  <unicode hex="003F"/>
  <outline>
    <contour>
      <point x="1360" y="1400" type="curve" smooth="yes"/>
      <point x="1360" y="1720"/>
      <point x="1050" y="1800"/>
      <point x="830" y="1800" type="curve" smooth="yes"/>
      <point x="610" y="1800"/>
      <point x="330" y="1726"/>
      <point x="330" y="1460" type="curve" smooth="yes"/>
      <point x="330" y="1348"/>
      <point x="418" y="1237"/>
      <point x="536" y="1237" type="curve" smooth="yes"/>
      <point x="668" y="1237"/>
      <point x="720" y="1293"/>
      <point x="746" y="1397" type="curve"/>
      <point x="701" y="1382"/>
      <point x="680" y="1375"/>
      <point x="606" y="1375" type="curve" smooth="yes"/>
      <point x="548" y="1375"/>
      <point x="510" y="1419"/>
      <point x="510" y="1460" type="curve" smooth="yes"/>
      <point x="510" y="1559"/>
      <point x="620" y="1620"/>
      <point x="824" y="1620" type="curve" smooth="yes"/>
      <point x="1049" y="1620"/>
      <point x="1170" y="1557"/>
      <point x="1170" y="1400" type="curve" smooth="yes"/>
      <point x="1170" y="1279"/>
      <point x="1081" y="1195"/>
      <point x="931" y="1111" type="curve" smooth="yes"/>
      <point x="717" y="992"/>
      <point x="600" y="825"/>
      <point x="600" y="610" type="curve" smooth="yes"/>
      <point x="600" y="499"/>
      <point x="668" y="409"/>
      <point x="761" y="409" type="curve" smooth="yes"/>
      <point x="842" y="409"/>
      <point x="874" y="450"/>
      <point x="874" y="496" type="curve" smooth="yes"/>
      <point x="874" y="506"/>
      <point x="868" y="521"/>
      <point x="853" y="538" type="curve" smooth="yes"/>
      <point x="832" y="561"/>
      <point x="820" y="591"/>
      <point x="820" y="620" type="curve" smooth="yes"/>
      <point x="820" y="775"/>
      <point x="860" y="869"/>
      <point x="1011" y="949" type="curve" smooth="yes"/>
      <point x="1182" y="1040"/>
      <point x="1360" y="1219"/>
    </contour>
    <contour>
      <point x="630" y="132" type="curve" smooth="yes"/>
      <point x="630" y="59"/>
      <point x="689" y="0"/>
      <point x="762" y="0" type="curve" smooth="yes"/>
      <point x="835" y="0"/>
      <point x="894" y="59"/>
      <point x="894" y="132" type="curve" smooth="yes"/>
      <point x="894" y="205"/>
      <point x="835" y="264"/>
      <point x="762" y="264" type="curve" smooth="yes"/>
      <point x="689" y="264"/>
      <point x="630" y="205"/>
    </contour>
  </outline>
</glyph>
<glyph name="P" format="2">
  <advance width="1223"/>
  <unicode hex="0050"/>
  <outline>
    <contour>
      <point x="240" y="242" type="line"/>
      <point x="240" y="108"/>
      <point x="186" y="75"/>
      <point x="40" y="75" type="curve"/>
      <point x="40" y="0" type="line"/>
      <point x="728" y="0" type="line"/>
      <point x="728" y="75" type="line"/>
      <point x="586" y="75"/>
      <point x="531" y="108"/>
      <point x="531" y="242" type="curve"/>
      <point x="531" y="637" type="line"/>
      <point x="590" y="628"/>
      <point x="671" y="623"/>
      <point x="742" y="623" type="curve"/>
      <point x="971" y="623"/>
      <point x="1198" y="748"/>
      <point x="1198" y="1017" type="curve"/>
      <point x="1198" y="1284"/>
      <point x="969" y="1437"/>
      <point x="681" y="1437" type="curve"/>
      <point x="40" y="1437" type="line"/>
      <point x="40" y="1362" type="line"/>
      <point x="186" y="1362"/>
      <point x="240" y="1329"/>
      <point x="240" y="1196" type="curve"/>
    </contour>
    <contour>
      <point x="645" y="1321" type="curve" smooth="yes"/>
      <point x="782" y="1321"/>
      <point x="888" y="1182"/>
      <point x="888" y="1003" type="curve"/>
      <point x="888" y="853"/>
      <point x="810" y="734"/>
      <point x="655" y="734" type="curve"/>
      <point x="614" y="734"/>
      <point x="570" y="742"/>
      <point x="531" y="754" type="curve"/>
      <point x="531" y="1309" type="line"/>
      <point x="579" y="1321"/>
      <point x="614" y="1321"/>
    </contour>
  </outline>
</glyph>
<glyph name="S" format="2">
  <advance width="1148"/>
  <unicode hex="0053"/>
  <outline>
    <contour>
      <point x="987" y="943" type="line"/>
      <point x="987" y="1470" type="line"/>
      <point x="868" y="1470" type="line"/>
      <point x="861" y="1430"/>
      <point x="852" y="1394"/>
      <point x="835" y="1394" type="curve" smooth="yes"/>
      <point x="817" y="1394"/>
      <point x="790" y="1404"/>
      <point x="762" y="1416" type="curve" smooth="yes"/>
      <point x="680" y="1451"/>
      <point x="636" y="1470"/>
      <point x="526" y="1470" type="curve" smooth="yes"/>
      <point x="253" y="1470"/>
      <point x="70" y="1297"/>
      <point x="70" y="1075" type="curve"/>
      <point x="70" y="843"/>
      <point x="289" y="728"/>
      <point x="495" y="618" type="curve"/>
      <point x="658" y="531"/>
      <point x="813" y="448"/>
      <point x="813" y="297" type="curve"/>
      <point x="813" y="166"/>
      <point x="705" y="83"/>
      <point x="587" y="83" type="curve"/>
      <point x="400" y="83"/>
      <point x="220" y="225"/>
      <point x="199" y="480" type="curve"/>
      <point x="85" y="480" type="line"/>
      <point x="85" y="-32" type="line"/>
      <point x="197" y="-32" type="line"/>
      <point x="204" y="8"/>
      <point x="215" y="44"/>
      <point x="226" y="44" type="curve" smooth="yes"/>
      <point x="259" y="44"/>
      <point x="297" y="28"/>
      <point x="335" y="11" type="curve" smooth="yes"/>
      <point x="397" y="-17"/>
      <point x="469" y="-32"/>
      <point x="573" y="-32" type="curve" smooth="yes"/>
      <point x="893" y="-32"/>
      <point x="1078" y="159"/>
      <point x="1078" y="387" type="curve"/>
      <point x="1078" y="604"/>
      <point x="849" y="729"/>
      <point x="634" y="844" type="curve"/>
      <point x="635" y="844" type="line"/>
      <point x="469" y="934"/>
      <point x="314" y="1018"/>
      <point x="314" y="1148" type="curve"/>
      <point x="314" y="1241"/>
      <point x="394" y="1355"/>
      <point x="526" y="1355" type="curve"/>
      <point x="722" y="1355"/>
      <point x="844" y="1198"/>
      <point x="870" y="943" type="curve"/>
    </contour>
  </outline>
</glyph>
<glyph name="underscore" format="2">
  <advance width="1718"/>
  <unicode hex="005F"/>
  <outline>
    <contour>
      <point x="1678" y="-174" type="line"/>
      <point x="1670" y="-40" type="line"/>
      <point x="40" y="-40" type="line"/>
      <point x="40" y="-174" type="line"/>
    </contour>
  </outline>
</glyph>
<glyph name="logicalnot" format="2">
  <advance width="1381"/>
  <unicode hex="00AC"/>
  <outline>
    <contour>
      <point x="70" y="982" type="line"/>
      <point x="70" y="852" type="line"/>
      <point x="1144" y="852" type="line"/>
      <point x="1144" y="520" type="line"/>
      <point x="1311" y="520" type="line"/>
      <point x="1311" y="982" type="line"/>
    </contour>
  </outline>
</glyph>
<glyph name="macron" format="2">
  <advance width="893"/>
  <unicode hex="00AF"/>
  <unicode hex="02C9"/>
  <outline>
    <contour>
      <point x="823" y="1366" type="line"/>
      <point x="823" y="1198" type="line"/>
      <point x="70" y="1198" type="line"/>
      <point x="70" y="1366" type="line"/>
    </contour>
  </outline>
</glyph>
<glyph name="acute" format="2">
  <advance width="490"/>
  <unicode hex="00B4"/>
  <outline>
    <contour>
      <point x="480" y="1470" type="line"/>
      <point x="130" y="1470" type="line"/>
      <point x="10" y="1066" type="line"/>
      <point x="134" y="1066" type="line"/>
    </contour>
  </outline>
</glyph>
<glyph name="mu" format="2">
  <advance width="1191"/>
  <unicode hex="00B5"/>
  <unicode hex="03BC"/>
  <outline>
    <contour>
      <point x="356" y="967" type="line"/>
      <point x="356" y="381" type="line"/>
      <point x="356" y="226"/>
      <point x="393" y="133"/>
      <point x="473" y="133" type="curve"/>
      <point x="549" y="133"/>
      <point x="627" y="189"/>
      <point x="681" y="249" type="curve"/>
      <point x="681" y="967" type="line"/>
      <point x="930" y="967" type="line"/>
      <point x="930" y="267" type="line"/>
      <point x="930" y="223"/>
      <point x="940" y="115"/>
      <point x="969" y="115" type="curve"/>
      <point x="997" y="115"/>
      <point x="1013" y="199"/>
      <point x="1017" y="244" type="curve"/>
      <point x="1141" y="244" type="line"/>
      <point x="1141" y="101"/>
      <point x="1056" y="-32"/>
      <point x="890" y="-32" type="curve"/>
      <point x="774" y="-32"/>
      <point x="717" y="28"/>
      <point x="694" y="105" type="curve"/>
      <point x="615" y="30"/>
      <point x="515" y="-32"/>
      <point x="388" y="-32" type="curve"/>
      <point x="337" y="-32"/>
      <point x="297" y="-22"/>
      <point x="264" y="-5" type="curve"/>
      <point x="269" y="-71"/>
      <point x="279" y="-122"/>
      <point x="288" y="-166" type="curve"/>
      <point x="297" y="-215"/>
      <point x="307" y="-257"/>
      <point x="307" y="-296" type="curve"/>
      <point x="307" y="-358"/>
      <point x="269" y="-430"/>
      <point x="180" y="-430" type="curve"/>
      <point x="86" y="-430"/>
      <point x="50" y="-355"/>
      <point x="50" y="-293" type="curve"/>
      <point x="50" y="-247"/>
      <point x="59" y="-208"/>
      <point x="70" y="-160" type="curve"/>
      <point x="87" y="-92"/>
      <point x="107" y="-7"/>
      <point x="107" y="156" type="curve"/>
      <point x="107" y="967" type="line"/>
    </contour>
  </outline>
</glyph>
<glyph name="ograve" format="2">
  <advance width="1131"/>
  <unicode hex="00F2"/>
  <outline>
    <contour>
      <point x="565" y="-22" type="curve" smooth="yes"/>
      <point x="851" y="-22"/>
      <point x="1061" y="224"/>
      <point x="1061" y="519" type="curve"/>
      <point x="1061" y="787"/>
      <point x="851" y="1004"/>
      <point x="565" y="1004" type="curve"/>
      <point x="280" y="1004"/>
      <point x="70" y="769"/>
      <point x="70" y="479" type="curve"/>
      <point x="70" y="205"/>
      <point x="280" y="-22"/>
    </contour>
    <contour>
      <point x="598" y="90" type="curve" smooth="yes"/>
      <point x="438" y="90"/>
      <point x="344" y="304"/>
      <point x="344" y="565" type="curve"/>
      <point x="344" y="747"/>
      <point x="430" y="896"/>
      <point x="525" y="896" type="curve"/>
      <point x="718" y="896"/>
      <point x="788" y="686"/>
      <point x="788" y="424" type="curve"/>
      <point x="788" y="241"/>
      <point x="709" y="90"/>
    </contour>
    <contour>
      <point x="155" y="1470" type="line"/>
      <point x="498" y="1066" type="line"/>
      <point x="627" y="1066" type="line"/>
      <point x="505" y="1470" type="line"/>
    </contour>
  </outline>
</glyph>
<glyph name="uni0115" format="2">
  <advance width="1055"/>
  <unicode hex="0115"/>
  <outline>
    <contour>
      <point x="532" y="-22" type="curve" smooth="yes"/>
      <point x="728" y="-22"/>
      <point x="929" y="153"/>
      <point x="985" y="365" type="curve"/>
      <point x="867" y="384" type="line"/>
      <point x="837" y="261"/>
      <point x="706" y="162"/>
      <point x="581" y="162" type="curve"/>
      <point x="428" y="162"/>
      <point x="319" y="347"/>
      <point x="313" y="583" type="curve"/>
      <point x="954" y="583" type="line"/>
      <point x="954" y="815"/>
      <point x="782" y="1004"/>
      <point x="532" y="1004" type="curve"/>
      <point x="253" y="1004"/>
      <point x="70" y="773"/>
      <point x="70" y="456" type="curve"/>
      <point x="70" y="195"/>
      <point x="277" y="-22"/>
    </contour>
    <contour>
      <point x="482" y="896" type="curve" smooth="yes"/>
      <point x="578" y="896"/>
      <point x="656" y="795"/>
      <point x="664" y="672" type="curve"/>
      <point x="315" y="672" type="line"/>
      <point x="332" y="795"/>
      <point x="402" y="896"/>
    </contour>
    <contour>
      <point x="778" y="1437" type="line"/>
      <point x="757" y="1382"/>
      <point x="663" y="1251"/>
      <point x="541" y="1251" type="curve"/>
      <point x="419" y="1251"/>
      <point x="325" y="1382"/>
      <point x="304" y="1437" type="curve"/>
      <point x="191" y="1437" type="line"/>
      <point x="211" y="1334"/>
      <point x="312" y="1089"/>
      <point x="541" y="1089" type="curve"/>
      <point x="771" y="1089"/>
      <point x="867" y="1334"/>
      <point x="887" y="1437" type="curve"/>
    </contour>
  </outline>
</glyph>
<glyph name="uni012C" format="2">
  <advance width="729"/>
  <unicode hex="012C"/>
  <outline>
    <contour>
      <point x="642" y="1803" type="line"/>
      <point x="621" y="1750"/>
      <point x="524" y="1668"/>
      <point x="388" y="1668" type="curve"/>
      <point x="252" y="1668"/>
      <point x="154" y="1750"/>
      <point x="133" y="1803" type="curve"/>
      <point x="59" y="1803" type="line"/>
      <point x="82" y="1693"/>
      <point x="179" y="1489"/>
      <point x="388" y="1489" type="curve"/>
      <point x="597" y="1489"/>
      <point x="690" y="1693"/>
      <point x="712" y="1803" type="curve"/>
    </contour>
    <contour>
      <point x="237" y="242" type="line"/>
      <point x="237" y="108"/>
      <point x="186" y="75"/>
      <point x="40" y="75" type="curve"/>
      <point x="40" y="0" type="line"/>
      <point x="728" y="0" type="line"/>
      <point x="728" y="75" type="line"/>
      <point x="586" y="75"/>
      <point x="532" y="108"/>
      <point x="532" y="242" type="curve"/>
      <point x="532" y="1196" type="line"/>
      <point x="532" y="1329"/>
      <point x="586" y="1362"/>
      <point x="728" y="1362" type="curve"/>
      <point x="728" y="1437" type="line"/>
      <point x="40" y="1437" type="line"/>
      <point x="40" y="1362" type="line"/>
      <point x="186" y="1362"/>
      <point x="237" y="1329"/>
      <point x="237" y="1196" type="curve"/>
    </contour>
  </outline>
  <guideline angle="90" x="41" y="0"/>
  <guideline angle="90" x="768" y="0"/>
</glyph>
<glyph name="uni012D" format="2">
  <advance width="627"/>
  <unicode hex="012D"/>
  <outline>
    <contour>
      <point x="186" y="238" type="line"/>
      <point x="186" y="121"/>
      <point x="165" y="75"/>
      <point x="40" y="75" type="curve"/>
      <point x="40" y="0" type="line"/>
      <point x="587" y="0" type="line"/>
      <point x="587" y="75" type="line"/>
      <point x="463" y="75"/>
      <point x="437" y="121"/>
      <point x="437" y="238" type="curve"/>
      <point x="437" y="1004" type="line"/>
      <point x="334" y="1004" type="line"/>
      <point x="24" y="863" type="line"/>
      <point x="52" y="790" type="line"/>
      <point x="108" y="807"/>
      <point x="153" y="819"/>
      <point x="165" y="819" type="curve"/>
      <point x="186" y="819"/>
      <point x="186" y="778"/>
      <point x="186" y="683" type="curve"/>
    </contour>
    <contour>
      <point x="548" y="1437" type="line"/>
      <point x="527" y="1382"/>
      <point x="433" y="1251"/>
      <point x="311" y="1251" type="curve"/>
      <point x="189" y="1251"/>
      <point x="95" y="1382"/>
      <point x="74" y="1437" type="curve"/>
      <point x="-39" y="1437" type="line"/>
      <point x="-19" y="1334"/>
      <point x="82" y="1089"/>
      <point x="311" y="1089" type="curve"/>
      <point x="541" y="1089"/>
      <point x="637" y="1334"/>
      <point x="657" y="1437" type="curve"/>
    </contour>
  </outline>
</glyph>
<glyph name="oe" format="2">
  <advance width="1651"/>
  <unicode hex="0153"/>
  <outline>
    <contour>
      <point x="1173" y="-22" type="curve" smooth="yes"/>
      <point x="1349" y="-22"/>
      <point x="1532" y="153"/>
      <point x="1581" y="364" type="curve"/>
      <point x="1467" y="385" type="line"/>
      <point x="1441" y="262"/>
      <point x="1326" y="162"/>
      <point x="1214" y="162" type="curve"/>
      <point x="1081" y="162"/>
      <point x="986" y="347"/>
      <point x="981" y="583" type="curve"/>
      <point x="1556" y="583" type="line"/>
      <point x="1556" y="815"/>
      <point x="1397" y="1004"/>
      <point x="1173" y="1004" type="curve"/>
      <point x="1056" y="1004"/>
      <point x="958" y="956"/>
      <point x="887" y="878" type="curve"/>
      <point x="817" y="956"/>
      <point x="705" y="1004"/>
      <point x="565" y="1004" type="curve"/>
      <point x="280" y="1004"/>
      <point x="70" y="769"/>
      <point x="70" y="479" type="curve"/>
      <point x="70" y="205"/>
      <point x="280" y="-22"/>
      <point x="565" y="-22" type="curve"/>
      <point x="716" y="-22"/>
      <point x="818" y="41"/>
      <point x="882" y="109" type="curve"/>
      <point x="954" y="26"/>
      <point x="1058" y="-22"/>
    </contour>
    <contour>
      <point x="598" y="90" type="curve" smooth="yes"/>
      <point x="438" y="90"/>
      <point x="344" y="304"/>
      <point x="344" y="565" type="curve"/>
      <point x="344" y="747"/>
      <point x="430" y="896"/>
      <point x="525" y="896" type="curve"/>
      <point x="673" y="896"/>
      <point x="751" y="703"/>
      <point x="751" y="463" type="curve" smooth="yes"/>
      <point x="751" y="241"/>
      <point x="690" y="90"/>
    </contour>
    <contour>
      <point x="1127" y="896" type="curve" smooth="yes"/>
      <point x="1211" y="896"/>
      <point x="1279" y="795"/>
      <point x="1286" y="672" type="curve"/>
      <point x="982" y="672" type="line"/>
      <point x="993" y="795"/>
      <point x="1058" y="896"/>
    </contour>
  </outline>
</glyph>
<glyph name="uni0180" format="2">
  <advance width="1111"/>
  <unicode hex="0180"/>
  <outline>
    <contour>
      <point x="-48" y="1232" type="line"/>
      <point x="-48" y="1043" type="line"/>
      <point x="154" y="1043" type="line"/>
      <point x="154" y="109" type="line"/>
      <point x="253" y="25"/>
      <point x="383" y="-22"/>
      <point x="523" y="-22" type="curve"/>
      <point x="812" y="-22"/>
      <point x="1041" y="241"/>
      <point x="1041" y="561" type="curve"/>
      <point x="1041" y="806"/>
      <point x="882" y="1004"/>
      <point x="659" y="1004" type="curve"/>
      <point x="574" y="1004"/>
      <point x="476" y="959"/>
      <point x="404" y="894" type="curve"/>
      <point x="404" y="1043" type="line"/>
      <point x="667" y="1043" type="line"/>
      <point x="667" y="1232" type="line"/>
      <point x="404" y="1232" type="line"/>
      <point x="404" y="1470" type="line"/>
      <point x="302" y="1470" type="line"/>
      <point x="-10" y="1332" type="line"/>
      <point x="20" y="1255" type="line"/>
      <point x="79" y="1274"/>
      <point x="117" y="1285"/>
      <point x="131" y="1285" type="curve"/>
      <point x="146" y="1285"/>
      <point x="151" y="1268"/>
      <point x="153" y="1232" type="curve"/>
    </contour>
    <contour>
      <point x="572" y="819" type="curve" smooth="yes"/>
      <point x="688" y="819"/>
      <point x="783" y="678"/>
      <point x="783" y="503" type="curve"/>
      <point x="783" y="268"/>
      <point x="693" y="97"/>
      <point x="557" y="97" type="curve"/>
      <point x="490" y="97"/>
      <point x="443" y="136"/>
      <point x="404" y="174" type="curve"/>
      <point x="404" y="724" type="line"/>
      <point x="443" y="777"/>
      <point x="515" y="819"/>
    </contour>
  </outline>
</glyph>
<glyph name="uni01C2" format="2">
  <advance width="913"/>
  <unicode hex="01C2"/>
  <outline>
    <contour>
      <point x="54" y="881" type="line"/>
      <point x="328" y="881" type="line"/>
      <point x="328" y="702" type="line"/>
      <point x="54" y="702" type="line"/>
      <point x="54" y="528" type="line"/>
      <point x="328" y="528" type="line"/>
      <point x="328" y="0" type="line"/>
      <point x="590" y="0" type="line"/>
      <point x="590" y="528" type="line"/>
      <point x="863" y="528" type="line"/>
      <point x="863" y="702" type="line"/>
      <point x="590" y="702" type="line"/>
      <point x="590" y="881" type="line"/>
      <point x="863" y="881" type="line"/>
      <point x="863" y="1055" type="line"/>
      <point x="590" y="1055" type="line"/>
      <point x="590" y="1579" type="line"/>
      <point x="328" y="1579" type="line"/>
      <point x="328" y="1055" type="line"/>
      <point x="54" y="1055" type="line"/>
    </contour>
  </outline>
</glyph>
<glyph name="uni0212" format="2">
  <advance width="1547"/>
  <unicode hex="0212"/>
  <outline>
    <component base="R"/>
    <contour>
      <point x="250" y="1542" type="line"/>
      <point x="271" y="1597"/>
      <point x="440" y="1728"/>
      <point x="632" y="1728" type="curve"/>
      <point x="824" y="1728"/>
      <point x="993" y="1597"/>
      <point x="1014" y="1542" type="curve"/>
      <point x="1127" y="1542" type="line"/>
      <point x="1107" y="1645"/>
      <point x="911" y="1890"/>
      <point x="632" y="1890" type="curve"/>
      <point x="352" y="1890"/>
      <point x="161" y="1645"/>
      <point x="141" y="1542" type="curve"/>
    </contour>
  </outline>
</glyph>
<glyph name="uni0213" format="2">
  <advance width="808"/>
  <unicode hex="0213"/>
  <outline>
    <component base="r"/>
    <contour>
      <point x="160" y="1092" type="line"/>
      <point x="181" y="1147"/>
      <point x="275" y="1278"/>
      <point x="397" y="1278" type="curve"/>
      <point x="519" y="1278"/>
      <point x="613" y="1147"/>
      <point x="634" y="1092" type="curve"/>
      <point x="747" y="1092" type="line"/>
      <point x="727" y="1195"/>
      <point x="626" y="1440"/>
      <point x="397" y="1440" type="curve"/>
      <point x="167" y="1440"/>
      <point x="71" y="1195"/>
      <point x="51" y="1092" type="curve"/>
    </contour>
  </outline>
</glyph>
<glyph name="uni0251" format="2">
  <advance width="1133"/>
  <unicode hex="0251"/>
  <outline>
    <contour>
      <point x="714" y="-22" type="line"/>
      <point x="817" y="-22" type="line"/>
      <point x="1133" y="123" type="line"/>
      <point x="1097" y="200" type="line"/>
      <point x="1047" y="167"/>
      <point x="1022" y="159"/>
      <point x="1013" y="159" type="curve"/>
      <point x="974" y="159"/>
      <point x="964" y="191"/>
      <point x="964" y="301" type="curve"/>
      <point x="964" y="1046" type="line"/>
      <point x="741" y="946" type="line"/>
      <point x="694" y="981"/>
      <point x="634" y="1004"/>
      <point x="557" y="1004" type="curve"/>
      <point x="288" y="1004"/>
      <point x="65" y="747"/>
      <point x="65" y="479" type="curve"/>
      <point x="65" y="209"/>
      <point x="246" y="-22"/>
      <point x="469" y="-22" type="curve"/>
      <point x="555" y="-22"/>
      <point x="640" y="5"/>
      <point x="714" y="49" type="curve"/>
    </contour>
    <contour>
      <point x="568" y="123" type="curve" smooth="yes"/>
      <point x="437" y="123"/>
      <point x="335" y="307"/>
      <point x="335" y="533" type="curve"/>
      <point x="335" y="746"/>
      <point x="426" y="896"/>
      <point x="539" y="896" type="curve"/>
      <point x="626" y="896"/>
      <point x="714" y="802"/>
      <point x="714" y="664" type="curve"/>
      <point x="714" y="199" type="line"/>
      <point x="672" y="158"/>
      <point x="617" y="123"/>
    </contour>
  </outline>
</glyph>
<glyph name="uni0256" format="2">
  <advance width="1133"/>
  <unicode hex="0256"/>
  <outline>
    <contour>
      <point x="964" y="1470" type="line"/>
      <point x="861" y="1470" type="line"/>
      <point x="551" y="1332" type="line"/>
      <point x="579" y="1255" type="line"/>
      <point x="639" y="1274"/>
      <point x="676" y="1285"/>
      <point x="692" y="1285" type="curve"/>
      <point x="714" y="1285"/>
      <point x="714" y="1244"/>
      <point x="714" y="1152" type="curve"/>
      <point x="714" y="963" type="line"/>
      <point x="671" y="988"/>
      <point x="621" y="1004"/>
      <point x="557" y="1004" type="curve"/>
      <point x="288" y="1004"/>
      <point x="65" y="747"/>
      <point x="65" y="479" type="curve"/>
      <point x="65" y="209"/>
      <point x="246" y="-22"/>
      <point x="469" y="-22" type="curve"/>
      <point x="555" y="-22"/>
      <point x="640" y="5"/>
      <point x="714" y="49" type="curve"/>
      <point x="714" y="-72" type="line"/>
      <point x="714" y="-275"/>
      <point x="874" y="-437"/>
      <point x="1074" y="-437" type="curve"/>
      <point x="1268" y="-437"/>
      <point x="1416" y="-380"/>
      <point x="1416" y="-250" type="curve"/>
      <point x="1416" y="-182"/>
      <point x="1364" y="-151"/>
      <point x="1292" y="-151" type="curve"/>
      <point x="1200" y="-151"/>
      <point x="1174" y="-198"/>
      <point x="1149" y="-248" type="curve"/>
      <point x="1128" y="-289"/>
      <point x="1107" y="-329"/>
      <point x="1067" y="-329" type="curve"/>
      <point x="1015" y="-329"/>
      <point x="964" y="-257"/>
      <point x="964" y="-170" type="curve"/>
    </contour>
    <contour>
      <point x="568" y="123" type="curve" smooth="yes"/>
      <point x="437" y="123"/>
      <point x="335" y="307"/>
      <point x="335" y="533" type="curve"/>
      <point x="335" y="746"/>
      <point x="426" y="896"/>
      <point x="539" y="896" type="curve"/>
      <point x="626" y="896"/>
      <point x="714" y="802"/>
      <point x="714" y="664" type="curve"/>
      <point x="714" y="199" type="line"/>
      <point x="672" y="158"/>
      <point x="617" y="123"/>
    </contour>
  </outline>
</glyph>
<glyph name="uni0262" format="2">
  <advance width="1275"/>
  <unicode hex="0262"/>
  <outline>
    <contour>
      <point x="1119" y="1004" type="line"/>
      <point x="1014" y="1004" type="line"/>
      <point x="1007" y="969"/>
      <point x="996" y="941"/>
      <point x="990" y="941" type="curve"/>
      <point x="983" y="941"/>
      <point x="969" y="947"/>
      <point x="949" y="955" type="curve"/>
      <point x="902" y="975"/>
      <point x="830" y="1004"/>
      <point x="688" y="1004" type="curve"/>
      <point x="352" y="1004"/>
      <point x="65" y="767"/>
      <point x="65" y="473" type="curve"/>
      <point x="65" y="195"/>
      <point x="324" y="-32"/>
      <point x="683" y="-32" type="curve"/>
      <point x="904" y="-32"/>
      <point x="1028" y="5"/>
      <point x="1163" y="71" type="curve"/>
      <point x="1163" y="265" type="line"/>
      <point x="1163" y="340"/>
      <point x="1193" y="364"/>
      <point x="1275" y="364" type="curve"/>
      <point x="1275" y="429" type="line"/>
      <point x="761" y="429" type="line"/>
      <point x="761" y="364" type="line"/>
      <point x="881" y="364"/>
      <point x="914" y="341"/>
      <point x="914" y="265" type="curve"/>
      <point x="914" y="113" type="line"/>
      <point x="865" y="80"/>
      <point x="806" y="61"/>
      <point x="739" y="61" type="curve"/>
      <point x="519" y="61"/>
      <point x="343" y="212"/>
      <point x="343" y="467" type="curve" smooth="yes"/>
      <point x="343" y="702"/>
      <point x="473" y="918"/>
      <point x="713" y="918" type="curve" smooth="yes"/>
      <point x="890" y="918"/>
      <point x="989" y="799"/>
      <point x="1034" y="643" type="curve"/>
      <point x="1148" y="643" type="line"/>
    </contour>
  </outline>
  <guideline angle="0" x="0" y="985"/>
</glyph>
<glyph name="uni0267" format="2">
  <advance width="1135"/>
  <unicode hex="0267"/>
  <outline>
    <contour>
      <point x="968" y="697" type="line"/>
      <point x="968" y="868"/>
      <point x="856" y="1004"/>
      <point x="713" y="1004" type="curve"/>
      <point x="608" y="1004"/>
      <point x="509" y="962"/>
      <point x="418" y="879" type="curve"/>
      <point x="418" y="1202" type="line"/>
      <point x="418" y="1291"/>
      <point x="469" y="1362"/>
      <point x="520" y="1362" type="curve"/>
      <point x="560" y="1362"/>
      <point x="583" y="1320"/>
      <point x="603" y="1280" type="curve"/>
      <point x="628" y="1231"/>
      <point x="654" y="1183"/>
      <point x="746" y="1183" type="curve"/>
      <point x="816" y="1183"/>
      <point x="871" y="1216"/>
      <point x="871" y="1283" type="curve"/>
      <point x="871" y="1413"/>
      <point x="722" y="1470"/>
      <point x="527" y="1470" type="curve"/>
      <point x="327" y="1470"/>
      <point x="167" y="1308"/>
      <point x="167" y="1104" type="curve"/>
      <point x="167" y="238" type="line"/>
      <point x="167" y="121"/>
      <point x="146" y="75"/>
      <point x="22" y="75" type="curve"/>
      <point x="22" y="0" type="line"/>
      <point x="567" y="0" type="line"/>
      <point x="567" y="75" type="line"/>
      <point x="444" y="75"/>
      <point x="418" y="121"/>
      <point x="418" y="238" type="curve"/>
      <point x="418" y="719" type="line"/>
      <point x="488" y="790"/>
      <point x="566" y="838"/>
      <point x="619" y="838" type="curve"/>
      <point x="676" y="838"/>
      <point x="718" y="779"/>
      <point x="718" y="667" type="curve" smooth="yes"/>
      <point x="718" y="-17" type="line"/>
      <point x="718" y="-141"/>
      <point x="682" y="-247"/>
      <point x="577" y="-247" type="curve"/>
      <point x="531" y="-247"/>
      <point x="489" y="-214"/>
      <point x="441" y="-176" type="curve"/>
      <point x="414" y="-156"/>
      <point x="384" y="-135"/>
      <point x="313" y="-135" type="curve"/>
      <point x="220" y="-135"/>
      <point x="171" y="-198"/>
      <point x="171" y="-262" type="curve"/>
      <point x="171" y="-321"/>
      <point x="226" y="-360"/>
      <point x="277" y="-390" type="curve"/>
      <point x="331" y="-418"/>
      <point x="431" y="-437"/>
      <point x="553" y="-437" type="curve"/>
      <point x="570" y="-437" type="line"/>
      <point x="758" y="-435"/>
      <point x="968" y="-314"/>
      <point x="968" y="-17" type="curve"/>
    </contour>
  </outline>
</glyph>
<glyph name="uni0269" format="2">
  <advance width="669"/>
  <unicode hex="0269"/>
  <outline>
    <contour>
      <point x="215" y="238" type="line"/>
      <point x="215" y="95"/>
      <point x="284" y="0"/>
      <point x="428" y="0" type="curve"/>
      <point x="575" y="0"/>
      <point x="617" y="63"/>
      <point x="669" y="172" type="curve"/>
      <point x="572" y="224" type="line"/>
      <point x="552" y="180"/>
      <point x="527" y="152"/>
      <point x="512" y="152" type="curve"/>
      <point x="488" y="152"/>
      <point x="466" y="177"/>
      <point x="466" y="238" type="curve"/>
      <point x="466" y="1004" type="line"/>
      <point x="363" y="1004" type="line"/>
      <point x="53" y="863" type="line"/>
      <point x="81" y="790" type="line"/>
      <point x="137" y="807"/>
      <point x="182" y="819"/>
      <point x="194" y="819" type="curve"/>
      <point x="215" y="819"/>
      <point x="215" y="778"/>
      <point x="215" y="683" type="curve"/>
    </contour>
  </outline>
</glyph>
<glyph name="uni026B" format="2">
  <advance width="804"/>
  <unicode hex="026B"/>
  <outline>
    <contour>
      <point x="126" y="593" type="line"/>
      <point x="138" y="652"/>
      <point x="158" y="738"/>
      <point x="197" y="738" type="curve"/>
      <point x="212" y="738"/>
      <point x="240" y="724"/>
      <point x="273" y="704" type="curve"/>
      <point x="273" y="238" type="line"/>
      <point x="273" y="121"/>
      <point x="251" y="75"/>
      <point x="127" y="75" type="curve"/>
      <point x="127" y="0" type="line"/>
      <point x="673" y="0" type="line"/>
      <point x="673" y="75" type="line"/>
      <point x="550" y="75"/>
      <point x="524" y="121"/>
      <point x="524" y="238" type="curve"/>
      <point x="524" y="593" type="line"/>
      <point x="542" y="593" type="line"/>
      <point x="726" y="593"/>
      <point x="786" y="759"/>
      <point x="786" y="905" type="curve"/>
      <point x="681" y="905" type="line"/>
      <point x="670" y="847"/>
      <point x="652" y="764"/>
      <point x="612" y="764" type="curve"/>
      <point x="591" y="764"/>
      <point x="560" y="778"/>
      <point x="524" y="800" type="curve"/>
      <point x="524" y="1470" type="line"/>
      <point x="426" y="1470" type="line"/>
      <point x="110" y="1332" type="line"/>
      <point x="138" y="1254" type="line"/>
      <point x="198" y="1273"/>
      <point x="239" y="1285"/>
      <point x="251" y="1285" type="curve"/>
      <point x="273" y="1285"/>
      <point x="273" y="1244"/>
      <point x="273" y="1152" type="curve"/>
      <point x="273" y="905" type="line"/>
      <point x="266" y="905" type="line"/>
      <point x="84" y="905"/>
      <point x="18" y="743"/>
      <point x="18" y="593" type="curve"/>
    </contour>
  </outline>
</glyph>
<glyph name="uni0272" format="2">
  <advance width="1153"/>
  <unicode hex="0272"/>
  <outline>
    <contour>
      <point x="633" y="838" type="curve" smooth="yes"/>
      <point x="690" y="838"/>
      <point x="729" y="779"/>
      <point x="729" y="667" type="curve"/>
      <point x="729" y="238" type="line"/>
      <point x="729" y="121"/>
      <point x="706" y="75"/>
      <point x="583" y="75" type="curve"/>
      <point x="583" y="0" type="line"/>
      <point x="1128" y="0" type="line"/>
      <point x="1128" y="75" type="line"/>
      <point x="1004" y="75"/>
      <point x="980" y="121"/>
      <point x="980" y="238" type="curve"/>
      <point x="980" y="697" type="line"/>
      <point x="980" y="868"/>
      <point x="867" y="1004"/>
      <point x="724" y="1004" type="curve"/>
      <point x="620" y="1004"/>
      <point x="520" y="962"/>
      <point x="433" y="881" type="curve"/>
      <point x="433" y="1004" type="line"/>
      <point x="329" y="1004" type="line"/>
      <point x="20" y="863" type="line"/>
      <point x="49" y="788" type="line"/>
      <point x="125" y="813"/>
      <point x="147" y="819"/>
      <point x="160" y="819" type="curve"/>
      <point x="182" y="819"/>
      <point x="182" y="778"/>
      <point x="182" y="683" type="curve"/>
      <point x="182" y="-17" type="line"/>
      <point x="182" y="-141"/>
      <point x="161" y="-247"/>
      <point x="124" y="-247" type="curve"/>
      <point x="106" y="-247"/>
      <point x="88" y="-230"/>
      <point x="57" y="-194" type="curve" smooth="yes"/>
      <point x="32" y="-166"/>
      <point x="-3" y="-135"/>
      <point x="-77" y="-135" type="curve"/>
      <point x="-170" y="-135"/>
      <point x="-219" y="-198"/>
      <point x="-219" y="-262" type="curve"/>
      <point x="-219" y="-321"/>
      <point x="-163" y="-360"/>
      <point x="-113" y="-390" type="curve"/>
      <point x="-59" y="-418"/>
      <point x="-13" y="-437"/>
      <point x="109" y="-437" type="curve"/>
      <point x="125" y="-437" type="line"/>
      <point x="299" y="-437"/>
      <point x="433" y="-314"/>
      <point x="433" y="-17" type="curve"/>
      <point x="433" y="721" type="line"/>
      <point x="499" y="791"/>
      <point x="577" y="838"/>
    </contour>
  </outline>
</glyph>
<glyph name="uni0278" format="2">
  <advance width="1071"/>
  <unicode hex="0278"/>
  <outline>
    <contour>
      <point x="425" y="-239" type="line" smooth="yes"/>
      <point x="425" y="-393"/>
      <point x="372" y="-430"/>
      <point x="223" y="-430" type="curve"/>
      <point x="223" y="-468" type="line"/>
      <point x="848" y="-468" type="line"/>
      <point x="848" y="-430" type="line"/>
      <point x="701" y="-430"/>
      <point x="645" y="-393"/>
      <point x="645" y="-239" type="curve" smooth="yes"/>
      <point x="645" y="-8" type="line"/>
      <point x="857" y="47"/>
      <point x="1003" y="262"/>
      <point x="1003" y="513" type="curve" smooth="yes"/>
      <point x="1003" y="740"/>
      <point x="857" y="930"/>
      <point x="645" y="979" type="curve"/>
      <point x="645" y="1209" type="line" smooth="yes"/>
      <point x="645" y="1362"/>
      <point x="701" y="1400"/>
      <point x="848" y="1400" type="curve"/>
      <point x="848" y="1437" type="line"/>
      <point x="223" y="1437" type="line"/>
      <point x="223" y="1400" type="line"/>
      <point x="372" y="1400"/>
      <point x="425" y="1362"/>
      <point x="425" y="1209" type="curve" smooth="yes"/>
      <point x="425" y="978" type="line"/>
      <point x="213" y="925"/>
      <point x="67" y="718"/>
      <point x="67" y="472" type="curve" smooth="yes"/>
      <point x="67" y="240"/>
      <point x="213" y="41"/>
      <point x="425" y="-10" type="curve"/>
    </contour>
    <contour>
      <point x="805" y="416" type="curve" smooth="yes"/>
      <point x="805" y="256"/>
      <point x="741" y="118"/>
      <point x="645" y="70" type="curve"/>
      <point x="645" y="877" type="line"/>
      <point x="760" y="799"/>
      <point x="805" y="622"/>
    </contour>
    <contour>
      <point x="266" y="561" type="curve" smooth="yes"/>
      <point x="266" y="720"/>
      <point x="335" y="855"/>
      <point x="425" y="903" type="curve"/>
      <point x="425" y="104" type="line"/>
      <point x="323" y="187"/>
      <point x="266" y="361"/>
    </contour>
  </outline>
</glyph>
<glyph name="uni027F" format="2">
  <advance width="900"/>
  <unicode hex="027F"/>
  <outline>
    <contour>
      <point x="716" y="638" type="line"/>
      <point x="716" y="842"/>
      <point x="557" y="1004"/>
      <point x="356" y="1004" type="curve"/>
      <point x="164" y="1004"/>
      <point x="16" y="948"/>
      <point x="16" y="816" type="curve"/>
      <point x="16" y="748"/>
      <point x="68" y="718"/>
      <point x="137" y="718" type="curve"/>
      <point x="228" y="718"/>
      <point x="253" y="766"/>
      <point x="279" y="815" type="curve"/>
      <point x="300" y="855"/>
      <point x="322" y="896"/>
      <point x="364" y="896" type="curve"/>
      <point x="416" y="896"/>
      <point x="466" y="824"/>
      <point x="466" y="737" type="curve"/>
      <point x="466" y="-198" type="line"/>
      <point x="466" y="-316"/>
      <point x="442" y="-362"/>
      <point x="317" y="-362" type="curve"/>
      <point x="317" y="-437" type="line"/>
      <point x="865" y="-437" type="line"/>
      <point x="865" y="-362" type="line"/>
      <point x="740" y="-362"/>
      <point x="716" y="-316"/>
      <point x="716" y="-198" type="curve"/>
    </contour>
  </outline>
</glyph>
<glyph name="uni0294" format="2">
  <advance width="984"/>
  <unicode hex="0294"/>
  <outline>
    <contour>
      <point x="346" y="238" type="curve" smooth="yes"/>
      <point x="346" y="121"/>
      <point x="324" y="75"/>
      <point x="200" y="75" type="curve"/>
      <point x="200" y="0" type="line"/>
      <point x="709" y="0" type="line"/>
      <point x="709" y="75" type="line"/>
      <point x="586" y="75"/>
      <point x="558" y="118"/>
      <point x="558" y="234" type="curve"/>
      <point x="558" y="444"/>
      <point x="651" y="577"/>
      <point x="739" y="704" type="curve"/>
      <point x="828" y="832"/>
      <point x="914" y="954"/>
      <point x="914" y="1120" type="curve"/>
      <point x="914" y="1338"/>
      <point x="733" y="1470"/>
      <point x="481" y="1470" type="curve"/>
      <point x="296" y="1470"/>
      <point x="65" y="1366"/>
      <point x="65" y="1137" type="curve"/>
      <point x="65" y="1034"/>
      <point x="134" y="976"/>
      <point x="222" y="976" type="curve"/>
      <point x="287" y="976"/>
      <point x="342" y="1012"/>
      <point x="342" y="1079" type="curve"/>
      <point x="342" y="1115"/>
      <point x="323" y="1148"/>
      <point x="304" y="1180" type="curve"/>
      <point x="290" y="1203"/>
      <point x="276" y="1226"/>
      <point x="276" y="1258" type="curve"/>
      <point x="276" y="1314"/>
      <point x="348" y="1355"/>
      <point x="430" y="1355" type="curve"/>
      <point x="545" y="1355"/>
      <point x="623" y="1271"/>
      <point x="623" y="1104" type="curve"/>
      <point x="623" y="944"/>
      <point x="560" y="825"/>
      <point x="495" y="704" type="curve"/>
      <point x="422" y="568"/>
      <point x="346" y="427"/>
    </contour>
  </outline>
</glyph>
<glyph name="uni0295" format="2">
  <advance width="984"/>
  <unicode hex="0295"/>
  <outline>
    <contour>
      <point x="633" y="238" type="curve" smooth="yes"/>
      <point x="633" y="427"/>
      <point x="557" y="568"/>
      <point x="484" y="704" type="curve"/>
      <point x="419" y="825"/>
      <point x="357" y="944"/>
      <point x="357" y="1104" type="curve"/>
      <point x="357" y="1271"/>
      <point x="435" y="1355"/>
      <point x="550" y="1355" type="curve"/>
      <point x="629" y="1355"/>
      <point x="702" y="1314"/>
      <point x="702" y="1258" type="curve"/>
      <point x="702" y="1226"/>
      <point x="689" y="1203"/>
      <point x="675" y="1180" type="curve"/>
      <point x="656" y="1148"/>
      <point x="637" y="1115"/>
      <point x="637" y="1084" type="curve"/>
      <point x="637" y="1012"/>
      <point x="691" y="976"/>
      <point x="758" y="976" type="curve"/>
      <point x="845" y="976"/>
      <point x="914" y="1034"/>
      <point x="914" y="1137" type="curve"/>
      <point x="914" y="1366"/>
      <point x="684" y="1470"/>
      <point x="499" y="1470" type="curve"/>
      <point x="245" y="1470"/>
      <point x="65" y="1338"/>
      <point x="65" y="1120" type="curve"/>
      <point x="65" y="954"/>
      <point x="151" y="832"/>
      <point x="239" y="705" type="curve"/>
      <point x="328" y="577"/>
      <point x="420" y="444"/>
      <point x="420" y="234" type="curve"/>
      <point x="420" y="118"/>
      <point x="393" y="75"/>
      <point x="269" y="75" type="curve"/>
      <point x="269" y="0" type="line"/>
      <point x="779" y="0" type="line"/>
      <point x="779" y="75" type="line"/>
      <point x="655" y="75"/>
      <point x="633" y="121"/>
    </contour>
  </outline>
</glyph>
<glyph name="uni02A2" format="2">
  <advance width="984"/>
  <unicode hex="02A2"/>
  <outline>
    <contour>
      <point x="157" y="401" type="line"/>
      <point x="399" y="401" type="line"/>
      <point x="412" y="350"/>
      <point x="420" y="296"/>
      <point x="420" y="234" type="curve"/>
      <point x="420" y="118"/>
      <point x="393" y="75"/>
      <point x="269" y="75" type="curve"/>
      <point x="269" y="0" type="line"/>
      <point x="779" y="0" type="line"/>
      <point x="779" y="75" type="line"/>
      <point x="655" y="75"/>
      <point x="633" y="121"/>
      <point x="633" y="238" type="curve"/>
      <point x="633" y="297"/>
      <point x="626" y="350"/>
      <point x="614" y="401" type="curve"/>
      <point x="808" y="401" type="line"/>
      <point x="808" y="575" type="line"/>
      <point x="551" y="575" type="line"/>
      <point x="530" y="619"/>
      <point x="507" y="662"/>
      <point x="484" y="704" type="curve"/>
      <point x="419" y="825"/>
      <point x="357" y="944"/>
      <point x="357" y="1104" type="curve"/>
      <point x="357" y="1271"/>
      <point x="435" y="1355"/>
      <point x="550" y="1355" type="curve"/>
      <point x="629" y="1355"/>
      <point x="702" y="1314"/>
      <point x="702" y="1258" type="curve"/>
      <point x="702" y="1226"/>
      <point x="689" y="1203"/>
      <point x="675" y="1180" type="curve"/>
      <point x="656" y="1148"/>
      <point x="637" y="1115"/>
      <point x="637" y="1084" type="curve"/>
      <point x="637" y="1012"/>
      <point x="691" y="976"/>
      <point x="758" y="976" type="curve"/>
      <point x="845" y="976"/>
      <point x="914" y="1034"/>
      <point x="914" y="1137" type="curve"/>
      <point x="914" y="1366"/>
      <point x="684" y="1470"/>
      <point x="499" y="1470" type="curve"/>
      <point x="245" y="1470"/>
      <point x="65" y="1338"/>
      <point x="65" y="1120" type="curve"/>
      <point x="65" y="954"/>
      <point x="149" y="830"/>
      <point x="238" y="704" type="curve" smooth="yes"/>
      <point x="267" y="662"/>
      <point x="297" y="620"/>
      <point x="324" y="575" type="curve"/>
      <point x="157" y="575" type="line"/>
    </contour>
  </outline>
</glyph>
<glyph name="uni02BC" format="2">
  <advance width="542"/>
  <unicode hex="02BC"/>
  <outline>
    <contour>
      <point x="247" y="844" type="line"/>
      <point x="279" y="944"/>
      <point x="306" y="1009"/>
      <point x="332" y="1069" type="curve" smooth="yes"/>
      <point x="370" y="1157"/>
      <point x="405" y="1236"/>
      <point x="421" y="1331" type="curve"/>
      <point x="422" y="1336"/>
      <point x="422" y="1341"/>
      <point x="422" y="1346" type="curve" smooth="yes"/>
      <point x="422" y="1403"/>
      <point x="374" y="1449"/>
      <point x="309" y="1461" type="curve"/>
      <point x="301" y="1462"/>
      <point x="292" y="1463"/>
      <point x="284" y="1463" type="curve" smooth="yes"/>
      <point x="229" y="1463"/>
      <point x="173" y="1432"/>
      <point x="163" y="1377" type="curve" smooth="yes"/>
      <point x="154" y="1323"/>
      <point x="150" y="1272"/>
      <point x="150" y="1221" type="curve" smooth="yes"/>
      <point x="150" y="1178"/>
      <point x="153" y="1134"/>
      <point x="156" y="1088" type="curve"/>
      <point x="158" y="1031"/>
      <point x="161" y="971"/>
      <point x="161" y="901" type="curve" smooth="yes"/>
      <point x="161" y="860" type="line"/>
    </contour>
  </outline>
</glyph>
<glyph name="uni02D0" format="2">
  <advance width="440"/>
  <unicode hex="02D0"/>
  <outline>
    <contour>
      <point x="20" y="1004" type="line"/>
      <point x="122" y="656" type="line"/>
      <point x="317" y="656" type="line"/>
      <point x="420" y="1004" type="line"/>
    </contour>
    <contour>
      <point x="420" y="0" type="line"/>
      <point x="317" y="348" type="line"/>
      <point x="122" y="348" type="line"/>
      <point x="20" y="0" type="line"/>
    </contour>
  </outline>
</glyph>
<glyph name="uni0302" format="2">
  <unicode hex="0302"/>
  <outline>
    <contour>
      <point x="-624" y="1471" type="line"/>
      <point x="-834" y="1119" type="line"/>
      <point x="-800" y="1119" type="line"/>
      <point x="-523" y="1343" type="line"/>
      <point x="-246" y="1119" type="line"/>
      <point x="-208" y="1119" type="line"/>
      <point x="-422" y="1471" type="line"/>
    </contour>
  </outline>
</glyph>
<glyph name="uni0303" format="2">
  <unicode hex="0303"/>
  <outline>
    <contour>
      <point x="-799" y="1158" type="line"/>
      <point x="-787" y="1216"/>
      <point x="-744" y="1304"/>
      <point x="-689" y="1304" type="curve" smooth="yes"/>
      <point x="-645" y="1304"/>
      <point x="-610" y="1274"/>
      <point x="-564" y="1234" type="curve" smooth="yes"/>
      <point x="-510" y="1187"/>
      <point x="-459" y="1158"/>
      <point x="-373" y="1158" type="curve" smooth="yes"/>
      <point x="-189" y="1158"/>
      <point x="-139" y="1324"/>
      <point x="-139" y="1470" type="curve"/>
      <point x="-244" y="1470" type="line"/>
      <point x="-255" y="1412"/>
      <point x="-298" y="1328"/>
      <point x="-353" y="1328" type="curve" smooth="yes"/>
      <point x="-391" y="1328"/>
      <point x="-424" y="1351"/>
      <point x="-478" y="1398" type="curve" smooth="yes"/>
      <point x="-532" y="1445"/>
      <point x="-583" y="1470"/>
      <point x="-670" y="1470" type="curve" smooth="yes"/>
      <point x="-851" y="1470"/>
      <point x="-907" y="1308"/>
      <point x="-907" y="1158" type="curve"/>
    </contour>
  </outline>
</glyph>
<glyph name="uni0306" format="2">
  <unicode hex="0306"/>
  <outline>
    <contour>
      <point x="-282" y="1440" type="line"/>
      <point x="-303" y="1385"/>
      <point x="-401" y="1252"/>
      <point x="-523" y="1252" type="curve"/>
      <point x="-645" y="1252"/>
      <point x="-739" y="1385"/>
      <point x="-760" y="1440" type="curve"/>
      <point x="-873" y="1440" type="line"/>
      <point x="-853" y="1337"/>
      <point x="-752" y="1090"/>
      <point x="-523" y="1090" type="curve"/>
      <point x="-293" y="1090"/>
      <point x="-193" y="1337"/>
      <point x="-173" y="1440" type="curve"/>
    </contour>
  </outline>
</glyph>
<glyph name="uni0308" format="2">
  <unicode hex="0308"/>
  <outline>
    <contour>
      <point x="-907" y="1356" type="curve" smooth="yes"/>
      <point x="-907" y="1291"/>
      <point x="-842" y="1235"/>
      <point x="-766" y="1235" type="curve"/>
      <point x="-690" y="1235"/>
      <point x="-623" y="1291"/>
      <point x="-623" y="1356" type="curve"/>
      <point x="-623" y="1421"/>
      <point x="-690" y="1477"/>
      <point x="-766" y="1477" type="curve"/>
      <point x="-842" y="1477"/>
      <point x="-907" y="1421"/>
    </contour>
    <contour>
      <point x="-423" y="1356" type="curve" smooth="yes"/>
      <point x="-423" y="1291"/>
      <point x="-358" y="1235"/>
      <point x="-282" y="1235" type="curve"/>
      <point x="-206" y="1235"/>
      <point x="-139" y="1291"/>
      <point x="-139" y="1356" type="curve"/>
      <point x="-139" y="1421"/>
      <point x="-206" y="1477"/>
      <point x="-282" y="1477" type="curve"/>
      <point x="-358" y="1477"/>
      <point x="-423" y="1421"/>
    </contour>
  </outline>
</glyph>
<glyph name="uni030A" format="2">
  <unicode hex="030A"/>
  <outline>
    <contour>
      <point x="-827" y="1357" type="curve" smooth="yes"/>
      <point x="-827" y="1200"/>
      <point x="-692" y="1074"/>
      <point x="-523" y="1074" type="curve"/>
      <point x="-353" y="1074"/>
      <point x="-219" y="1200"/>
      <point x="-219" y="1357" type="curve"/>
      <point x="-219" y="1516"/>
      <point x="-353" y="1641"/>
      <point x="-523" y="1641" type="curve"/>
      <point x="-692" y="1641"/>
      <point x="-827" y="1516"/>
    </contour>
    <contour>
      <point x="-663" y="1357" type="curve" smooth="yes"/>
      <point x="-663" y="1445"/>
      <point x="-600" y="1519"/>
      <point x="-523" y="1519" type="curve"/>
      <point x="-446" y="1519"/>
      <point x="-382" y="1445"/>
      <point x="-382" y="1357" type="curve"/>
      <point x="-382" y="1271"/>
      <point x="-446" y="1197"/>
      <point x="-523" y="1197" type="curve"/>
      <point x="-600" y="1197"/>
      <point x="-663" y="1271"/>
    </contour>
  </outline>
</glyph>
<glyph name="uni0318" format="2">
  <unicode hex="0318"/>
  <outline>
    <contour>
      <point x="-453" y="-491" type="line"/>
      <point x="-265" y="-491" type="line"/>
      <point x="-265" y="-89" type="line"/>
      <point x="-453" y="-89" type="line"/>
      <point x="-453" y="-216" type="line"/>
      <point x="-671" y="-216" type="line"/>
      <point x="-671" y="-364" type="line"/>
      <point x="-453" y="-364" type="line"/>
    </contour>
  </outline>
</glyph>
<glyph name="uni0319" format="2">
  <unicode hex="0319"/>
  <outline>
    <contour>
      <point x="-593" y="-89" type="line"/>
      <point x="-782" y="-89" type="line"/>
      <point x="-782" y="-491" type="line"/>
      <point x="-593" y="-491" type="line"/>
      <point x="-593" y="-364" type="line"/>
      <point x="-374" y="-364" type="line"/>
      <point x="-374" y="-216" type="line"/>
      <point x="-593" y="-216" type="line"/>
    </contour>
  </outline>
</glyph>
<glyph name="uni031A" format="2">
  <unicode hex="031A"/>
  <outline>
    <contour>
      <point x="-239" y="961" type="line"/>
      <point x="-50" y="961" type="line"/>
      <point x="-50" y="1437" type="line"/>
      <point x="-513" y="1437" type="line"/>
      <point x="-513" y="1289" type="line"/>
      <point x="-239" y="1289" type="line"/>
    </contour>
  </outline>
</glyph>
<glyph name="uni031D" format="2">
  <unicode hex="031D"/>
  <outline>
    <contour>
      <point x="-301" y="-474" type="line"/>
      <point x="-301" y="-325" type="line"/>
      <point x="-429" y="-325" type="line"/>
      <point x="-429" y="-107" type="line"/>
      <point x="-617" y="-107" type="line"/>
      <point x="-617" y="-325" type="line"/>
      <point x="-745" y="-325" type="line"/>
      <point x="-745" y="-474" type="line"/>
    </contour>
  </outline>
</glyph>
<glyph name="uni031E" format="2">
  <unicode hex="031E"/>
  <outline>
    <contour>
      <point x="-301" y="-255" type="line"/>
      <point x="-301" y="-107" type="line"/>
      <point x="-744" y="-107" type="line"/>
      <point x="-744" y="-255" type="line"/>
      <point x="-617" y="-255" type="line"/>
      <point x="-617" y="-474" type="line"/>
      <point x="-428" y="-474" type="line"/>
      <point x="-428" y="-255" type="line"/>
    </contour>
  </outline>
</glyph>
<glyph name="uni031F" format="2">
  <unicode hex="031F"/>
  <outline>
    <contour>
      <point x="-301" y="-382" type="line"/>
      <point x="-301" y="-234" type="line"/>
      <point x="-428" y="-234" type="line"/>
      <point x="-428" y="-107" type="line"/>
      <point x="-618" y="-107" type="line"/>
      <point x="-618" y="-234" type="line"/>
      <point x="-745" y="-234" type="line"/>
      <point x="-745" y="-382" type="line"/>
      <point x="-618" y="-382" type="line"/>
      <point x="-618" y="-510" type="line"/>
      <point x="-428" y="-510" type="line"/>
      <point x="-428" y="-382" type="line"/>
    </contour>
  </outline>
</glyph>
<glyph name="uni0323" format="2">
  <unicode hex="0323"/>
  <outline>
    <contour>
      <point x="-672" y="-235" type="curve" smooth="yes"/>
      <point x="-672" y="-300"/>
      <point x="-598" y="-364"/>
      <point x="-523" y="-364" type="curve"/>
      <point x="-449" y="-364"/>
      <point x="-374" y="-300"/>
      <point x="-374" y="-235" type="curve"/>
      <point x="-374" y="-171"/>
      <point x="-449" y="-107"/>
      <point x="-523" y="-107" type="curve"/>
      <point x="-598" y="-107"/>
      <point x="-672" y="-171"/>
    </contour>
  </outline>
</glyph>
<glyph name="uni0324" format="2">
  <unicode hex="0324"/>
  <outline>
    <contour>
      <point x="-907" y="-244" type="curve" smooth="yes"/>
      <point x="-907" y="-309"/>
      <point x="-842" y="-365"/>
      <point x="-766" y="-365" type="curve"/>
      <point x="-690" y="-365"/>
      <point x="-623" y="-309"/>
      <point x="-623" y="-244" type="curve"/>
      <point x="-623" y="-179"/>
      <point x="-690" y="-123"/>
      <point x="-766" y="-123" type="curve"/>
      <point x="-842" y="-123"/>
      <point x="-907" y="-179"/>
    </contour>
    <contour>
      <point x="-423" y="-244" type="curve" smooth="yes"/>
      <point x="-423" y="-309"/>
      <point x="-358" y="-365"/>
      <point x="-282" y="-365" type="curve"/>
      <point x="-206" y="-365"/>
      <point x="-139" y="-309"/>
      <point x="-139" y="-244" type="curve"/>
      <point x="-139" y="-179"/>
      <point x="-206" y="-123"/>
      <point x="-282" y="-123" type="curve"/>
      <point x="-358" y="-123"/>
      <point x="-423" y="-179"/>
    </contour>
  </outline>
</glyph>
<glyph name="uni0325" format="2">
  <unicode hex="0325"/>
  <outline>
    <contour>
      <point x="-828" y="-367" type="curve" smooth="yes"/>
      <point x="-828" y="-525"/>
      <point x="-693" y="-650"/>
      <point x="-523" y="-650" type="curve"/>
      <point x="-353" y="-650"/>
      <point x="-220" y="-525"/>
      <point x="-220" y="-367" type="curve"/>
      <point x="-220" y="-208"/>
      <point x="-353" y="-83"/>
      <point x="-523" y="-83" type="curve"/>
      <point x="-693" y="-83"/>
      <point x="-828" y="-208"/>
    </contour>
    <contour>
      <point x="-663" y="-367" type="curve" smooth="yes"/>
      <point x="-663" y="-278"/>
      <point x="-600" y="-206"/>
      <point x="-523" y="-206" type="curve"/>
      <point x="-447" y="-206"/>
      <point x="-383" y="-278"/>
      <point x="-383" y="-367" type="curve"/>
      <point x="-383" y="-453"/>
      <point x="-447" y="-527"/>
      <point x="-523" y="-527" type="curve"/>
      <point x="-600" y="-527"/>
      <point x="-663" y="-453"/>
    </contour>
  </outline>
</glyph>
<glyph name="uni0327" format="2">
  <unicode hex="0327"/>
  <outline>
    <contour>
      <point x="-552" y="39" type="line"/>
      <point x="-611" y="16"/>
      <point x="-705" y="-102"/>
      <point x="-744" y="-179" type="curve"/>
      <point x="-683" y="-183"/>
      <point x="-620" y="-211"/>
      <point x="-620" y="-254" type="curve"/>
      <point x="-620" y="-289"/>
      <point x="-657" y="-329"/>
      <point x="-686" y="-329" type="curve"/>
      <point x="-718" y="-329"/>
      <point x="-757" y="-307"/>
      <point x="-790" y="-281" type="curve"/>
      <point x="-843" y="-355" type="line"/>
      <point x="-812" y="-391"/>
      <point x="-720" y="-429"/>
      <point x="-660" y="-429" type="curve"/>
      <point x="-434" y="-429"/>
      <point x="-392" y="-308"/>
      <point x="-392" y="-221" type="curve"/>
      <point x="-392" y="-160"/>
      <point x="-469" y="-113"/>
      <point x="-533" y="-93" type="curve"/>
      <point x="-504" y="-55"/>
      <point x="-450" y="-8"/>
      <point x="-414" y="3" type="curve"/>
      <point x="-424" y="39" type="line"/>
    </contour>
  </outline>
</glyph>
<glyph name="uni0328" format="2">
  <unicode hex="0328"/>
  <outline>
    <contour>
      <point x="-398" y="-152" type="line"/>
      <point x="-462" y="-210"/>
      <point x="-510" y="-237"/>
      <point x="-538" y="-237" type="curve"/>
      <point x="-559" y="-237"/>
      <point x="-572" y="-201"/>
      <point x="-572" y="-174" type="curve"/>
      <point x="-572" y="-82"/>
      <point x="-472" y="1"/>
      <point x="-410" y="39" type="curve"/>
      <point x="-579" y="39" type="line"/>
      <point x="-710" y="-33"/>
      <point x="-762" y="-114"/>
      <point x="-762" y="-208" type="curve"/>
      <point x="-762" y="-294"/>
      <point x="-689" y="-367"/>
      <point x="-594" y="-367" type="curve"/>
      <point x="-489" y="-367"/>
      <point x="-385" y="-278"/>
      <point x="-333" y="-227" type="curve"/>
    </contour>
  </outline>
</glyph>
<glyph name="uni0329" format="2">
  <unicode hex="0329"/>
  <outline>
    <contour>
      <point x="-617" y="-510" type="line"/>
      <point x="-429" y="-510" type="line"/>
      <point x="-429" y="-107" type="line"/>
      <point x="-617" y="-107" type="line"/>
    </contour>
  </outline>
</glyph>
<glyph name="uni032A" format="2">
  <unicode hex="032A"/>
  <outline>
    <contour>
      <point x="-399" y="-510" type="line"/>
      <point x="-210" y="-510" type="line"/>
      <point x="-210" y="-107" type="line"/>
      <point x="-836" y="-107" type="line"/>
      <point x="-836" y="-510" type="line"/>
      <point x="-647" y="-510" type="line"/>
      <point x="-647" y="-255" type="line"/>
      <point x="-399" y="-255" type="line"/>
    </contour>
  </outline>
</glyph>
<glyph name="uni032B" format="2">
  <unicode hex="032B"/>
  <outline>
    <contour>
      <point x="-287" y="-107" type="line"/>
      <point x="-309" y="-161"/>
      <point x="-337" y="-216"/>
      <point x="-382" y="-216" type="curve"/>
      <point x="-412" y="-216"/>
      <point x="-447" y="-155"/>
      <point x="-470" y="-107" type="curve"/>
      <point x="-585" y="-107" type="line"/>
      <point x="-606" y="-155"/>
      <point x="-633" y="-216"/>
      <point x="-674" y="-216" type="curve"/>
      <point x="-707" y="-216"/>
      <point x="-747" y="-161"/>
      <point x="-769" y="-107" type="curve"/>
      <point x="-881" y="-107" type="line"/>
      <point x="-859" y="-215"/>
      <point x="-791" y="-346"/>
      <point x="-674" y="-346" type="curve"/>
      <point x="-602" y="-346"/>
      <point x="-555" y="-312"/>
      <point x="-523" y="-265" type="curve"/>
      <point x="-489" y="-312"/>
      <point x="-441" y="-346"/>
      <point x="-382" y="-346" type="curve"/>
      <point x="-241" y="-346"/>
      <point x="-197" y="-215"/>
      <point x="-175" y="-107" type="curve"/>
    </contour>
  </outline>
</glyph>
<glyph name="uni032C" format="2">
  <unicode hex="032C"/>
  <outline>
    <contour>
      <point x="-396" y="-437" type="line"/>
      <point x="-169" y="-56" type="line"/>
      <point x="-274" y="-56" type="line"/>
      <point x="-523" y="-258" type="line"/>
      <point x="-773" y="-56" type="line"/>
      <point x="-881" y="-56" type="line"/>
      <point x="-649" y="-437" type="line"/>
    </contour>
  </outline>
</glyph>
<glyph name="uni032F" format="2">
  <unicode hex="032F"/>
  <outline>
    <contour>
      <point x="-762" y="-455" type="line"/>
      <point x="-740" y="-401"/>
      <point x="-645" y="-269"/>
      <point x="-523" y="-269" type="curve"/>
      <point x="-401" y="-269"/>
      <point x="-307" y="-401"/>
      <point x="-285" y="-455" type="curve"/>
      <point x="-175" y="-455" type="line"/>
      <point x="-195" y="-352"/>
      <point x="-295" y="-107"/>
      <point x="-523" y="-107" type="curve"/>
      <point x="-753" y="-107"/>
      <point x="-848" y="-352"/>
      <point x="-869" y="-455" type="curve"/>
    </contour>
  </outline>
</glyph>
<glyph name="uni0330" format="2">
  <unicode hex="0330"/>
  <outline>
    <contour>
      <point x="-799" y="-442" type="line"/>
      <point x="-787" y="-384"/>
      <point x="-744" y="-296"/>
      <point x="-689" y="-296" type="curve" smooth="yes"/>
      <point x="-645" y="-296"/>
      <point x="-610" y="-326"/>
      <point x="-564" y="-366" type="curve" smooth="yes"/>
      <point x="-510" y="-413"/>
      <point x="-459" y="-442"/>
      <point x="-373" y="-442" type="curve" smooth="yes"/>
      <point x="-189" y="-442"/>
      <point x="-139" y="-276"/>
      <point x="-139" y="-130" type="curve"/>
      <point x="-244" y="-130" type="line"/>
      <point x="-255" y="-188"/>
      <point x="-298" y="-272"/>
      <point x="-353" y="-272" type="curve" smooth="yes"/>
      <point x="-391" y="-272"/>
      <point x="-424" y="-249"/>
      <point x="-478" y="-202" type="curve" smooth="yes"/>
      <point x="-532" y="-155"/>
      <point x="-583" y="-130"/>
      <point x="-670" y="-130" type="curve" smooth="yes"/>
      <point x="-851" y="-130"/>
      <point x="-907" y="-292"/>
      <point x="-907" y="-442" type="curve"/>
    </contour>
  </outline>
</glyph>
<glyph name="uni0332" format="2">
  <unicode hex="0332"/>
  <outline>
    <contour>
      <point x="-1050" y="-150" type="line"/>
      <point x="-1050" y="-318" type="line"/>
      <point x="0" y="-318" type="line"/>
      <point x="0" y="-150" type="line"/>
    </contour>
  </outline>
</glyph>
<glyph name="uni0333" format="2">
  <unicode hex="0333"/>
  <outline>
    <contour>
      <point x="-1050" y="-150" type="line"/>
      <point x="-1050" y="-318" type="line"/>
      <point x="0" y="-318" type="line"/>
      <point x="0" y="-150" type="line"/>
    </contour>
    <contour>
      <point x="-1050" y="-470" type="line"/>
      <point x="-1050" y="-638" type="line"/>
      <point x="0" y="-638" type="line"/>
      <point x="0" y="-470" type="line"/>
    </contour>
  </outline>
</glyph>
<glyph name="uni033A" format="2">
  <unicode hex="033A"/>
  <outline>
    <contour>
      <point x="-647" y="-107" type="line"/>
      <point x="-836" y="-107" type="line"/>
      <point x="-836" y="-510" type="line"/>
      <point x="-210" y="-510" type="line"/>
      <point x="-210" y="-107" type="line"/>
      <point x="-399" y="-107" type="line"/>
      <point x="-399" y="-362" type="line"/>
      <point x="-647" y="-362" type="line"/>
    </contour>
  </outline>
</glyph>
<glyph name="uni033B" format="2">
  <unicode hex="033B"/>
  <outline>
    <contour>
      <point x="-836" y="-107" type="line"/>
      <point x="-836" y="-692" type="line"/>
      <point x="-210" y="-692" type="line"/>
      <point x="-210" y="-107" type="line"/>
    </contour>
    <contour>
      <point x="-647" y="-255" type="line"/>
      <point x="-399" y="-255" type="line"/>
      <point x="-399" y="-544" type="line"/>
      <point x="-647" y="-544" type="line"/>
    </contour>
  </outline>
</glyph>
<glyph name="uni033C" format="2">
  <unicode hex="033C"/>
  <outline>
    <contour>
      <point x="-760" y="-346" type="line"/>
      <point x="-738" y="-291"/>
      <point x="-710" y="-236"/>
      <point x="-665" y="-236" type="curve"/>
      <point x="-635" y="-236"/>
      <point x="-600" y="-297"/>
      <point x="-577" y="-346" type="curve"/>
      <point x="-461" y="-346" type="line"/>
      <point x="-440" y="-297"/>
      <point x="-413" y="-236"/>
      <point x="-373" y="-236" type="curve"/>
      <point x="-340" y="-236"/>
      <point x="-300" y="-291"/>
      <point x="-278" y="-346" type="curve"/>
      <point x="-166" y="-346" type="line"/>
      <point x="-188" y="-237"/>
      <point x="-256" y="-107"/>
      <point x="-373" y="-107" type="curve"/>
      <point x="-445" y="-107"/>
      <point x="-492" y="-140"/>
      <point x="-523" y="-188" type="curve"/>
      <point x="-558" y="-140"/>
      <point x="-604" y="-107"/>
      <point x="-665" y="-107" type="curve"/>
      <point x="-806" y="-107"/>
      <point x="-850" y="-237"/>
      <point x="-872" y="-346" type="curve"/>
    </contour>
  </outline>
</glyph>
<glyph name="uni033D" format="2">
  <unicode hex="033D"/>
  <outline>
    <contour>
      <point x="-635" y="1093" type="line"/>
      <point x="-523" y="1199" type="line"/>
      <point x="-425" y="1093" type="line"/>
      <point x="-230" y="1093" type="line"/>
      <point x="-424" y="1284" type="line"/>
      <point x="-230" y="1477" type="line"/>
      <point x="-423" y="1477" type="line"/>
      <point x="-523" y="1376" type="line"/>
      <point x="-635" y="1477" type="line"/>
      <point x="-831" y="1477" type="line"/>
      <point x="-618" y="1283" type="line"/>
      <point x="-830" y="1093" type="line"/>
    </contour>
  </outline>
</glyph>
<glyph name="uni0361" format="2">
  <unicode hex="0361"/>
  <outline>
    <contour>
      <point x="0" y="1773" type="curve" smooth="yes"/>
      <point x="195" y="1773"/>
      <point x="671" y="1653"/>
      <point x="771" y="1515" type="curve"/>
      <point x="791" y="1495"/>
      <point x="807" y="1483"/>
      <point x="834" y="1483" type="curve"/>
      <point x="868" y="1483"/>
      <point x="885" y="1497"/>
      <point x="885" y="1521" type="curve"/>
      <point x="854" y="1635"/>
      <point x="401" y="1958"/>
      <point x="0" y="1958" type="curve"/>
      <point x="-392" y="1958"/>
      <point x="-854" y="1635"/>
      <point x="-885" y="1521" type="curve"/>
      <point x="-885" y="1497"/>
      <point x="-868" y="1483"/>
      <point x="-834" y="1483" type="curve"/>
      <point x="-808" y="1483"/>
      <point x="-791" y="1495"/>
      <point x="-772" y="1515" type="curve"/>
      <point x="-671" y="1653"/>
      <point x="-196" y="1773"/>
    </contour>
  </outline>
</glyph>
<glyph name="uni1780" format="2">
  <advance width="1425"/>
  <unicode hex="1780"/>
  <anchor x="1200" y="0" name="L"/>
  <anchor x="1200" y="1440" name="U"/>
  <outline>
    <contour>
      <point x="495" y="0" type="line"/>
      <point x="495" y="915" type="line" smooth="yes"/>
      <point x="495" y="964"/>
      <point x="664" y="1009"/>
      <point x="758" y="1009" type="curve" smooth="yes"/>
      <point x="852" y="1009"/>
      <point x="1020" y="964"/>
      <point x="1020" y="915" type="curve" smooth="yes"/>
      <point x="1020" y="0" type="line"/>
      <point x="1245" y="0" type="line"/>
      <point x="1245" y="934" type="line" smooth="yes"/>
      <point x="1245" y="1039"/>
      <point x="964" y="1140"/>
      <point x="758" y="1140" type="curve" smooth="yes"/>
      <point x="624" y="1140"/>
      <point x="458" y="1097"/>
      <point x="358" y="1039" type="curve"/>
      <point x="332" y="1062"/>
      <point x="312" y="1098"/>
      <point x="312" y="1129" type="curve" smooth="yes"/>
      <point x="312" y="1222"/>
      <point x="379" y="1275"/>
      <point x="443" y="1275" type="curve" smooth="yes"/>
      <point x="574" y="1275"/>
      <point x="694" y="1204"/>
      <point x="754" y="1166" type="curve"/>
      <point x="814" y="1226"/>
      <point x="938" y="1279"/>
      <point x="1032" y="1279" type="curve" smooth="yes"/>
      <point x="1107" y="1279"/>
      <point x="1155" y="1196"/>
      <point x="1219" y="1196" type="curve" smooth="yes"/>
      <point x="1328" y="1196"/>
      <point x="1388" y="1230"/>
      <point x="1395" y="1372" type="curve"/>
      <point x="1373" y="1350"/>
      <point x="1328" y="1342"/>
      <point x="1313" y="1342" type="curve" smooth="yes"/>
      <point x="1212" y="1342"/>
      <point x="1155" y="1440"/>
      <point x="1024" y="1440" type="curve" smooth="yes"/>
      <point x="912" y="1440"/>
      <point x="825" y="1402"/>
      <point x="754" y="1335" type="curve"/>
      <point x="660" y="1406"/>
      <point x="548" y="1440"/>
      <point x="402" y="1440" type="curve" smooth="yes"/>
      <point x="248" y="1440"/>
      <point x="143" y="1286"/>
      <point x="143" y="1162" type="curve" smooth="yes"/>
      <point x="143" y="1088"/>
      <point x="211" y="1003"/>
      <point x="275" y="958" type="curve"/>
      <point x="271" y="950"/>
      <point x="270" y="942"/>
      <point x="270" y="934" type="curve" smooth="yes"/>
      <point x="270" y="0" type="line"/>
    </contour>
  </outline>
</glyph>
<glyph name="uni1781" format="2">
  <advance width="1315"/>
  <unicode hex="1781"/>
  <anchor x="1125" y="0" name="L"/>
  <anchor x="1125" y="1440" name="U"/>
  <outline>
    <contour>
      <point x="190" y="1121" type="curve" smooth="yes"/>
      <point x="190" y="1035"/>
      <point x="239" y="937"/>
      <point x="325" y="877" type="curve"/>
      <point x="355" y="855"/>
      <point x="404" y="844"/>
      <point x="445" y="844" type="curve"/>
      <point x="535" y="844"/>
      <point x="625" y="900"/>
      <point x="625" y="986" type="curve"/>
      <point x="625" y="1046"/>
      <point x="569" y="1091"/>
      <point x="490" y="1091" type="curve"/>
      <point x="457" y="1091"/>
      <point x="434" y="1084"/>
      <point x="408" y="1072" type="curve"/>
      <point x="400" y="1087"/>
      <point x="396" y="1110"/>
      <point x="396" y="1129" type="curve"/>
      <point x="396" y="1222"/>
      <point x="509" y="1290"/>
      <point x="667" y="1290" type="curve"/>
      <point x="835" y="1290"/>
      <point x="959" y="1222"/>
      <point x="959" y="1027" type="curve"/>
      <point x="959" y="739"/>
      <point x="307" y="435"/>
      <point x="190" y="405" type="curve"/>
      <point x="190" y="199"/>
      <point x="408" y="0"/>
      <point x="644" y="0" type="curve"/>
      <point x="880" y="0"/>
      <point x="997" y="67"/>
      <point x="1083" y="161" type="curve"/>
      <point x="1154" y="229"/>
      <point x="1165" y="341"/>
      <point x="1165" y="382" type="curve"/>
      <point x="1165" y="457"/>
      <point x="1090" y="562"/>
      <point x="982" y="611" type="curve"/>
      <point x="1000" y="544"/>
      <point x="1015" y="517"/>
      <point x="1015" y="420" type="curve"/>
      <point x="1015" y="236"/>
      <point x="813" y="150"/>
      <point x="663" y="150" type="curve"/>
      <point x="517" y="150"/>
      <point x="445" y="229"/>
      <point x="412" y="311" type="curve"/>
      <point x="618" y="386"/>
      <point x="1165" y="697"/>
      <point x="1165" y="1027" type="curve"/>
      <point x="1165" y="1301"/>
      <point x="970" y="1440"/>
      <point x="648" y="1440" type="curve"/>
      <point x="449" y="1440"/>
      <point x="190" y="1339"/>
    </contour>
  </outline>
</glyph>
<glyph name="uni1782" format="2">
  <advance width="1425"/>
  <unicode hex="1782"/>
  <anchor x="1200" y="0" name="L"/>
  <anchor x="1200" y="1440" name="U"/>
  <outline>
    <contour>
      <point x="495" y="319" type="curve"/>
      <point x="495" y="915" type="line" smooth="yes"/>
      <point x="495" y="964"/>
      <point x="664" y="1009"/>
      <point x="758" y="1009" type="curve" smooth="yes"/>
      <point x="852" y="1009"/>
      <point x="1020" y="964"/>
      <point x="1020" y="915" type="curve" smooth="yes"/>
      <point x="1020" y="0" type="line"/>
      <point x="1245" y="0" type="line"/>
      <point x="1245" y="934" type="line" smooth="yes"/>
      <point x="1245" y="1039"/>
      <point x="964" y="1140"/>
      <point x="758" y="1140" type="curve" smooth="yes"/>
      <point x="624" y="1140"/>
      <point x="458" y="1097"/>
      <point x="358" y="1039" type="curve"/>
      <point x="332" y="1062"/>
      <point x="312" y="1098"/>
      <point x="312" y="1129" type="curve" smooth="yes"/>
      <point x="312" y="1222"/>
      <point x="379" y="1275"/>
      <point x="443" y="1275" type="curve" smooth="yes"/>
      <point x="574" y="1275"/>
      <point x="694" y="1204"/>
      <point x="754" y="1166" type="curve"/>
      <point x="814" y="1226"/>
      <point x="938" y="1279"/>
      <point x="1032" y="1279" type="curve" smooth="yes"/>
      <point x="1107" y="1279"/>
      <point x="1155" y="1196"/>
      <point x="1219" y="1196" type="curve" smooth="yes"/>
      <point x="1328" y="1196"/>
      <point x="1388" y="1230"/>
      <point x="1395" y="1372" type="curve"/>
      <point x="1373" y="1350"/>
      <point x="1328" y="1342"/>
      <point x="1313" y="1342" type="curve" smooth="yes"/>
      <point x="1212" y="1342"/>
      <point x="1155" y="1440"/>
      <point x="1024" y="1440" type="curve" smooth="yes"/>
      <point x="912" y="1440"/>
      <point x="825" y="1402"/>
      <point x="754" y="1335" type="curve"/>
      <point x="660" y="1406"/>
      <point x="548" y="1440"/>
      <point x="402" y="1440" type="curve" smooth="yes"/>
      <point x="248" y="1440"/>
      <point x="143" y="1286"/>
      <point x="143" y="1162" type="curve" smooth="yes"/>
      <point x="143" y="1088"/>
      <point x="211" y="1003"/>
      <point x="275" y="958" type="curve"/>
      <point x="271" y="950"/>
      <point x="270" y="942"/>
      <point x="270" y="934" type="curve" smooth="yes"/>
      <point x="270" y="0" type="line"/>
      <point x="495" y="0" type="line"/>
      <point x="552" y="169"/>
      <point x="597" y="244"/>
      <point x="683" y="244" type="curve" smooth="yes"/>
      <point x="750" y="244"/>
      <point x="795" y="300"/>
      <point x="795" y="337" type="curve" smooth="yes"/>
      <point x="795" y="371"/>
      <point x="773" y="435"/>
      <point x="683" y="435" type="curve" smooth="yes"/>
      <point x="615" y="435"/>
      <point x="544" y="379"/>
    </contour>
  </outline>
</glyph>
<glyph name="uni1783" format="2">
  <advance width="1915"/>
  <unicode hex="1783"/>
  <anchor x="1687" y="0" name="L"/>
  <anchor x="1687" y="1440" name="U"/>
  <outline>
    <contour>
      <point x="1735" y="180" type="curve"/>
      <point x="1735" y="971" type="line" smooth="yes"/>
      <point x="1735" y="1020"/>
      <point x="1660" y="1058"/>
      <point x="1581" y="1095" type="curve" smooth="yes"/>
      <point x="1544" y="1112"/>
      <point x="1484" y="1140"/>
      <point x="1484" y="1200" type="curve" smooth="yes"/>
      <point x="1484" y="1241"/>
      <point x="1525" y="1282"/>
      <point x="1559" y="1282" type="curve" smooth="yes"/>
      <point x="1615" y="1282"/>
      <point x="1660" y="1200"/>
      <point x="1735" y="1200" type="curve" smooth="yes"/>
      <point x="1844" y="1200"/>
      <point x="1900" y="1241"/>
      <point x="1907" y="1384" type="curve"/>
      <point x="1885" y="1357"/>
      <point x="1847" y="1346"/>
      <point x="1829" y="1346" type="curve" smooth="yes"/>
      <point x="1799" y="1346"/>
      <point x="1756" y="1370"/>
      <point x="1724" y="1391" type="curve" smooth="yes"/>
      <point x="1686" y="1416"/>
      <point x="1649" y="1440"/>
      <point x="1592" y="1440" type="curve" smooth="yes"/>
      <point x="1472" y="1440"/>
      <point x="1341" y="1297"/>
      <point x="1341" y="1177" type="curve" smooth="yes"/>
      <point x="1341" y="1110"/>
      <point x="1364" y="1046"/>
      <point x="1457" y="997" type="curve" smooth="yes"/>
      <point x="1484" y="982"/>
      <point x="1510" y="960"/>
      <point x="1510" y="915" type="curve" smooth="yes"/>
      <point x="1510" y="206" type="line" smooth="yes"/>
      <point x="1510" y="161"/>
      <point x="1397" y="131"/>
      <point x="1322" y="131" type="curve" smooth="yes"/>
      <point x="1247" y="131"/>
      <point x="1135" y="161"/>
      <point x="1135" y="206" type="curve" smooth="yes"/>
      <point x="1135" y="971" type="line" smooth="yes"/>
      <point x="1135" y="1020"/>
      <point x="1060" y="1058"/>
      <point x="981" y="1095" type="curve" smooth="yes"/>
      <point x="944" y="1112"/>
      <point x="884" y="1140"/>
      <point x="884" y="1200" type="curve" smooth="yes"/>
      <point x="884" y="1241"/>
      <point x="925" y="1282"/>
      <point x="959" y="1282" type="curve" smooth="yes"/>
      <point x="1015" y="1282"/>
      <point x="1060" y="1200"/>
      <point x="1135" y="1200" type="curve" smooth="yes"/>
      <point x="1244" y="1200"/>
      <point x="1300" y="1241"/>
      <point x="1307" y="1384" type="curve"/>
      <point x="1285" y="1357"/>
      <point x="1247" y="1346"/>
      <point x="1229" y="1346" type="curve" smooth="yes"/>
      <point x="1199" y="1346"/>
      <point x="1156" y="1370"/>
      <point x="1124" y="1391" type="curve" smooth="yes"/>
      <point x="1086" y="1416"/>
      <point x="1049" y="1440"/>
      <point x="992" y="1440" type="curve" smooth="yes"/>
      <point x="872" y="1440"/>
      <point x="741" y="1297"/>
      <point x="741" y="1177" type="curve" smooth="yes"/>
      <point x="741" y="1110"/>
      <point x="764" y="1046"/>
      <point x="857" y="997" type="curve" smooth="yes"/>
      <point x="884" y="982"/>
      <point x="910" y="960"/>
      <point x="910" y="915" type="curve" smooth="yes"/>
      <point x="910" y="206" type="line" smooth="yes"/>
      <point x="910" y="161"/>
      <point x="797" y="131"/>
      <point x="722" y="131" type="curve" smooth="yes"/>
      <point x="647" y="131"/>
      <point x="535" y="161"/>
      <point x="535" y="206" type="curve" smooth="yes"/>
      <point x="535" y="1342" type="line"/>
      <point x="509" y="1421"/>
      <point x="407" y="1440"/>
      <point x="340" y="1440" type="curve"/>
      <point x="175" y="1406"/>
      <point x="86" y="1279"/>
      <point x="86" y="1147" type="curve" smooth="yes"/>
      <point x="86" y="1065"/>
      <point x="146" y="1001"/>
      <point x="210" y="1001" type="curve" smooth="yes"/>
      <point x="228" y="1001"/>
      <point x="255" y="1015"/>
      <point x="255" y="1038" type="curve" smooth="yes"/>
      <point x="255" y="1055"/>
      <point x="251" y="1068"/>
      <point x="232" y="1087" type="curve" smooth="yes"/>
      <point x="213" y="1106"/>
      <point x="198" y="1125"/>
      <point x="198" y="1159" type="curve" smooth="yes"/>
      <point x="198" y="1196"/>
      <point x="254" y="1260"/>
      <point x="310" y="1271" type="curve"/>
      <point x="310" y="180" type="line" smooth="yes"/>
      <point x="310" y="75"/>
      <point x="535" y="0"/>
      <point x="722" y="0" type="curve" smooth="yes"/>
      <point x="835" y="0"/>
      <point x="947" y="22"/>
      <point x="1026" y="60" type="curve"/>
      <point x="1101" y="22"/>
      <point x="1214" y="0"/>
      <point x="1322" y="0" type="curve" smooth="yes"/>
      <point x="1510" y="0"/>
      <point x="1735" y="75"/>
    </contour>
  </outline>
</glyph>
<glyph name="uni1785" format="2">
  <advance width="1425"/>
  <unicode hex="1785"/>
  <anchor x="1200" y="0" name="L"/>
  <anchor x="1200" y="1440" name="U"/>
  <outline>
    <contour>
      <point x="495" y="1027" type="line"/>
      <point x="376" y="1027"/>
      <point x="320" y="1085"/>
      <point x="320" y="1129" type="curve" smooth="yes"/>
      <point x="320" y="1222"/>
      <point x="387" y="1275"/>
      <point x="451" y="1275" type="curve" smooth="yes"/>
      <point x="582" y="1275"/>
      <point x="702" y="1204"/>
      <point x="762" y="1166" type="curve"/>
      <point x="822" y="1226"/>
      <point x="946" y="1279"/>
      <point x="1040" y="1279" type="curve" smooth="yes"/>
      <point x="1115" y="1279"/>
      <point x="1163" y="1196"/>
      <point x="1227" y="1196" type="curve" smooth="yes"/>
      <point x="1336" y="1196"/>
      <point x="1396" y="1230"/>
      <point x="1403" y="1372" type="curve"/>
      <point x="1381" y="1350"/>
      <point x="1336" y="1342"/>
      <point x="1321" y="1342" type="curve" smooth="yes"/>
      <point x="1220" y="1342"/>
      <point x="1163" y="1440"/>
      <point x="1032" y="1440" type="curve" smooth="yes"/>
      <point x="920" y="1440"/>
      <point x="833" y="1402"/>
      <point x="762" y="1335" type="curve"/>
      <point x="668" y="1406"/>
      <point x="556" y="1440"/>
      <point x="410" y="1440" type="curve" smooth="yes"/>
      <point x="256" y="1440"/>
      <point x="151" y="1286"/>
      <point x="151" y="1162" type="curve" smooth="yes"/>
      <point x="151" y="1100"/>
      <point x="205" y="1026"/>
      <point x="270" y="988" type="curve"/>
      <point x="270" y="206" type="line" smooth="yes"/>
      <point x="270" y="101"/>
      <point x="552" y="0"/>
      <point x="758" y="0" type="curve" smooth="yes"/>
      <point x="964" y="0"/>
      <point x="1245" y="101"/>
      <point x="1245" y="206" type="curve" smooth="yes"/>
      <point x="1245" y="892" type="line"/>
      <point x="1219" y="971"/>
      <point x="1118" y="990"/>
      <point x="1050" y="990" type="curve"/>
      <point x="885" y="956"/>
      <point x="796" y="821"/>
      <point x="796" y="697" type="curve" smooth="yes"/>
      <point x="796" y="577"/>
      <point x="897" y="536"/>
      <point x="1020" y="521" type="curve"/>
      <point x="1020" y="217" type="line" smooth="yes"/>
      <point x="1020" y="169"/>
      <point x="852" y="131"/>
      <point x="758" y="131" type="curve" smooth="yes"/>
      <point x="664" y="131"/>
      <point x="495" y="169"/>
      <point x="495" y="217" type="curve" smooth="yes"/>
    </contour>
    <contour>
      <point x="908" y="709" type="curve" smooth="yes"/>
      <point x="908" y="746"/>
      <point x="964" y="810"/>
      <point x="1020" y="821" type="curve"/>
      <point x="1020" y="615" type="line"/>
      <point x="953" y="615"/>
      <point x="908" y="652"/>
    </contour>
  </outline>
</glyph>
<glyph name="uni1786" format="2">
  <advance width="1465"/>
  <unicode hex="1786"/>
  <anchor x="1237" y="0" name="L"/>
  <anchor x="1237" y="1440" name="U"/>
  <outline>
    <contour>
      <point x="948" y="709" type="curve" smooth="yes"/>
      <point x="948" y="746"/>
      <point x="1004" y="810"/>
      <point x="1060" y="821" type="curve"/>
      <point x="1060" y="615" type="line"/>
      <point x="992" y="615"/>
      <point x="948" y="652"/>
    </contour>
    <contour>
      <point x="216" y="255" type="curve" smooth="yes"/>
      <point x="216" y="292"/>
      <point x="265" y="338"/>
      <point x="310" y="338" type="curve"/>
      <point x="310" y="169" type="line"/>
      <point x="272" y="176"/>
      <point x="216" y="214"/>
    </contour>
    <contour>
      <point x="535" y="1027" type="line"/>
      <point x="416" y="1027"/>
      <point x="360" y="1085"/>
      <point x="360" y="1129" type="curve" smooth="yes"/>
      <point x="360" y="1222"/>
      <point x="427" y="1275"/>
      <point x="491" y="1275" type="curve" smooth="yes"/>
      <point x="622" y="1275"/>
      <point x="742" y="1204"/>
      <point x="802" y="1166" type="curve"/>
      <point x="862" y="1226"/>
      <point x="986" y="1279"/>
      <point x="1080" y="1279" type="curve" smooth="yes"/>
      <point x="1155" y="1279"/>
      <point x="1203" y="1196"/>
      <point x="1267" y="1196" type="curve" smooth="yes"/>
      <point x="1376" y="1196"/>
      <point x="1436" y="1230"/>
      <point x="1443" y="1372" type="curve"/>
      <point x="1421" y="1350"/>
      <point x="1376" y="1342"/>
      <point x="1361" y="1342" type="curve" smooth="yes"/>
      <point x="1260" y="1342"/>
      <point x="1203" y="1440"/>
      <point x="1072" y="1440" type="curve" smooth="yes"/>
      <point x="960" y="1440"/>
      <point x="873" y="1402"/>
      <point x="802" y="1335" type="curve"/>
      <point x="708" y="1406"/>
      <point x="596" y="1440"/>
      <point x="450" y="1440" type="curve" smooth="yes"/>
      <point x="296" y="1440"/>
      <point x="191" y="1286"/>
      <point x="191" y="1162" type="curve" smooth="yes"/>
      <point x="191" y="1100"/>
      <point x="245" y="1026"/>
      <point x="310" y="988" type="curve"/>
      <point x="310" y="469" type="line"/>
      <point x="186" y="454"/>
      <point x="85" y="371"/>
      <point x="85" y="240" type="curve" smooth="yes"/>
      <point x="85" y="146"/>
      <point x="175" y="34"/>
      <point x="340" y="0" type="curve"/>
      <point x="407" y="0"/>
      <point x="509" y="19"/>
      <point x="535" y="97" type="curve"/>
      <point x="535" y="300" type="line"/>
      <point x="640" y="289"/>
      <point x="752" y="0"/>
      <point x="1015" y="0" type="curve" smooth="yes"/>
      <point x="1202" y="0"/>
      <point x="1285" y="116"/>
      <point x="1285" y="217" type="curve" smooth="yes"/>
      <point x="1285" y="892" type="line"/>
      <point x="1259" y="971"/>
      <point x="1157" y="990"/>
      <point x="1090" y="990" type="curve"/>
      <point x="925" y="956"/>
      <point x="836" y="821"/>
      <point x="836" y="697" type="curve" smooth="yes"/>
      <point x="836" y="577"/>
      <point x="936" y="536"/>
      <point x="1060" y="521" type="curve"/>
      <point x="1060" y="251" type="line" smooth="yes"/>
      <point x="1060" y="206"/>
      <point x="1034" y="172"/>
      <point x="992" y="169" type="curve"/>
      <point x="850" y="169"/>
      <point x="730" y="457"/>
      <point x="535" y="469" type="curve"/>
    </contour>
  </outline>
</glyph>
<glyph name="uni1787" format="2">
  <advance width="1425"/>
  <unicode hex="1787"/>
  <anchor x="1200" y="0" name="L"/>
  <anchor x="1200" y="1665" name="U"/>
  <outline>
    <contour>
      <point x="1020" y="934" type="line"/>
      <point x="1020" y="270" type="line" smooth="yes"/>
      <point x="1020" y="225"/>
      <point x="1002" y="199"/>
      <point x="968" y="199" type="curve" smooth="yes"/>
      <point x="938" y="199"/>
      <point x="788" y="319"/>
      <point x="758" y="319" type="curve" smooth="yes"/>
      <point x="728" y="319"/>
      <point x="578" y="199"/>
      <point x="548" y="199" type="curve" smooth="yes"/>
      <point x="514" y="199"/>
      <point x="495" y="229"/>
      <point x="495" y="270" type="curve" smooth="yes"/>
      <point x="495" y="1027" type="line"/>
      <point x="490" y="1027" type="line"/>
      <point x="429" y="1031"/>
      <point x="308" y="1118"/>
      <point x="308" y="1174" type="curve" smooth="yes"/>
      <point x="308" y="1245"/>
      <point x="375" y="1271"/>
      <point x="439" y="1271" type="curve" smooth="yes"/>
      <point x="514" y="1271"/>
      <point x="589" y="1231"/>
      <point x="660" y="1185" type="curve" smooth="yes"/>
      <point x="733" y="1137"/>
      <point x="807" y="1095"/>
      <point x="927" y="1095" type="curve" smooth="yes"/>
      <point x="1039" y="1095"/>
      <point x="1234" y="1207"/>
      <point x="1234" y="1372" type="curve" smooth="yes"/>
      <point x="1234" y="1470"/>
      <point x="1216" y="1519"/>
      <point x="1155" y="1601" type="curve" smooth="yes"/>
      <point x="1093" y="1685"/>
      <point x="1017" y="1740"/>
      <point x="915" y="1740" type="curve" smooth="yes"/>
      <point x="818" y="1740"/>
      <point x="780" y="1699"/>
      <point x="780" y="1646" type="curve" smooth="yes"/>
      <point x="780" y="1582"/>
      <point x="863" y="1540"/>
      <point x="934" y="1511" type="curve" smooth="yes"/>
      <point x="958" y="1501"/>
      <point x="979" y="1489"/>
      <point x="994" y="1477" type="curve" smooth="yes"/>
      <point x="1035" y="1444"/>
      <point x="1050" y="1414"/>
      <point x="1050" y="1372" type="curve" smooth="yes"/>
      <point x="1050" y="1327"/>
      <point x="998" y="1264"/>
      <point x="897" y="1264" type="curve" smooth="yes"/>
      <point x="825" y="1264"/>
      <point x="756" y="1307"/>
      <point x="687" y="1354" type="curve" smooth="yes"/>
      <point x="615" y="1403"/>
      <point x="533" y="1440"/>
      <point x="402" y="1440" type="curve" smooth="yes"/>
      <point x="263" y="1440"/>
      <point x="139" y="1327"/>
      <point x="139" y="1196" type="curve" smooth="yes"/>
      <point x="139" y="1121"/>
      <point x="207" y="1061"/>
      <point x="270" y="1027" type="curve"/>
      <point x="270" y="82" type="line" smooth="yes"/>
      <point x="270" y="41"/>
      <point x="312" y="0"/>
      <point x="353" y="0" type="curve" smooth="yes"/>
      <point x="477" y="0" type="line" smooth="yes"/>
      <point x="507" y="0"/>
      <point x="574" y="49"/>
      <point x="619" y="82" type="curve" smooth="yes"/>
      <point x="664" y="116"/>
      <point x="735" y="169"/>
      <point x="758" y="169" type="curve" smooth="yes"/>
      <point x="780" y="169"/>
      <point x="852" y="116"/>
      <point x="897" y="82" type="curve" smooth="yes"/>
      <point x="942" y="49"/>
      <point x="1009" y="0"/>
      <point x="1039" y="0" type="curve" smooth="yes"/>
      <point x="1163" y="0" type="line" smooth="yes"/>
      <point x="1204" y="0"/>
      <point x="1245" y="41"/>
      <point x="1245" y="82" type="curve" smooth="yes"/>
      <point x="1245" y="934" type="line"/>
    </contour>
  </outline>
</glyph>
<glyph name="uni1788" format="2">
  <advance width="2475"/>
  <unicode hex="1788"/>
  <anchor x="2250" y="0" name="L"/>
  <anchor x="2250" y="1440" name="U"/>
  <outline>
    <contour>
      <point x="2295" y="180" type="curve"/>
      <point x="2295" y="971" type="line" smooth="yes"/>
      <point x="2295" y="1020"/>
      <point x="2220" y="1058"/>
      <point x="2141" y="1095" type="curve" smooth="yes"/>
      <point x="2104" y="1112"/>
      <point x="2044" y="1140"/>
      <point x="2044" y="1200" type="curve" smooth="yes"/>
      <point x="2044" y="1241"/>
      <point x="2085" y="1282"/>
      <point x="2119" y="1282" type="curve" smooth="yes"/>
      <point x="2175" y="1282"/>
      <point x="2220" y="1200"/>
      <point x="2295" y="1200" type="curve" smooth="yes"/>
      <point x="2404" y="1200"/>
      <point x="2460" y="1241"/>
      <point x="2467" y="1384" type="curve"/>
      <point x="2445" y="1357"/>
      <point x="2407" y="1346"/>
      <point x="2389" y="1346" type="curve" smooth="yes"/>
      <point x="2359" y="1346"/>
      <point x="2316" y="1370"/>
      <point x="2284" y="1391" type="curve" smooth="yes"/>
      <point x="2246" y="1416"/>
      <point x="2209" y="1440"/>
      <point x="2152" y="1440" type="curve" smooth="yes"/>
      <point x="2032" y="1440"/>
      <point x="1901" y="1297"/>
      <point x="1901" y="1177" type="curve" smooth="yes"/>
      <point x="1901" y="1110"/>
      <point x="1924" y="1046"/>
      <point x="2017" y="997" type="curve" smooth="yes"/>
      <point x="2044" y="982"/>
      <point x="2070" y="960"/>
      <point x="2070" y="915" type="curve" smooth="yes"/>
      <point x="2070" y="206" type="line" smooth="yes"/>
      <point x="2070" y="161"/>
      <point x="1958" y="131"/>
      <point x="1883" y="131" type="curve" smooth="yes"/>
      <point x="1808" y="131"/>
      <point x="1695" y="161"/>
      <point x="1695" y="206" type="curve"/>
      <point x="1695" y="971" type="line" smooth="yes"/>
      <point x="1695" y="1020"/>
      <point x="1620" y="1058"/>
      <point x="1541" y="1095" type="curve" smooth="yes"/>
      <point x="1504" y="1112"/>
      <point x="1444" y="1140"/>
      <point x="1444" y="1200" type="curve" smooth="yes"/>
      <point x="1444" y="1241"/>
      <point x="1485" y="1282"/>
      <point x="1519" y="1282" type="curve" smooth="yes"/>
      <point x="1575" y="1282"/>
      <point x="1620" y="1200"/>
      <point x="1695" y="1200" type="curve" smooth="yes"/>
      <point x="1804" y="1200"/>
      <point x="1860" y="1241"/>
      <point x="1867" y="1384" type="curve"/>
      <point x="1845" y="1357"/>
      <point x="1807" y="1346"/>
      <point x="1789" y="1346" type="curve" smooth="yes"/>
      <point x="1759" y="1346"/>
      <point x="1716" y="1370"/>
      <point x="1684" y="1391" type="curve" smooth="yes"/>
      <point x="1646" y="1416"/>
      <point x="1609" y="1440"/>
      <point x="1552" y="1440" type="curve" smooth="yes"/>
      <point x="1432" y="1440"/>
      <point x="1301" y="1297"/>
      <point x="1301" y="1177" type="curve" smooth="yes"/>
      <point x="1301" y="1110"/>
      <point x="1324" y="1046"/>
      <point x="1417" y="997" type="curve" smooth="yes"/>
      <point x="1444" y="982"/>
      <point x="1470" y="960"/>
      <point x="1470" y="915" type="curve" smooth="yes"/>
      <point x="1470" y="206" type="line" smooth="yes"/>
      <point x="1470" y="161"/>
      <point x="1358" y="131"/>
      <point x="1283" y="131" type="curve" smooth="yes"/>
      <point x="1208" y="131"/>
      <point x="1095" y="161"/>
      <point x="1095" y="206" type="curve" smooth="yes"/>
      <point x="1095" y="1252" type="line" smooth="yes"/>
      <point x="1095" y="1346"/>
      <point x="870" y="1440"/>
      <point x="683" y="1440" type="curve" smooth="yes"/>
      <point x="495" y="1440"/>
      <point x="270" y="1346"/>
      <point x="270" y="1252" type="curve" smooth="yes"/>
      <point x="270" y="97" type="line"/>
      <point x="297" y="19"/>
      <point x="398" y="0"/>
      <point x="465" y="0" type="curve"/>
      <point x="630" y="34"/>
      <point x="719" y="169"/>
      <point x="719" y="292" type="curve" smooth="yes"/>
      <point x="719" y="412"/>
      <point x="619" y="454"/>
      <point x="495" y="469" type="curve"/>
      <point x="495" y="1234" type="line" smooth="yes"/>
      <point x="495" y="1279"/>
      <point x="608" y="1309"/>
      <point x="683" y="1309" type="curve" smooth="yes"/>
      <point x="758" y="1309"/>
      <point x="870" y="1279"/>
      <point x="870" y="1234" type="curve" smooth="yes"/>
      <point x="870" y="180" type="line" smooth="yes"/>
      <point x="870" y="75"/>
      <point x="1095" y="0"/>
      <point x="1283" y="0" type="curve" smooth="yes"/>
      <point x="1386" y="0"/>
      <point x="1502" y="22"/>
      <point x="1584" y="61" type="curve"/>
      <point x="1583" y="60" type="line"/>
      <point x="1662" y="22"/>
      <point x="1774" y="0"/>
      <point x="1883" y="0" type="curve" smooth="yes"/>
      <point x="2070" y="0"/>
      <point x="2295" y="75"/>
    </contour>
    <contour>
      <point x="607" y="281" type="curve" smooth="yes"/>
      <point x="607" y="244"/>
      <point x="552" y="180"/>
      <point x="495" y="169" type="curve"/>
      <point x="495" y="375" type="line"/>
      <point x="563" y="375"/>
      <point x="607" y="337"/>
    </contour>
  </outline>
</glyph>
<glyph name="uni178A" format="2">
  <advance width="1425"/>
  <unicode hex="178A"/>
  <anchor x="1200" y="0" name="L"/>
  <anchor x="1200" y="1665" name="U"/>
  <outline>
    <contour>
      <point x="270" y="82" type="line"/>
      <point x="270" y="41"/>
      <point x="312" y="0"/>
      <point x="353" y="0" type="curve"/>
      <point x="477" y="0" type="line"/>
      <point x="507" y="0"/>
      <point x="574" y="49"/>
      <point x="619" y="82" type="curve"/>
      <point x="664" y="116"/>
      <point x="735" y="169"/>
      <point x="758" y="169" type="curve" smooth="yes"/>
      <point x="780" y="169"/>
      <point x="852" y="116"/>
      <point x="897" y="82" type="curve"/>
      <point x="942" y="49"/>
      <point x="1009" y="0"/>
      <point x="1039" y="0" type="curve" smooth="yes"/>
      <point x="1163" y="0" type="line"/>
      <point x="1204" y="0"/>
      <point x="1245" y="41"/>
      <point x="1245" y="82" type="curve"/>
      <point x="1245" y="934" type="line"/>
      <point x="1020" y="934" type="line"/>
      <point x="1020" y="270" type="line"/>
      <point x="1020" y="225"/>
      <point x="1002" y="199"/>
      <point x="968" y="199" type="curve"/>
      <point x="938" y="199"/>
      <point x="788" y="319"/>
      <point x="758" y="319" type="curve" smooth="yes"/>
      <point x="728" y="319"/>
      <point x="578" y="199"/>
      <point x="548" y="199" type="curve" smooth="yes"/>
      <point x="514" y="199"/>
      <point x="495" y="229"/>
      <point x="495" y="270" type="curve" smooth="yes"/>
      <point x="495" y="934" type="line"/>
      <point x="270" y="934" type="line"/>
    </contour>
    <contour>
      <point x="270" y="1230" type="curve" smooth="yes"/>
      <point x="270" y="1027"/>
      <point x="477" y="934"/>
      <point x="679" y="934" type="curve"/>
      <point x="1002" y="934"/>
      <point x="1245" y="1084"/>
      <point x="1245" y="1372" type="curve"/>
      <point x="1245" y="1470"/>
      <point x="1220" y="1520"/>
      <point x="1159" y="1601" type="curve" smooth="yes"/>
      <point x="1096" y="1685"/>
      <point x="1020" y="1740"/>
      <point x="919" y="1740" type="curve"/>
      <point x="822" y="1740"/>
      <point x="784" y="1699"/>
      <point x="784" y="1646" type="curve"/>
      <point x="784" y="1579"/>
      <point x="852" y="1549"/>
      <point x="923" y="1520" type="curve" smooth="yes"/>
      <point x="945" y="1511"/>
      <point x="979" y="1496"/>
      <point x="987" y="1489" type="curve"/>
      <point x="1043" y="1444"/>
      <point x="1057" y="1406"/>
      <point x="1057" y="1372" type="curve" smooth="yes"/>
      <point x="1057" y="1177"/>
      <point x="889" y="1065"/>
      <point x="698" y="1065" type="curve"/>
      <point x="574" y="1065"/>
      <point x="458" y="1129"/>
      <point x="458" y="1207" type="curve"/>
      <point x="458" y="1230"/>
      <point x="462" y="1252"/>
      <point x="469" y="1267" type="curve"/>
      <point x="495" y="1256"/>
      <point x="518" y="1249"/>
      <point x="555" y="1249" type="curve"/>
      <point x="630" y="1249"/>
      <point x="690" y="1294"/>
      <point x="690" y="1354" type="curve"/>
      <point x="690" y="1440"/>
      <point x="600" y="1496"/>
      <point x="510" y="1496" type="curve"/>
      <point x="465" y="1496"/>
      <point x="424" y="1484"/>
      <point x="394" y="1462" type="curve" smooth="yes"/>
      <point x="305" y="1397"/>
      <point x="270" y="1312"/>
    </contour>
  </outline>
</glyph>
<glyph name="uni178C" format="2">
  <advance width="1315"/>
  <unicode hex="178C"/>
  <anchor x="1125" y="0" name="L"/>
  <anchor x="1125" y="1440" name="U"/>
  <outline>
    <contour>
      <point x="190" y="1129" type="curve" smooth="yes"/>
      <point x="190" y="1005"/>
      <point x="250" y="915"/>
      <point x="329" y="866" type="curve"/>
      <point x="363" y="844"/>
      <point x="408" y="840"/>
      <point x="449" y="840" type="curve"/>
      <point x="539" y="840"/>
      <point x="633" y="896"/>
      <point x="633" y="982" type="curve"/>
      <point x="633" y="1042"/>
      <point x="573" y="1087"/>
      <point x="494" y="1087" type="curve"/>
      <point x="464" y="1087"/>
      <point x="434" y="1084"/>
      <point x="412" y="1072" type="curve"/>
      <point x="403" y="1095"/>
      <point x="396" y="1117"/>
      <point x="396" y="1140" type="curve"/>
      <point x="396" y="1181"/>
      <point x="419" y="1271"/>
      <point x="453" y="1271" type="curve"/>
      <point x="490" y="1245"/>
      <point x="520" y="1219"/>
      <point x="550" y="1196" type="curve"/>
      <point x="595" y="1166"/>
      <point x="648" y="1133"/>
      <point x="678" y="1133" type="curve" smooth="yes"/>
      <point x="708" y="1133"/>
      <point x="760" y="1166"/>
      <point x="805" y="1196" type="curve"/>
      <point x="828" y="1211"/>
      <point x="865" y="1245"/>
      <point x="903" y="1271" type="curve"/>
      <point x="937" y="1271"/>
      <point x="959" y="1189"/>
      <point x="959" y="1069" type="curve"/>
      <point x="959" y="881"/>
      <point x="820" y="761"/>
      <point x="708" y="686" type="curve"/>
      <point x="614" y="622"/>
      <point x="265" y="409"/>
      <point x="205" y="349" type="curve" smooth="yes"/>
      <point x="190" y="334"/>
      <point x="190" y="307"/>
      <point x="190" y="304" type="curve"/>
      <point x="190" y="184"/>
      <point x="273" y="0"/>
      <point x="494" y="0" type="curve"/>
      <point x="625" y="0"/>
      <point x="828" y="105"/>
      <point x="940" y="169" type="curve"/>
      <point x="940" y="79" type="line"/>
      <point x="940" y="52"/>
      <point x="925" y="19"/>
      <point x="903" y="0" type="curve"/>
      <point x="1090" y="0" type="line"/>
      <point x="1128" y="0"/>
      <point x="1165" y="52"/>
      <point x="1165" y="79" type="curve"/>
      <point x="1165" y="529" type="line"/>
      <point x="940" y="529" type="line"/>
      <point x="940" y="349" type="line"/>
      <point x="940" y="315"/>
      <point x="622" y="146"/>
      <point x="532" y="146" type="curve"/>
      <point x="453" y="146"/>
      <point x="434" y="217"/>
      <point x="434" y="259" type="curve"/>
      <point x="434" y="262"/>
      <point x="434" y="270"/>
      <point x="445" y="281" type="curve"/>
      <point x="509" y="330"/>
      <point x="768" y="499"/>
      <point x="839" y="547" type="curve"/>
      <point x="978" y="641"/>
      <point x="1165" y="825"/>
      <point x="1165" y="1084" type="curve" smooth="yes"/>
      <point x="1165" y="1331"/>
      <point x="1075" y="1440"/>
      <point x="922" y="1440" type="curve"/>
      <point x="873" y="1440"/>
      <point x="839" y="1421"/>
      <point x="790" y="1384" type="curve"/>
      <point x="760" y="1361"/>
      <point x="715" y="1320"/>
      <point x="678" y="1294" type="curve"/>
      <point x="640" y="1320"/>
      <point x="595" y="1361"/>
      <point x="565" y="1384" type="curve"/>
      <point x="517" y="1421"/>
      <point x="483" y="1440"/>
      <point x="434" y="1440" type="curve" smooth="yes"/>
      <point x="292" y="1440"/>
      <point x="190" y="1290"/>
    </contour>
  </outline>
</glyph>
<glyph name="uni178D" format="2">
  <advance width="2025"/>
  <unicode hex="178D"/>
  <anchor x="1800" y="0" name="L"/>
  <anchor x="1800" y="1440" name="U"/>
  <outline>
    <contour>
      <point x="607" y="281" type="curve" smooth="yes"/>
      <point x="607" y="244"/>
      <point x="552" y="180"/>
      <point x="495" y="169" type="curve"/>
      <point x="495" y="375" type="line"/>
      <point x="563" y="375"/>
      <point x="607" y="337"/>
    </contour>
    <contour>
      <point x="926" y="255" type="curve" smooth="yes"/>
      <point x="926" y="292"/>
      <point x="975" y="338"/>
      <point x="1020" y="338" type="curve"/>
      <point x="1020" y="169" type="line"/>
      <point x="983" y="176"/>
      <point x="926" y="214"/>
    </contour>
    <contour>
      <point x="1845" y="971" type="line"/>
      <point x="1845" y="1020"/>
      <point x="1770" y="1058"/>
      <point x="1691" y="1095" type="curve" smooth="yes"/>
      <point x="1654" y="1112"/>
      <point x="1594" y="1140"/>
      <point x="1594" y="1200" type="curve" smooth="yes"/>
      <point x="1594" y="1241"/>
      <point x="1635" y="1282"/>
      <point x="1669" y="1282" type="curve" smooth="yes"/>
      <point x="1725" y="1282"/>
      <point x="1770" y="1200"/>
      <point x="1845" y="1200" type="curve" smooth="yes"/>
      <point x="1954" y="1200"/>
      <point x="2010" y="1241"/>
      <point x="2017" y="1384" type="curve"/>
      <point x="1995" y="1357"/>
      <point x="1957" y="1346"/>
      <point x="1939" y="1346" type="curve" smooth="yes"/>
      <point x="1909" y="1346"/>
      <point x="1866" y="1370"/>
      <point x="1834" y="1391" type="curve" smooth="yes"/>
      <point x="1796" y="1416"/>
      <point x="1759" y="1440"/>
      <point x="1702" y="1440" type="curve" smooth="yes"/>
      <point x="1582" y="1440"/>
      <point x="1451" y="1297"/>
      <point x="1451" y="1177" type="curve" smooth="yes"/>
      <point x="1451" y="1110"/>
      <point x="1474" y="1046"/>
      <point x="1567" y="997" type="curve" smooth="yes"/>
      <point x="1594" y="982"/>
      <point x="1620" y="960"/>
      <point x="1620" y="915" type="curve" smooth="yes"/>
      <point x="1620" y="236" type="line" smooth="yes"/>
      <point x="1620" y="187"/>
      <point x="1613" y="154"/>
      <point x="1579" y="154" type="curve" smooth="yes"/>
      <point x="1538" y="154"/>
      <point x="1489" y="229"/>
      <point x="1444" y="300" type="curve" smooth="yes"/>
      <point x="1399" y="371"/>
      <point x="1335" y="439"/>
      <point x="1245" y="461" type="curve"/>
      <point x="1245" y="1185" type="line" smooth="yes"/>
      <point x="1245" y="1245"/>
      <point x="1092" y="1440"/>
      <point x="987" y="1440" type="curve" smooth="yes"/>
      <point x="930" y="1440"/>
      <point x="874" y="1395"/>
      <point x="829" y="1350" type="curve"/>
      <point x="799" y="1316"/>
      <point x="765" y="1290"/>
      <point x="758" y="1290" type="curve" smooth="yes"/>
      <point x="750" y="1290"/>
      <point x="717" y="1316"/>
      <point x="687" y="1350" type="curve"/>
      <point x="642" y="1395"/>
      <point x="585" y="1440"/>
      <point x="529" y="1440" type="curve" smooth="yes"/>
      <point x="424" y="1440"/>
      <point x="270" y="1245"/>
      <point x="270" y="1185" type="curve" smooth="yes"/>
      <point x="270" y="97" type="line"/>
      <point x="297" y="19"/>
      <point x="398" y="0"/>
      <point x="465" y="0" type="curve"/>
      <point x="630" y="34"/>
      <point x="719" y="169"/>
      <point x="719" y="292" type="curve" smooth="yes"/>
      <point x="719" y="412"/>
      <point x="619" y="454"/>
      <point x="495" y="469" type="curve"/>
      <point x="495" y="1147" type="line" smooth="yes"/>
      <point x="495" y="1189"/>
      <point x="533" y="1252"/>
      <point x="555" y="1252" type="curve" smooth="yes"/>
      <point x="563" y="1252"/>
      <point x="593" y="1226"/>
      <point x="623" y="1196" type="curve" smooth="yes"/>
      <point x="664" y="1155"/>
      <point x="717" y="1114"/>
      <point x="758" y="1114" type="curve" smooth="yes"/>
      <point x="799" y="1114"/>
      <point x="852" y="1155"/>
      <point x="893" y="1196" type="curve" smooth="yes"/>
      <point x="923" y="1226"/>
      <point x="953" y="1252"/>
      <point x="960" y="1252" type="curve" smooth="yes"/>
      <point x="983" y="1252"/>
      <point x="1020" y="1189"/>
      <point x="1020" y="1147" type="curve" smooth="yes"/>
      <point x="1020" y="469" type="line"/>
      <point x="897" y="454"/>
      <point x="795" y="371"/>
      <point x="795" y="240" type="curve" smooth="yes"/>
      <point x="795" y="146"/>
      <point x="885" y="34"/>
      <point x="1050" y="0" type="curve"/>
      <point x="1118" y="0"/>
      <point x="1219" y="19"/>
      <point x="1245" y="97" type="curve"/>
      <point x="1245" y="289" type="line"/>
      <point x="1283" y="277"/>
      <point x="1339" y="180"/>
      <point x="1362" y="146" type="curve" smooth="yes"/>
      <point x="1422" y="56"/>
      <point x="1485" y="0"/>
      <point x="1613" y="0" type="curve" smooth="yes"/>
      <point x="1808" y="0"/>
      <point x="1845" y="94"/>
      <point x="1845" y="199" type="curve" smooth="yes"/>
    </contour>
  </outline>
</glyph>
<glyph name="uni178E" format="2">
  <advance width="2475"/>
  <unicode hex="178E"/>
  <anchor x="1275" y="0" name="M"/>
  <anchor x="2250" y="1440" name="U"/>
  <outline>
    <contour>
      <point x="270" y="1252" type="curve"/>
      <point x="270" y="97" type="line"/>
      <point x="297" y="19"/>
      <point x="398" y="0"/>
      <point x="465" y="0" type="curve"/>
      <point x="630" y="34"/>
      <point x="719" y="169"/>
      <point x="719" y="292" type="curve" smooth="yes"/>
      <point x="719" y="412"/>
      <point x="619" y="454"/>
      <point x="495" y="469" type="curve"/>
      <point x="495" y="1234" type="line" smooth="yes"/>
      <point x="495" y="1279"/>
      <point x="608" y="1309"/>
      <point x="683" y="1309" type="curve" smooth="yes"/>
      <point x="758" y="1309"/>
      <point x="870" y="1279"/>
      <point x="870" y="1234" type="curve" smooth="yes"/>
      <point x="870" y="79" type="line" smooth="yes"/>
      <point x="870" y="37"/>
      <point x="923" y="0"/>
      <point x="975" y="0" type="curve" smooth="yes"/>
      <point x="1058" y="0" type="line" smooth="yes"/>
      <point x="1148" y="0"/>
      <point x="1176" y="29"/>
      <point x="1215" y="94" type="curve" smooth="yes"/>
      <point x="1233" y="124"/>
      <point x="1275" y="187"/>
      <point x="1283" y="187" type="curve" smooth="yes"/>
      <point x="1291" y="187"/>
      <point x="1325" y="124"/>
      <point x="1343" y="94" type="curve" smooth="yes"/>
      <point x="1382" y="29"/>
      <point x="1414" y="0"/>
      <point x="1508" y="0" type="curve" smooth="yes"/>
      <point x="1590" y="0" type="line" smooth="yes"/>
      <point x="1643" y="0"/>
      <point x="1695" y="37"/>
      <point x="1695" y="79" type="curve" smooth="yes"/>
      <point x="1695" y="1234" type="line" smooth="yes"/>
      <point x="1695" y="1279"/>
      <point x="1808" y="1309"/>
      <point x="1883" y="1309" type="curve" smooth="yes"/>
      <point x="1958" y="1309"/>
      <point x="2070" y="1279"/>
      <point x="2070" y="1234" type="curve" smooth="yes"/>
      <point x="2070" y="0" type="line"/>
      <point x="2295" y="0" type="line"/>
      <point x="2295" y="1252" type="line" smooth="yes"/>
      <point x="2295" y="1346"/>
      <point x="2070" y="1440"/>
      <point x="1883" y="1440" type="curve" smooth="yes"/>
      <point x="1695" y="1440"/>
      <point x="1470" y="1346"/>
      <point x="1470" y="1252" type="curve" smooth="yes"/>
      <point x="1470" y="221" type="line" smooth="yes"/>
      <point x="1470" y="210"/>
      <point x="1467" y="187"/>
      <point x="1455" y="187" type="curve" smooth="yes"/>
      <point x="1440" y="187"/>
      <point x="1402" y="245"/>
      <point x="1380" y="281" type="curve" smooth="yes"/>
      <point x="1349" y="332"/>
      <point x="1321" y="374"/>
      <point x="1283" y="374" type="curve" smooth="yes"/>
      <point x="1245" y="374"/>
      <point x="1216" y="332"/>
      <point x="1185" y="281" type="curve" smooth="yes"/>
      <point x="1163" y="245"/>
      <point x="1125" y="187"/>
      <point x="1110" y="187" type="curve" smooth="yes"/>
      <point x="1099" y="187"/>
      <point x="1095" y="210"/>
      <point x="1095" y="221" type="curve" smooth="yes"/>
      <point x="1095" y="1252" type="line" smooth="yes"/>
      <point x="1095" y="1346"/>
      <point x="870" y="1440"/>
      <point x="683" y="1440" type="curve" smooth="yes"/>
      <point x="495" y="1440"/>
      <point x="270" y="1346"/>
    </contour>
    <contour>
      <point x="607" y="281" type="curve" smooth="yes"/>
      <point x="607" y="244"/>
      <point x="552" y="180"/>
      <point x="495" y="169" type="curve"/>
      <point x="495" y="375" type="line"/>
      <point x="563" y="375"/>
      <point x="607" y="337"/>
    </contour>
  </outline>
  <guideline angle="0" x="0" y="1252"/>
</glyph>
<glyph name="uni178F" format="2">
  <advance width="1425"/>
  <unicode hex="178F"/>
  <anchor x="1200" y="0" name="L"/>
  <anchor x="1200" y="1440" name="U"/>
  <outline>
    <contour>
      <point x="270" y="97" type="line"/>
      <point x="297" y="19"/>
      <point x="398" y="0"/>
      <point x="465" y="0" type="curve"/>
      <point x="630" y="34"/>
      <point x="719" y="169"/>
      <point x="719" y="292" type="curve" smooth="yes"/>
      <point x="719" y="412"/>
      <point x="619" y="454"/>
      <point x="495" y="469" type="curve"/>
      <point x="495" y="915" type="line" smooth="yes"/>
      <point x="495" y="964"/>
      <point x="664" y="1009"/>
      <point x="758" y="1009" type="curve" smooth="yes"/>
      <point x="852" y="1009"/>
      <point x="1020" y="964"/>
      <point x="1020" y="915" type="curve" smooth="yes"/>
      <point x="1020" y="0" type="line"/>
      <point x="1245" y="0" type="line"/>
      <point x="1245" y="934" type="line" smooth="yes"/>
      <point x="1245" y="1039"/>
      <point x="964" y="1140"/>
      <point x="758" y="1140" type="curve" smooth="yes"/>
      <point x="624" y="1140"/>
      <point x="458" y="1097"/>
      <point x="358" y="1039" type="curve"/>
      <point x="332" y="1062"/>
      <point x="312" y="1098"/>
      <point x="312" y="1129" type="curve" smooth="yes"/>
      <point x="312" y="1222"/>
      <point x="379" y="1275"/>
      <point x="443" y="1275" type="curve" smooth="yes"/>
      <point x="574" y="1275"/>
      <point x="694" y="1204"/>
      <point x="754" y="1166" type="curve"/>
      <point x="814" y="1226"/>
      <point x="938" y="1279"/>
      <point x="1032" y="1279" type="curve" smooth="yes"/>
      <point x="1107" y="1279"/>
      <point x="1155" y="1196"/>
      <point x="1219" y="1196" type="curve" smooth="yes"/>
      <point x="1328" y="1196"/>
      <point x="1388" y="1230"/>
      <point x="1395" y="1372" type="curve"/>
      <point x="1373" y="1350"/>
      <point x="1328" y="1342"/>
      <point x="1313" y="1342" type="curve" smooth="yes"/>
      <point x="1212" y="1342"/>
      <point x="1155" y="1440"/>
      <point x="1024" y="1440" type="curve" smooth="yes"/>
      <point x="912" y="1440"/>
      <point x="825" y="1402"/>
      <point x="754" y="1335" type="curve"/>
      <point x="660" y="1406"/>
      <point x="548" y="1440"/>
      <point x="402" y="1440" type="curve" smooth="yes"/>
      <point x="248" y="1440"/>
      <point x="143" y="1286"/>
      <point x="143" y="1162" type="curve" smooth="yes"/>
      <point x="143" y="1088"/>
      <point x="211" y="1003"/>
      <point x="275" y="958" type="curve"/>
      <point x="271" y="950"/>
      <point x="270" y="942"/>
      <point x="270" y="934" type="curve" smooth="yes"/>
    </contour>
    <contour>
      <point x="607" y="281" type="curve" smooth="yes"/>
      <point x="607" y="244"/>
      <point x="552" y="180"/>
      <point x="495" y="169" type="curve"/>
      <point x="495" y="375" type="line"/>
      <point x="563" y="375"/>
      <point x="607" y="337"/>
    </contour>
  </outline>
</glyph>
<glyph name="uni1790" format="2">
  <advance width="1425"/>
  <unicode hex="1790"/>
  <anchor x="1200" y="0" name="L"/>
  <anchor x="1200" y="1665" name="U"/>
  <outline>
    <contour>
      <point x="908" y="709" type="curve" smooth="yes"/>
      <point x="908" y="746"/>
      <point x="964" y="810"/>
      <point x="1020" y="821" type="curve"/>
      <point x="1020" y="615" type="line"/>
      <point x="953" y="615"/>
      <point x="908" y="652"/>
    </contour>
    <contour>
      <point x="270" y="206" type="line"/>
      <point x="270" y="101"/>
      <point x="552" y="0"/>
      <point x="758" y="0" type="curve" smooth="yes"/>
      <point x="964" y="0"/>
      <point x="1245" y="101"/>
      <point x="1245" y="206" type="curve" smooth="yes"/>
      <point x="1245" y="892" type="line"/>
      <point x="1219" y="971"/>
      <point x="1118" y="990"/>
      <point x="1050" y="990" type="curve"/>
      <point x="885" y="956"/>
      <point x="796" y="821"/>
      <point x="796" y="697" type="curve"/>
      <point x="796" y="577"/>
      <point x="897" y="536"/>
      <point x="1020" y="521" type="curve"/>
      <point x="1020" y="217" type="line"/>
      <point x="1020" y="169"/>
      <point x="852" y="131"/>
      <point x="758" y="131" type="curve" smooth="yes"/>
      <point x="664" y="131"/>
      <point x="495" y="169"/>
      <point x="495" y="217" type="curve" smooth="yes"/>
      <point x="495" y="1027" type="line"/>
      <point x="490" y="1027" type="line"/>
      <point x="429" y="1031"/>
      <point x="308" y="1118"/>
      <point x="308" y="1174" type="curve" smooth="yes"/>
      <point x="308" y="1245"/>
      <point x="375" y="1271"/>
      <point x="439" y="1271" type="curve" smooth="yes"/>
      <point x="514" y="1271"/>
      <point x="589" y="1231"/>
      <point x="660" y="1185" type="curve" smooth="yes"/>
      <point x="733" y="1137"/>
      <point x="807" y="1095"/>
      <point x="927" y="1095" type="curve" smooth="yes"/>
      <point x="1039" y="1095"/>
      <point x="1234" y="1207"/>
      <point x="1234" y="1372" type="curve" smooth="yes"/>
      <point x="1234" y="1470"/>
      <point x="1216" y="1519"/>
      <point x="1155" y="1601" type="curve" smooth="yes"/>
      <point x="1093" y="1685"/>
      <point x="1017" y="1740"/>
      <point x="915" y="1740" type="curve" smooth="yes"/>
      <point x="818" y="1740"/>
      <point x="780" y="1699"/>
      <point x="780" y="1646" type="curve" smooth="yes"/>
      <point x="780" y="1582"/>
      <point x="863" y="1540"/>
      <point x="934" y="1511" type="curve" smooth="yes"/>
      <point x="958" y="1501"/>
      <point x="979" y="1489"/>
      <point x="994" y="1477" type="curve" smooth="yes"/>
      <point x="1035" y="1444"/>
      <point x="1050" y="1414"/>
      <point x="1050" y="1372" type="curve" smooth="yes"/>
      <point x="1050" y="1327"/>
      <point x="998" y="1264"/>
      <point x="897" y="1264" type="curve" smooth="yes"/>
      <point x="825" y="1264"/>
      <point x="756" y="1307"/>
      <point x="687" y="1354" type="curve" smooth="yes"/>
      <point x="615" y="1403"/>
      <point x="533" y="1440"/>
      <point x="402" y="1440" type="curve" smooth="yes"/>
      <point x="263" y="1440"/>
      <point x="139" y="1327"/>
      <point x="139" y="1196" type="curve" smooth="yes"/>
      <point x="139" y="1121"/>
      <point x="207" y="1061"/>
      <point x="270" y="1027" type="curve"/>
    </contour>
  </outline>
</glyph>
<glyph name="uni1791" format="2">
  <advance width="1315"/>
  <unicode hex="1791"/>
  <anchor x="1125" y="0" name="L"/>
  <anchor x="1125" y="1440" name="U"/>
  <outline>
    <contour>
      <point x="715" y="206" type="line"/>
      <point x="715" y="161"/>
      <point x="685" y="131"/>
      <point x="640" y="131" type="curve"/>
      <point x="595" y="131"/>
      <point x="565" y="161"/>
      <point x="565" y="206" type="curve"/>
      <point x="565" y="439" type="line"/>
      <point x="359" y="439" type="line"/>
      <point x="359" y="199" type="line"/>
      <point x="359" y="94"/>
      <point x="438" y="0"/>
      <point x="640" y="0" type="curve"/>
      <point x="847" y="0"/>
      <point x="921" y="94"/>
      <point x="921" y="199" type="curve"/>
      <point x="921" y="457" type="line"/>
      <point x="1071" y="469"/>
      <point x="1165" y="562"/>
      <point x="1165" y="671" type="curve"/>
      <point x="1165" y="784"/>
      <point x="1068" y="870"/>
      <point x="940" y="870" type="curve"/>
      <point x="775" y="870"/>
      <point x="719" y="772"/>
      <point x="715" y="626" type="curve"/>
      <point x="543" y="645"/>
      <point x="396" y="802"/>
      <point x="396" y="960" type="curve"/>
      <point x="396" y="1132"/>
      <point x="505" y="1271"/>
      <point x="745" y="1271" type="curve"/>
      <point x="892" y="1271"/>
      <point x="959" y="1234"/>
      <point x="959" y="1204" type="curve"/>
      <point x="959" y="1177"/>
      <point x="952" y="1174"/>
      <point x="948" y="1170" type="curve"/>
      <point x="925" y="1181"/>
      <point x="892" y="1189"/>
      <point x="854" y="1189" type="curve"/>
      <point x="775" y="1189"/>
      <point x="715" y="1147"/>
      <point x="715" y="1087" type="curve"/>
      <point x="715" y="1001"/>
      <point x="809" y="949"/>
      <point x="899" y="949" type="curve"/>
      <point x="940" y="949"/>
      <point x="1015" y="967"/>
      <point x="1049" y="990" type="curve"/>
      <point x="1105" y="1027"/>
      <point x="1165" y="1091"/>
      <point x="1165" y="1174" type="curve" smooth="yes"/>
      <point x="1165" y="1290"/>
      <point x="1049" y="1440"/>
      <point x="745" y="1440" type="curve"/>
      <point x="389" y="1440"/>
      <point x="190" y="1226"/>
      <point x="190" y="960" type="curve"/>
      <point x="190" y="705"/>
      <point x="449" y="476"/>
      <point x="715" y="457" type="curve"/>
    </contour>
    <contour>
      <point x="921" y="664" type="line"/>
      <point x="921" y="686"/>
      <point x="929" y="701"/>
      <point x="940" y="701" type="curve"/>
      <point x="952" y="701"/>
      <point x="959" y="690"/>
      <point x="959" y="671" type="curve"/>
      <point x="959" y="645"/>
      <point x="944" y="626"/>
      <point x="933" y="626" type="curve"/>
      <point x="921" y="626" type="line"/>
    </contour>
  </outline>
</glyph>
<glyph name="uni1792" format="2">
  <advance width="1425"/>
  <unicode hex="1792"/>
  <anchor x="1200" y="0" name="L"/>
  <anchor x="1200" y="1440" name="U"/>
  <outline>
    <contour>
      <point x="908" y="709" type="curve" smooth="yes"/>
      <point x="908" y="746"/>
      <point x="964" y="810"/>
      <point x="1020" y="821" type="curve"/>
      <point x="1020" y="615" type="line"/>
      <point x="953" y="615"/>
      <point x="908" y="652"/>
    </contour>
    <contour>
      <point x="270" y="82" type="line"/>
      <point x="270" y="41"/>
      <point x="312" y="0"/>
      <point x="353" y="0" type="curve"/>
      <point x="477" y="0" type="line"/>
      <point x="507" y="0"/>
      <point x="574" y="49"/>
      <point x="619" y="82" type="curve"/>
      <point x="664" y="116"/>
      <point x="735" y="169"/>
      <point x="758" y="169" type="curve" smooth="yes"/>
      <point x="780" y="169"/>
      <point x="852" y="116"/>
      <point x="897" y="82" type="curve"/>
      <point x="942" y="49"/>
      <point x="1009" y="0"/>
      <point x="1039" y="0" type="curve" smooth="yes"/>
      <point x="1163" y="0" type="line"/>
      <point x="1204" y="0"/>
      <point x="1245" y="41"/>
      <point x="1245" y="82" type="curve"/>
      <point x="1245" y="892" type="line"/>
      <point x="1219" y="971"/>
      <point x="1118" y="990"/>
      <point x="1050" y="990" type="curve"/>
      <point x="885" y="956"/>
      <point x="796" y="821"/>
      <point x="796" y="697" type="curve" smooth="yes"/>
      <point x="796" y="577"/>
      <point x="897" y="536"/>
      <point x="1020" y="521" type="curve"/>
      <point x="1020" y="270" type="line"/>
      <point x="1020" y="225"/>
      <point x="1002" y="199"/>
      <point x="968" y="199" type="curve"/>
      <point x="938" y="199"/>
      <point x="788" y="319"/>
      <point x="758" y="319" type="curve" smooth="yes"/>
      <point x="728" y="319"/>
      <point x="578" y="199"/>
      <point x="548" y="199" type="curve" smooth="yes"/>
      <point x="514" y="199"/>
      <point x="495" y="229"/>
      <point x="495" y="270" type="curve" smooth="yes"/>
      <point x="495" y="1027" type="line"/>
      <point x="376" y="1027"/>
      <point x="320" y="1085"/>
      <point x="320" y="1129" type="curve" smooth="yes"/>
      <point x="320" y="1222"/>
      <point x="387" y="1275"/>
      <point x="451" y="1275" type="curve" smooth="yes"/>
      <point x="582" y="1275"/>
      <point x="702" y="1204"/>
      <point x="762" y="1166" type="curve"/>
      <point x="822" y="1226"/>
      <point x="946" y="1279"/>
      <point x="1040" y="1279" type="curve" smooth="yes"/>
      <point x="1115" y="1279"/>
      <point x="1163" y="1196"/>
      <point x="1227" y="1196" type="curve" smooth="yes"/>
      <point x="1336" y="1196"/>
      <point x="1396" y="1230"/>
      <point x="1403" y="1372" type="curve"/>
      <point x="1381" y="1350"/>
      <point x="1336" y="1342"/>
      <point x="1321" y="1342" type="curve" smooth="yes"/>
      <point x="1220" y="1342"/>
      <point x="1163" y="1440"/>
      <point x="1032" y="1440" type="curve" smooth="yes"/>
      <point x="920" y="1440"/>
      <point x="833" y="1402"/>
      <point x="762" y="1335" type="curve"/>
      <point x="668" y="1406"/>
      <point x="556" y="1440"/>
      <point x="410" y="1440" type="curve" smooth="yes"/>
      <point x="256" y="1440"/>
      <point x="151" y="1286"/>
      <point x="151" y="1162" type="curve" smooth="yes"/>
      <point x="151" y="1100"/>
      <point x="205" y="1026"/>
      <point x="270" y="988" type="curve"/>
    </contour>
  </outline>
</glyph>
<glyph name="uni1793" format="2">
  <advance width="1425"/>
  <unicode hex="1793"/>
  <anchor x="1200" y="0" name="L"/>
  <anchor x="1200" y="1440" name="U"/>
  <outline>
    <contour>
      <point x="1245" y="1117" type="curve" smooth="yes"/>
      <point x="1245" y="1339"/>
      <point x="1013" y="1440"/>
      <point x="807" y="1440" type="curve"/>
      <point x="488" y="1440"/>
      <point x="270" y="1312"/>
      <point x="270" y="1061" type="curve"/>
      <point x="270" y="746"/>
      <point x="592" y="657"/>
      <point x="840" y="591" type="curve" smooth="yes"/>
      <point x="904" y="574"/>
      <point x="968" y="557"/>
      <point x="1020" y="532" type="curve"/>
      <point x="1020" y="172" type="line"/>
      <point x="878" y="180"/>
      <point x="619" y="232"/>
      <point x="495" y="364" type="curve"/>
      <point x="495" y="626" type="line"/>
      <point x="270" y="626" type="line"/>
      <point x="270" y="0" type="line"/>
      <point x="495" y="0" type="line"/>
      <point x="495" y="176" type="line"/>
      <point x="619" y="105"/>
      <point x="870" y="0"/>
      <point x="1054" y="0" type="curve"/>
      <point x="1140" y="0" type="line"/>
      <point x="1193" y="0"/>
      <point x="1245" y="37"/>
      <point x="1245" y="79" type="curve"/>
      <point x="1245" y="611" type="line"/>
      <point x="1245" y="622"/>
      <point x="1230" y="637"/>
      <point x="1200" y="652" type="curve"/>
      <point x="1178" y="667"/>
      <point x="1099" y="686"/>
      <point x="1008" y="707" type="curve"/>
      <point x="792" y="757"/>
      <point x="476" y="836"/>
      <point x="476" y="1042" type="curve"/>
      <point x="476" y="1215"/>
      <point x="604" y="1290"/>
      <point x="788" y="1290" type="curve"/>
      <point x="949" y="1290"/>
      <point x="1057" y="1219"/>
      <point x="1057" y="1132" type="curve"/>
      <point x="1057" y="1110"/>
      <point x="1053" y="1095"/>
      <point x="1049" y="1080" type="curve"/>
      <point x="1027" y="1091"/>
      <point x="993" y="1099"/>
      <point x="963" y="1099" type="curve"/>
      <point x="884" y="1099"/>
      <point x="825" y="1054"/>
      <point x="825" y="994" type="curve"/>
      <point x="825" y="907"/>
      <point x="923" y="851"/>
      <point x="1013" y="851" type="curve"/>
      <point x="1058" y="851"/>
      <point x="1095" y="862"/>
      <point x="1126" y="884" type="curve"/>
      <point x="1212" y="945"/>
      <point x="1245" y="1031"/>
    </contour>
  </outline>
</glyph>
<glyph name="uni1796" format="2">
  <advance width="1425"/>
  <unicode hex="1796"/>
  <anchor x="1196" y="0" name="L"/>
  <anchor x="1196" y="1440" name="U"/>
  <outline>
    <contour>
      <point x="607" y="281" type="curve" smooth="yes"/>
      <point x="607" y="244"/>
      <point x="552" y="180"/>
      <point x="495" y="169" type="curve"/>
      <point x="495" y="375" type="line"/>
      <point x="563" y="375"/>
      <point x="607" y="337"/>
    </contour>
    <contour>
      <point x="270" y="97" type="line"/>
      <point x="297" y="19"/>
      <point x="398" y="0"/>
      <point x="465" y="0" type="curve"/>
      <point x="630" y="34"/>
      <point x="719" y="169"/>
      <point x="719" y="292" type="curve"/>
      <point x="719" y="412"/>
      <point x="619" y="454"/>
      <point x="495" y="469" type="curve"/>
      <point x="495" y="1147" type="line"/>
      <point x="495" y="1189"/>
      <point x="533" y="1253"/>
      <point x="555" y="1253" type="curve" smooth="yes"/>
      <point x="563" y="1253"/>
      <point x="593" y="1226"/>
      <point x="623" y="1196" type="curve" smooth="yes"/>
      <point x="664" y="1155"/>
      <point x="717" y="1114"/>
      <point x="758" y="1114" type="curve" smooth="yes"/>
      <point x="799" y="1114"/>
      <point x="852" y="1155"/>
      <point x="893" y="1196" type="curve" smooth="yes"/>
      <point x="923" y="1226"/>
      <point x="953" y="1253"/>
      <point x="960" y="1253" type="curve" smooth="yes"/>
      <point x="983" y="1253"/>
      <point x="1020" y="1189"/>
      <point x="1020" y="1147" type="curve" smooth="yes"/>
      <point x="1020" y="0" type="line"/>
      <point x="1245" y="0" type="line"/>
      <point x="1245" y="1185" type="line"/>
      <point x="1245" y="1245"/>
      <point x="1092" y="1440"/>
      <point x="987" y="1440" type="curve" smooth="yes"/>
      <point x="930" y="1440"/>
      <point x="874" y="1395"/>
      <point x="829" y="1350" type="curve"/>
      <point x="799" y="1316"/>
      <point x="765" y="1290"/>
      <point x="758" y="1290" type="curve" smooth="yes"/>
      <point x="750" y="1290"/>
      <point x="717" y="1316"/>
      <point x="687" y="1350" type="curve"/>
      <point x="642" y="1395"/>
      <point x="585" y="1440"/>
      <point x="529" y="1440" type="curve" smooth="yes"/>
      <point x="420" y="1440"/>
      <point x="270" y="1245"/>
      <point x="270" y="1185" type="curve" smooth="yes"/>
    </contour>
  </outline>
</glyph>
<glyph name="uni1797" format="2">
  <advance width="1465"/>
  <unicode hex="1797"/>
  <anchor x="1237" y="0" name="L"/>
  <anchor x="1237" y="1440" name="U"/>
  <outline>
    <contour>
      <point x="310" y="934" type="curve"/>
      <point x="310" y="169" type="line"/>
      <point x="254" y="180"/>
      <point x="198" y="244"/>
      <point x="198" y="281" type="curve" smooth="yes"/>
      <point x="198" y="315"/>
      <point x="213" y="334"/>
      <point x="232" y="353" type="curve" smooth="yes"/>
      <point x="251" y="372"/>
      <point x="255" y="385"/>
      <point x="255" y="402" type="curve" smooth="yes"/>
      <point x="255" y="425"/>
      <point x="228" y="439"/>
      <point x="210" y="439" type="curve" smooth="yes"/>
      <point x="146" y="439"/>
      <point x="86" y="375"/>
      <point x="86" y="293" type="curve" smooth="yes"/>
      <point x="86" y="161"/>
      <point x="175" y="34"/>
      <point x="340" y="0" type="curve"/>
      <point x="407" y="0"/>
      <point x="509" y="19"/>
      <point x="535" y="98" type="curve"/>
      <point x="535" y="915" type="line" smooth="yes"/>
      <point x="535" y="964"/>
      <point x="704" y="1009"/>
      <point x="797" y="1009" type="curve" smooth="yes"/>
      <point x="891" y="1009"/>
      <point x="1060" y="964"/>
      <point x="1060" y="915" type="curve" smooth="yes"/>
      <point x="1060" y="0" type="line"/>
      <point x="1285" y="0" type="line"/>
      <point x="1285" y="934" type="line" smooth="yes"/>
      <point x="1285" y="1039"/>
      <point x="1004" y="1140"/>
      <point x="797" y="1140" type="curve" smooth="yes"/>
      <point x="663" y="1140"/>
      <point x="498" y="1097"/>
      <point x="398" y="1039" type="curve"/>
      <point x="372" y="1062"/>
      <point x="352" y="1098"/>
      <point x="352" y="1129" type="curve" smooth="yes"/>
      <point x="352" y="1222"/>
      <point x="420" y="1275"/>
      <point x="483" y="1275" type="curve" smooth="yes"/>
      <point x="615" y="1275"/>
      <point x="735" y="1204"/>
      <point x="795" y="1166" type="curve"/>
      <point x="855" y="1226"/>
      <point x="978" y="1279"/>
      <point x="1072" y="1279" type="curve" smooth="yes"/>
      <point x="1147" y="1279"/>
      <point x="1196" y="1196"/>
      <point x="1260" y="1196" type="curve" smooth="yes"/>
      <point x="1368" y="1196"/>
      <point x="1428" y="1230"/>
      <point x="1436" y="1372" type="curve"/>
      <point x="1413" y="1350"/>
      <point x="1368" y="1342"/>
      <point x="1353" y="1342" type="curve" smooth="yes"/>
      <point x="1252" y="1342"/>
      <point x="1196" y="1440"/>
      <point x="1065" y="1440" type="curve" smooth="yes"/>
      <point x="952" y="1440"/>
      <point x="866" y="1402"/>
      <point x="795" y="1335" type="curve"/>
      <point x="701" y="1406"/>
      <point x="588" y="1440"/>
      <point x="442" y="1440" type="curve" smooth="yes"/>
      <point x="288" y="1440"/>
      <point x="183" y="1286"/>
      <point x="183" y="1162" type="curve" smooth="yes"/>
      <point x="183" y="1088"/>
      <point x="250" y="1003"/>
      <point x="315" y="959" type="curve"/>
      <point x="311" y="951"/>
      <point x="310" y="942"/>
    </contour>
  </outline>
</glyph>
<glyph name="uni179A" format="2">
  <advance width="715"/>
  <unicode hex="179A"/>
  <anchor x="375" y="0" name="M"/>
  <anchor x="487" y="1440" name="U"/>
  <outline>
    <contour>
      <point x="198" y="281" type="curve" smooth="yes"/>
      <point x="198" y="337"/>
      <point x="242" y="375"/>
      <point x="310" y="375" type="curve"/>
      <point x="310" y="169" type="line"/>
      <point x="254" y="180"/>
      <point x="198" y="244"/>
    </contour>
    <contour>
      <point x="535" y="971" type="line"/>
      <point x="535" y="1020"/>
      <point x="460" y="1058"/>
      <point x="381" y="1095" type="curve" smooth="yes"/>
      <point x="344" y="1112"/>
      <point x="284" y="1140"/>
      <point x="284" y="1200" type="curve" smooth="yes"/>
      <point x="284" y="1241"/>
      <point x="325" y="1282"/>
      <point x="359" y="1282" type="curve" smooth="yes"/>
      <point x="415" y="1282"/>
      <point x="460" y="1200"/>
      <point x="535" y="1200" type="curve" smooth="yes"/>
      <point x="644" y="1200"/>
      <point x="700" y="1241"/>
      <point x="707" y="1384" type="curve"/>
      <point x="685" y="1357"/>
      <point x="647" y="1346"/>
      <point x="629" y="1346" type="curve" smooth="yes"/>
      <point x="599" y="1346"/>
      <point x="556" y="1370"/>
      <point x="524" y="1391" type="curve" smooth="yes"/>
      <point x="486" y="1416"/>
      <point x="449" y="1440"/>
      <point x="392" y="1440" type="curve" smooth="yes"/>
      <point x="272" y="1440"/>
      <point x="141" y="1297"/>
      <point x="141" y="1177" type="curve" smooth="yes"/>
      <point x="141" y="1110"/>
      <point x="164" y="1046"/>
      <point x="257" y="997" type="curve" smooth="yes"/>
      <point x="284" y="982"/>
      <point x="310" y="960"/>
      <point x="310" y="915" type="curve" smooth="yes"/>
      <point x="310" y="469" type="line"/>
      <point x="186" y="454"/>
      <point x="86" y="412"/>
      <point x="86" y="292" type="curve" smooth="yes"/>
      <point x="86" y="169"/>
      <point x="175" y="34"/>
      <point x="340" y="0" type="curve"/>
      <point x="407" y="0"/>
      <point x="509" y="19"/>
      <point x="535" y="97" type="curve"/>
    </contour>
  </outline>
</glyph>
<glyph name="uni179B" format="2">
  <advance width="1875"/>
  <unicode hex="179B"/>
  <anchor x="1650" y="0" name="L"/>
  <anchor x="1650" y="1440" name="U"/>
  <outline>
    <contour>
      <point x="607" y="281" type="curve" smooth="yes"/>
      <point x="607" y="244"/>
      <point x="552" y="180"/>
      <point x="495" y="169" type="curve"/>
      <point x="495" y="375" type="line"/>
      <point x="563" y="375"/>
      <point x="607" y="337"/>
    </contour>
    <contour>
      <point x="1695" y="971" type="line"/>
      <point x="1695" y="1020"/>
      <point x="1620" y="1058"/>
      <point x="1541" y="1095" type="curve" smooth="yes"/>
      <point x="1504" y="1112"/>
      <point x="1444" y="1140"/>
      <point x="1444" y="1200" type="curve" smooth="yes"/>
      <point x="1444" y="1241"/>
      <point x="1485" y="1282"/>
      <point x="1519" y="1282" type="curve" smooth="yes"/>
      <point x="1575" y="1282"/>
      <point x="1620" y="1200"/>
      <point x="1695" y="1200" type="curve" smooth="yes"/>
      <point x="1804" y="1200"/>
      <point x="1860" y="1241"/>
      <point x="1867" y="1384" type="curve"/>
      <point x="1845" y="1357"/>
      <point x="1807" y="1346"/>
      <point x="1789" y="1346" type="curve" smooth="yes"/>
      <point x="1759" y="1346"/>
      <point x="1716" y="1370"/>
      <point x="1684" y="1391" type="curve" smooth="yes"/>
      <point x="1646" y="1416"/>
      <point x="1609" y="1440"/>
      <point x="1552" y="1440" type="curve" smooth="yes"/>
      <point x="1432" y="1440"/>
      <point x="1301" y="1297"/>
      <point x="1301" y="1177" type="curve" smooth="yes"/>
      <point x="1301" y="1110"/>
      <point x="1324" y="1046"/>
      <point x="1417" y="997" type="curve" smooth="yes"/>
      <point x="1444" y="982"/>
      <point x="1470" y="960"/>
      <point x="1470" y="915" type="curve" smooth="yes"/>
      <point x="1470" y="206" type="line" smooth="yes"/>
      <point x="1470" y="161"/>
      <point x="1358" y="131"/>
      <point x="1283" y="131" type="curve" smooth="yes"/>
      <point x="1208" y="131"/>
      <point x="1095" y="161"/>
      <point x="1095" y="206" type="curve" smooth="yes"/>
      <point x="1095" y="1260" type="line" smooth="yes"/>
      <point x="1095" y="1365"/>
      <point x="870" y="1440"/>
      <point x="683" y="1440" type="curve" smooth="yes"/>
      <point x="495" y="1440"/>
      <point x="270" y="1365"/>
      <point x="270" y="1260" type="curve" smooth="yes"/>
      <point x="270" y="97" type="line"/>
      <point x="297" y="19"/>
      <point x="398" y="0"/>
      <point x="465" y="0" type="curve"/>
      <point x="630" y="34"/>
      <point x="719" y="169"/>
      <point x="719" y="292" type="curve" smooth="yes"/>
      <point x="719" y="412"/>
      <point x="619" y="454"/>
      <point x="495" y="469" type="curve"/>
      <point x="495" y="1234" type="line" smooth="yes"/>
      <point x="495" y="1279"/>
      <point x="608" y="1309"/>
      <point x="683" y="1309" type="curve" smooth="yes"/>
      <point x="758" y="1309"/>
      <point x="870" y="1279"/>
      <point x="870" y="1234" type="curve" smooth="yes"/>
      <point x="870" y="180" type="line" smooth="yes"/>
      <point x="870" y="75"/>
      <point x="1095" y="0"/>
      <point x="1283" y="0" type="curve" smooth="yes"/>
      <point x="1470" y="0"/>
      <point x="1695" y="75"/>
      <point x="1695" y="180" type="curve" smooth="yes"/>
    </contour>
  </outline>
</glyph>
<glyph name="uni179E" format="2">
  <advance width="1425"/>
  <unicode hex="179E"/>
  <anchor x="1200" y="0" name="L"/>
  <anchor x="1200" y="1440" name="U"/>
  <outline>
    <contour>
      <point x="270" y="206" type="line" smooth="yes"/>
      <point x="270" y="101"/>
      <point x="552" y="0"/>
      <point x="758" y="0" type="curve" smooth="yes"/>
      <point x="964" y="0"/>
      <point x="1245" y="101"/>
      <point x="1245" y="206" type="curve" smooth="yes"/>
      <point x="1245" y="411" type="line"/>
      <point x="1262" y="419"/>
      <point x="1280" y="429"/>
      <point x="1298" y="439" type="curve" smooth="yes"/>
      <point x="1399" y="495"/>
      <point x="1470" y="619"/>
      <point x="1470" y="645" type="curve" smooth="yes"/>
      <point x="1470" y="649"/>
      <point x="1467" y="652"/>
      <point x="1463" y="652" type="curve" smooth="yes"/>
      <point x="1444" y="652"/>
      <point x="1320" y="592"/>
      <point x="1264" y="566" type="curve" smooth="yes"/>
      <point x="1257" y="563"/>
      <point x="1251" y="560"/>
      <point x="1245" y="558" type="curve"/>
      <point x="1245" y="971" type="line" smooth="yes"/>
      <point x="1245" y="1020"/>
      <point x="1170" y="1058"/>
      <point x="1091" y="1095" type="curve" smooth="yes"/>
      <point x="1054" y="1112"/>
      <point x="994" y="1140"/>
      <point x="994" y="1200" type="curve" smooth="yes"/>
      <point x="994" y="1241"/>
      <point x="1035" y="1282"/>
      <point x="1069" y="1282" type="curve" smooth="yes"/>
      <point x="1125" y="1282"/>
      <point x="1170" y="1200"/>
      <point x="1245" y="1200" type="curve" smooth="yes"/>
      <point x="1354" y="1200"/>
      <point x="1410" y="1241"/>
      <point x="1417" y="1384" type="curve"/>
      <point x="1395" y="1357"/>
      <point x="1357" y="1346"/>
      <point x="1339" y="1346" type="curve" smooth="yes"/>
      <point x="1309" y="1346"/>
      <point x="1266" y="1370"/>
      <point x="1234" y="1391" type="curve" smooth="yes"/>
      <point x="1196" y="1416"/>
      <point x="1159" y="1440"/>
      <point x="1102" y="1440" type="curve" smooth="yes"/>
      <point x="982" y="1440"/>
      <point x="851" y="1297"/>
      <point x="851" y="1177" type="curve" smooth="yes"/>
      <point x="851" y="1110"/>
      <point x="874" y="1046"/>
      <point x="967" y="997" type="curve" smooth="yes"/>
      <point x="994" y="982"/>
      <point x="1020" y="960"/>
      <point x="1020" y="915" type="curve" smooth="yes"/>
      <point x="1020" y="521" type="line"/>
      <point x="975" y="521"/>
      <point x="957" y="536"/>
      <point x="957" y="562" type="curve" smooth="yes"/>
      <point x="957" y="581"/>
      <point x="983" y="607"/>
      <point x="1002" y="619" type="curve"/>
      <point x="983" y="630"/>
      <point x="953" y="637"/>
      <point x="915" y="637" type="curve" smooth="yes"/>
      <point x="840" y="637"/>
      <point x="777" y="589"/>
      <point x="777" y="521" type="curve" smooth="yes"/>
      <point x="777" y="439"/>
      <point x="848" y="356"/>
      <point x="979" y="356" type="curve" smooth="yes"/>
      <point x="993" y="356"/>
      <point x="1007" y="356"/>
      <point x="1020" y="357" type="curve"/>
      <point x="1020" y="217" type="line" smooth="yes"/>
      <point x="1020" y="169"/>
      <point x="852" y="131"/>
      <point x="758" y="131" type="curve" smooth="yes"/>
      <point x="664" y="131"/>
      <point x="495" y="169"/>
      <point x="495" y="217" type="curve" smooth="yes"/>
      <point x="495" y="971" type="line" smooth="yes"/>
      <point x="495" y="1020"/>
      <point x="420" y="1058"/>
      <point x="341" y="1095" type="curve" smooth="yes"/>
      <point x="304" y="1112"/>
      <point x="244" y="1140"/>
      <point x="244" y="1200" type="curve" smooth="yes"/>
      <point x="244" y="1241"/>
      <point x="285" y="1282"/>
      <point x="319" y="1282" type="curve" smooth="yes"/>
      <point x="375" y="1282"/>
      <point x="420" y="1200"/>
      <point x="495" y="1200" type="curve" smooth="yes"/>
      <point x="604" y="1200"/>
      <point x="660" y="1241"/>
      <point x="667" y="1384" type="curve"/>
      <point x="645" y="1357"/>
      <point x="607" y="1346"/>
      <point x="589" y="1346" type="curve" smooth="yes"/>
      <point x="559" y="1346"/>
      <point x="516" y="1370"/>
      <point x="484" y="1391" type="curve" smooth="yes"/>
      <point x="446" y="1416"/>
      <point x="409" y="1440"/>
      <point x="352" y="1440" type="curve" smooth="yes"/>
      <point x="232" y="1440"/>
      <point x="101" y="1297"/>
      <point x="101" y="1177" type="curve" smooth="yes"/>
      <point x="101" y="1110"/>
      <point x="124" y="1046"/>
      <point x="217" y="997" type="curve" smooth="yes"/>
      <point x="244" y="982"/>
      <point x="270" y="960"/>
      <point x="270" y="915" type="curve" smooth="yes"/>
    </contour>
  </outline>
</glyph>
<glyph name="uni179F" format="2">
  <advance width="1875"/>
  <unicode hex="179F"/>
  <anchor x="1650" y="0" name="L"/>
  <anchor x="1650" y="1440" name="U"/>
  <outline>
    <contour>
      <point x="1695" y="971" type="line" smooth="yes"/>
      <point x="1695" y="1020"/>
      <point x="1620" y="1058"/>
      <point x="1541" y="1095" type="curve" smooth="yes"/>
      <point x="1504" y="1112"/>
      <point x="1444" y="1140"/>
      <point x="1444" y="1200" type="curve" smooth="yes"/>
      <point x="1444" y="1241"/>
      <point x="1485" y="1282"/>
      <point x="1519" y="1282" type="curve" smooth="yes"/>
      <point x="1575" y="1282"/>
      <point x="1620" y="1200"/>
      <point x="1695" y="1200" type="curve" smooth="yes"/>
      <point x="1804" y="1200"/>
      <point x="1860" y="1241"/>
      <point x="1867" y="1384" type="curve"/>
      <point x="1845" y="1357"/>
      <point x="1807" y="1346"/>
      <point x="1789" y="1346" type="curve" smooth="yes"/>
      <point x="1759" y="1346"/>
      <point x="1716" y="1370"/>
      <point x="1684" y="1391" type="curve" smooth="yes"/>
      <point x="1646" y="1416"/>
      <point x="1609" y="1440"/>
      <point x="1552" y="1440" type="curve" smooth="yes"/>
      <point x="1432" y="1440"/>
      <point x="1301" y="1297"/>
      <point x="1301" y="1177" type="curve" smooth="yes"/>
      <point x="1301" y="1110"/>
      <point x="1324" y="1046"/>
      <point x="1417" y="997" type="curve" smooth="yes"/>
      <point x="1444" y="982"/>
      <point x="1470" y="960"/>
      <point x="1470" y="915" type="curve" smooth="yes"/>
      <point x="1470" y="206" type="line" smooth="yes"/>
      <point x="1470" y="161"/>
      <point x="1347" y="131"/>
      <point x="1283" y="131" type="curve" smooth="yes"/>
      <point x="1219" y="131"/>
      <point x="1095" y="161"/>
      <point x="1095" y="206" type="curve" smooth="yes"/>
      <point x="1095" y="802" type="line" smooth="yes"/>
      <point x="1095" y="891"/>
      <point x="892" y="981"/>
      <point x="711" y="989" type="curve"/>
      <point x="696" y="1030"/>
      <point x="630" y="1062"/>
      <point x="561" y="1095" type="curve" smooth="yes"/>
      <point x="524" y="1112"/>
      <point x="464" y="1140"/>
      <point x="464" y="1200" type="curve" smooth="yes"/>
      <point x="464" y="1241"/>
      <point x="505" y="1282"/>
      <point x="539" y="1282" type="curve" smooth="yes"/>
      <point x="595" y="1282"/>
      <point x="640" y="1200"/>
      <point x="715" y="1200" type="curve" smooth="yes"/>
      <point x="824" y="1200"/>
      <point x="880" y="1241"/>
      <point x="887" y="1384" type="curve"/>
      <point x="865" y="1357"/>
      <point x="827" y="1346"/>
      <point x="809" y="1346" type="curve" smooth="yes"/>
      <point x="779" y="1346"/>
      <point x="736" y="1370"/>
      <point x="704" y="1391" type="curve" smooth="yes"/>
      <point x="666" y="1416"/>
      <point x="629" y="1440"/>
      <point x="572" y="1440" type="curve" smooth="yes"/>
      <point x="452" y="1440"/>
      <point x="321" y="1297"/>
      <point x="321" y="1177" type="curve" smooth="yes"/>
      <point x="321" y="1110"/>
      <point x="344" y="1046"/>
      <point x="437" y="997" type="curve" smooth="yes"/>
      <point x="453" y="988"/>
      <point x="469" y="976"/>
      <point x="479" y="958" type="curve"/>
      <point x="363" y="923"/>
      <point x="270" y="862"/>
      <point x="270" y="802" type="curve" smooth="yes"/>
      <point x="270" y="97" type="line"/>
      <point x="297" y="19"/>
      <point x="398" y="0"/>
      <point x="465" y="0" type="curve"/>
      <point x="630" y="34"/>
      <point x="719" y="169"/>
      <point x="719" y="292" type="curve" smooth="yes"/>
      <point x="719" y="412"/>
      <point x="619" y="454"/>
      <point x="495" y="469" type="curve"/>
      <point x="495" y="784" type="line" smooth="yes"/>
      <point x="495" y="829"/>
      <point x="608" y="859"/>
      <point x="683" y="859" type="curve" smooth="yes"/>
      <point x="758" y="859"/>
      <point x="870" y="829"/>
      <point x="870" y="784" type="curve" smooth="yes"/>
      <point x="870" y="180" type="line" smooth="yes"/>
      <point x="870" y="75"/>
      <point x="1077" y="0"/>
      <point x="1283" y="0" type="curve" smooth="yes"/>
      <point x="1489" y="0"/>
      <point x="1695" y="82"/>
      <point x="1695" y="187" type="curve" smooth="yes"/>
    </contour>
    <contour>
      <point x="607" y="281" type="curve" smooth="yes"/>
      <point x="607" y="244"/>
      <point x="552" y="180"/>
      <point x="495" y="169" type="curve"/>
      <point x="495" y="375" type="line"/>
      <point x="563" y="375"/>
      <point x="607" y="337"/>
    </contour>
  </outline>
</glyph>
<glyph name="uni17A0" format="2">
  <advance width="1875"/>
  <unicode hex="17A0"/>
  <anchor x="1650" y="0" name="L"/>
  <anchor x="1650" y="1440" name="U"/>
  <outline>
    <contour>
      <point x="495" y="971" type="line"/>
      <point x="495" y="1020"/>
      <point x="420" y="1058"/>
      <point x="341" y="1095" type="curve" smooth="yes"/>
      <point x="304" y="1112"/>
      <point x="244" y="1140"/>
      <point x="244" y="1200" type="curve" smooth="yes"/>
      <point x="244" y="1241"/>
      <point x="285" y="1282"/>
      <point x="319" y="1282" type="curve" smooth="yes"/>
      <point x="375" y="1282"/>
      <point x="420" y="1200"/>
      <point x="495" y="1200" type="curve" smooth="yes"/>
      <point x="604" y="1200"/>
      <point x="660" y="1241"/>
      <point x="667" y="1384" type="curve"/>
      <point x="645" y="1357"/>
      <point x="607" y="1346"/>
      <point x="589" y="1346" type="curve" smooth="yes"/>
      <point x="559" y="1346"/>
      <point x="516" y="1370"/>
      <point x="484" y="1391" type="curve" smooth="yes"/>
      <point x="446" y="1416"/>
      <point x="409" y="1440"/>
      <point x="352" y="1440" type="curve" smooth="yes"/>
      <point x="232" y="1440"/>
      <point x="101" y="1297"/>
      <point x="101" y="1177" type="curve" smooth="yes"/>
      <point x="101" y="1110"/>
      <point x="124" y="1046"/>
      <point x="217" y="997" type="curve" smooth="yes"/>
      <point x="244" y="982"/>
      <point x="270" y="960"/>
      <point x="270" y="915" type="curve" smooth="yes"/>
      <point x="270" y="180" type="line" smooth="yes"/>
      <point x="270" y="86"/>
      <point x="495" y="0"/>
      <point x="683" y="0" type="curve" smooth="yes"/>
      <point x="870" y="0"/>
      <point x="1095" y="86"/>
      <point x="1095" y="180" type="curve" smooth="yes"/>
      <point x="1095" y="1234" type="line" smooth="yes"/>
      <point x="1095" y="1279"/>
      <point x="1208" y="1309"/>
      <point x="1283" y="1309" type="curve" smooth="yes"/>
      <point x="1358" y="1309"/>
      <point x="1470" y="1279"/>
      <point x="1470" y="1234" type="curve" smooth="yes"/>
      <point x="1470" y="0" type="line"/>
      <point x="1695" y="0" type="line"/>
      <point x="1695" y="1252" type="line" smooth="yes"/>
      <point x="1695" y="1346"/>
      <point x="1470" y="1440"/>
      <point x="1283" y="1440" type="curve" smooth="yes"/>
      <point x="1095" y="1440"/>
      <point x="870" y="1346"/>
      <point x="870" y="1252" type="curve" smooth="yes"/>
      <point x="870" y="206" type="line" smooth="yes"/>
      <point x="870" y="161"/>
      <point x="758" y="131"/>
      <point x="683" y="131" type="curve" smooth="yes"/>
      <point x="608" y="131"/>
      <point x="495" y="161"/>
      <point x="495" y="206" type="curve" smooth="yes"/>
    </contour>
  </outline>
</glyph>
<glyph name="uni17A5" format="2">
  <advance width="1425"/>
  <unicode hex="17A5"/>
  <anchor x="1200" y="0" name="L"/>
  <anchor x="1200" y="1665" name="U"/>
  <outline>
    <contour>
      <point x="270" y="97" type="line"/>
      <point x="297" y="19"/>
      <point x="398" y="0"/>
      <point x="465" y="0" type="curve"/>
      <point x="630" y="34"/>
      <point x="719" y="169"/>
      <point x="719" y="292" type="curve" smooth="yes"/>
      <point x="719" y="412"/>
      <point x="619" y="454"/>
      <point x="495" y="469" type="curve"/>
      <point x="495" y="915" type="line" smooth="yes"/>
      <point x="495" y="964"/>
      <point x="664" y="1009"/>
      <point x="758" y="1009" type="curve" smooth="yes"/>
      <point x="852" y="1009"/>
      <point x="1020" y="964"/>
      <point x="1020" y="915" type="curve" smooth="yes"/>
      <point x="1020" y="0" type="line"/>
      <point x="1245" y="0" type="line"/>
      <point x="1245" y="934" type="line" smooth="yes"/>
      <point x="1245" y="1039"/>
      <point x="964" y="1140"/>
      <point x="758" y="1140" type="curve" smooth="yes"/>
      <point x="646" y="1140"/>
      <point x="511" y="1110"/>
      <point x="412" y="1066" type="curve"/>
      <point x="364" y="1086"/>
      <point x="308" y="1132"/>
      <point x="308" y="1173" type="curve" smooth="yes"/>
      <point x="308" y="1244"/>
      <point x="364" y="1268"/>
      <point x="428" y="1268" type="curve" smooth="yes"/>
      <point x="454" y="1268"/>
      <point x="542" y="1254"/>
      <point x="610" y="1225" type="curve" smooth="yes"/>
      <point x="700" y="1187"/>
      <point x="784" y="1150"/>
      <point x="927" y="1150" type="curve" smooth="yes"/>
      <point x="1058" y="1150"/>
      <point x="1234" y="1225"/>
      <point x="1234" y="1390" type="curve" smooth="yes"/>
      <point x="1234" y="1480"/>
      <point x="1215" y="1518"/>
      <point x="1154" y="1599" type="curve" smooth="yes"/>
      <point x="1092" y="1683"/>
      <point x="1017" y="1739"/>
      <point x="915" y="1739" type="curve" smooth="yes"/>
      <point x="818" y="1739"/>
      <point x="780" y="1698"/>
      <point x="780" y="1645" type="curve" smooth="yes"/>
      <point x="780" y="1581"/>
      <point x="863" y="1539"/>
      <point x="934" y="1510" type="curve" smooth="yes"/>
      <point x="958" y="1500"/>
      <point x="979" y="1491"/>
      <point x="994" y="1480" type="curve"/>
      <point x="1035" y="1446"/>
      <point x="1050" y="1424"/>
      <point x="1050" y="1390" type="curve" smooth="yes"/>
      <point x="1050" y="1349"/>
      <point x="1009" y="1319"/>
      <point x="912" y="1319" type="curve" smooth="yes"/>
      <point x="867" y="1319"/>
      <point x="794" y="1332"/>
      <point x="725" y="1362" type="curve" smooth="yes"/>
      <point x="635" y="1401"/>
      <point x="540" y="1440"/>
      <point x="402" y="1440" type="curve" smooth="yes"/>
      <point x="263" y="1440"/>
      <point x="139" y="1326"/>
      <point x="139" y="1195" type="curve" smooth="yes"/>
      <point x="139" y="1102"/>
      <point x="236" y="1033"/>
      <point x="308" y="1002" type="curve"/>
      <point x="284" y="980"/>
      <point x="270" y="957"/>
      <point x="270" y="934" type="curve" smooth="yes"/>
    </contour>
    <contour>
      <point x="607" y="281" type="curve" smooth="yes"/>
      <point x="607" y="244"/>
      <point x="552" y="180"/>
      <point x="495" y="169" type="curve"/>
      <point x="495" y="375" type="line"/>
      <point x="563" y="375"/>
      <point x="607" y="337"/>
    </contour>
  </outline>
</glyph>
<glyph name="uni17A6" format="2">
  <advance width="1950"/>
  <unicode hex="17A6"/>
  <anchor x="1725" y="-713" name="L"/>
  <anchor x="1725" y="1702" name="U"/>
  <outline>
    <contour>
      <point x="607" y="281" type="curve" smooth="yes"/>
      <point x="607" y="244"/>
      <point x="552" y="180"/>
      <point x="495" y="169" type="curve"/>
      <point x="495" y="375" type="line"/>
      <point x="563" y="375"/>
      <point x="607" y="337"/>
    </contour>
    <contour>
      <point x="270" y="97" type="line"/>
      <point x="297" y="19"/>
      <point x="398" y="0"/>
      <point x="465" y="0" type="curve"/>
      <point x="630" y="34"/>
      <point x="719" y="169"/>
      <point x="719" y="292" type="curve" smooth="yes"/>
      <point x="719" y="412"/>
      <point x="619" y="454"/>
      <point x="495" y="469" type="curve"/>
      <point x="495" y="1215" type="line" smooth="yes"/>
      <point x="495" y="1264"/>
      <point x="664" y="1309"/>
      <point x="758" y="1309" type="curve" smooth="yes"/>
      <point x="852" y="1309"/>
      <point x="1020" y="1264"/>
      <point x="1020" y="1215" type="curve" smooth="yes"/>
      <point x="1020" y="0" type="line"/>
      <point x="1245" y="0" type="line"/>
      <point x="1245" y="1234" type="line" smooth="yes"/>
      <point x="1245" y="1339"/>
      <point x="964" y="1440"/>
      <point x="758" y="1440" type="curve" smooth="yes"/>
      <point x="552" y="1440"/>
      <point x="270" y="1339"/>
      <point x="270" y="1234" type="curve" smooth="yes"/>
    </contour>
    <contour>
      <point x="1770" y="971" type="line"/>
      <point x="1770" y="1020"/>
      <point x="1695" y="1058"/>
      <point x="1616" y="1095" type="curve" smooth="yes"/>
      <point x="1579" y="1112"/>
      <point x="1519" y="1140"/>
      <point x="1519" y="1200" type="curve" smooth="yes"/>
      <point x="1519" y="1241"/>
      <point x="1560" y="1282"/>
      <point x="1594" y="1282" type="curve" smooth="yes"/>
      <point x="1650" y="1282"/>
      <point x="1695" y="1200"/>
      <point x="1770" y="1200" type="curve" smooth="yes"/>
      <point x="1879" y="1200"/>
      <point x="1942" y="1234"/>
      <point x="1942" y="1440" type="curve" smooth="yes"/>
      <point x="1942" y="1601"/>
      <point x="1807" y="1800"/>
      <point x="1597" y="1800" type="curve" smooth="yes"/>
      <point x="1522" y="1800"/>
      <point x="1474" y="1770"/>
      <point x="1474" y="1717" type="curve" smooth="yes"/>
      <point x="1474" y="1646"/>
      <point x="1552" y="1605"/>
      <point x="1646" y="1575" type="curve" smooth="yes"/>
      <point x="1729" y="1549"/>
      <point x="1804" y="1511"/>
      <point x="1804" y="1421" type="curve" smooth="yes"/>
      <point x="1804" y="1376"/>
      <point x="1796" y="1369"/>
      <point x="1792" y="1365" type="curve"/>
      <point x="1788" y="1369"/>
      <point x="1774" y="1381"/>
      <point x="1759" y="1391" type="curve" smooth="yes"/>
      <point x="1732" y="1409"/>
      <point x="1684" y="1440"/>
      <point x="1627" y="1440" type="curve" smooth="yes"/>
      <point x="1507" y="1440"/>
      <point x="1376" y="1297"/>
      <point x="1376" y="1177" type="curve" smooth="yes"/>
      <point x="1376" y="1110"/>
      <point x="1399" y="1046"/>
      <point x="1492" y="997" type="curve" smooth="yes"/>
      <point x="1519" y="982"/>
      <point x="1545" y="960"/>
      <point x="1545" y="915" type="curve" smooth="yes"/>
      <point x="1545" y="-507" type="line" smooth="yes"/>
      <point x="1545" y="-552"/>
      <point x="1455" y="-582"/>
      <point x="1395" y="-582" type="curve" smooth="yes"/>
      <point x="1335" y="-582"/>
      <point x="1245" y="-552"/>
      <point x="1245" y="-507" type="curve" smooth="yes"/>
      <point x="1245" y="-319" type="line" smooth="yes"/>
      <point x="1245" y="-214"/>
      <point x="1017" y="-131"/>
      <point x="829" y="-131" type="curve" smooth="yes"/>
      <point x="642" y="-131"/>
      <point x="402" y="-214"/>
      <point x="402" y="-319" type="curve" smooth="yes"/>
      <point x="402" y="-623" type="line"/>
      <point x="413" y="-686"/>
      <point x="507" y="-705"/>
      <point x="578" y="-705" type="curve"/>
      <point x="668" y="-686"/>
      <point x="735" y="-660"/>
      <point x="735" y="-581" type="curve" smooth="yes"/>
      <point x="735" y="-540"/>
      <point x="690" y="-480"/>
      <point x="608" y="-465" type="curve"/>
      <point x="608" y="-337" type="line" smooth="yes"/>
      <point x="608" y="-292"/>
      <point x="750" y="-262"/>
      <point x="825" y="-262" type="curve" smooth="yes"/>
      <point x="900" y="-262"/>
      <point x="1039" y="-292"/>
      <point x="1039" y="-337" type="curve" smooth="yes"/>
      <point x="1039" y="-525" type="line" smooth="yes"/>
      <point x="1039" y="-630"/>
      <point x="1234" y="-713"/>
      <point x="1395" y="-713" type="curve" smooth="yes"/>
      <point x="1557" y="-713"/>
      <point x="1770" y="-630"/>
      <point x="1770" y="-525" type="curve" smooth="yes"/>
    </contour>
  </outline>
</glyph>
<glyph name="uni17A7" format="2">
  <advance width="1315"/>
  <unicode hex="17A7"/>
  <anchor x="1107" y="0" name="L"/>
  <anchor x="1107" y="1440" name="U"/>
  <outline>
    <contour>
      <point x="172" y="1121" type="curve" smooth="yes"/>
      <point x="172" y="1035"/>
      <point x="221" y="937"/>
      <point x="307" y="877" type="curve"/>
      <point x="337" y="855"/>
      <point x="386" y="844"/>
      <point x="427" y="844" type="curve"/>
      <point x="517" y="844"/>
      <point x="607" y="900"/>
      <point x="607" y="986" type="curve"/>
      <point x="607" y="1046"/>
      <point x="551" y="1091"/>
      <point x="472" y="1091" type="curve"/>
      <point x="439" y="1091"/>
      <point x="416" y="1084"/>
      <point x="390" y="1072" type="curve"/>
      <point x="382" y="1087"/>
      <point x="378" y="1110"/>
      <point x="378" y="1129" type="curve"/>
      <point x="378" y="1222"/>
      <point x="491" y="1290"/>
      <point x="649" y="1290" type="curve"/>
      <point x="817" y="1290"/>
      <point x="941" y="1222"/>
      <point x="941" y="1027" type="curve"/>
      <point x="941" y="739"/>
      <point x="289" y="435"/>
      <point x="172" y="405" type="curve"/>
      <point x="172" y="199"/>
      <point x="364" y="0"/>
      <point x="551" y="0" type="curve"/>
      <point x="769" y="0"/>
      <point x="866" y="114"/>
      <point x="922" y="176" type="curve"/>
      <point x="922" y="0" type="line"/>
      <point x="1147" y="0" type="line"/>
      <point x="1147" y="506" type="line"/>
      <point x="922" y="506" type="line"/>
      <point x="922" y="379" type="line"/>
      <point x="866" y="300"/>
      <point x="742" y="150"/>
      <point x="570" y="150" type="curve"/>
      <point x="480" y="150"/>
      <point x="427" y="229"/>
      <point x="394" y="311" type="curve"/>
      <point x="600" y="386"/>
      <point x="1147" y="697"/>
      <point x="1147" y="1027" type="curve"/>
      <point x="1147" y="1301"/>
      <point x="952" y="1440"/>
      <point x="630" y="1440" type="curve"/>
      <point x="431" y="1440"/>
      <point x="172" y="1339"/>
    </contour>
  </outline>
</glyph>
<glyph name="uni17A8" format="2">
  <advance width="1315"/>
  <unicode hex="17A8"/>
  <anchor x="1125" y="0" name="L"/>
  <anchor x="1125" y="1665" name="U"/>
  <outline>
    <contour>
      <point x="439" y="1740" type="curve" smooth="yes"/>
      <point x="307" y="1740"/>
      <point x="255" y="1646"/>
      <point x="142" y="1646" type="curve" smooth="yes"/>
      <point x="127" y="1646"/>
      <point x="94" y="1650"/>
      <point x="60" y="1672" type="curve"/>
      <point x="67" y="1534"/>
      <point x="127" y="1504"/>
      <point x="221" y="1504" type="curve"/>
      <point x="304" y="1504"/>
      <point x="360" y="1590"/>
      <point x="435" y="1590" type="curve" smooth="yes"/>
      <point x="566" y="1590"/>
      <point x="634" y="1511"/>
      <point x="660" y="1470" type="curve"/>
      <point x="686" y="1511"/>
      <point x="754" y="1590"/>
      <point x="885" y="1590" type="curve"/>
      <point x="960" y="1590"/>
      <point x="1016" y="1500"/>
      <point x="1099" y="1500" type="curve" smooth="yes"/>
      <point x="1192" y="1500"/>
      <point x="1252" y="1534"/>
      <point x="1260" y="1672" type="curve"/>
      <point x="1226" y="1650"/>
      <point x="1192" y="1646"/>
      <point x="1177" y="1646" type="curve"/>
      <point x="1065" y="1646"/>
      <point x="1012" y="1740"/>
      <point x="881" y="1740" type="curve" smooth="yes"/>
      <point x="799" y="1740"/>
      <point x="735" y="1699"/>
      <point x="660" y="1639" type="curve"/>
      <point x="585" y="1699"/>
      <point x="521" y="1740"/>
    </contour>
    <contour>
      <point x="172" y="1121" type="curve" smooth="yes"/>
      <point x="172" y="1035"/>
      <point x="221" y="937"/>
      <point x="307" y="877" type="curve"/>
      <point x="337" y="855"/>
      <point x="386" y="844"/>
      <point x="427" y="844" type="curve"/>
      <point x="517" y="844"/>
      <point x="607" y="900"/>
      <point x="607" y="986" type="curve"/>
      <point x="607" y="1046"/>
      <point x="551" y="1091"/>
      <point x="472" y="1091" type="curve"/>
      <point x="439" y="1091"/>
      <point x="416" y="1084"/>
      <point x="390" y="1072" type="curve"/>
      <point x="382" y="1087"/>
      <point x="378" y="1110"/>
      <point x="378" y="1129" type="curve"/>
      <point x="378" y="1222"/>
      <point x="491" y="1290"/>
      <point x="649" y="1290" type="curve"/>
      <point x="817" y="1290"/>
      <point x="941" y="1222"/>
      <point x="941" y="1027" type="curve"/>
      <point x="941" y="739"/>
      <point x="289" y="435"/>
      <point x="172" y="405" type="curve"/>
      <point x="172" y="199"/>
      <point x="364" y="0"/>
      <point x="551" y="0" type="curve"/>
      <point x="769" y="0"/>
      <point x="866" y="114"/>
      <point x="922" y="176" type="curve"/>
      <point x="922" y="0" type="line"/>
      <point x="1147" y="0" type="line"/>
      <point x="1147" y="506" type="line"/>
      <point x="922" y="506" type="line"/>
      <point x="922" y="379" type="line"/>
      <point x="866" y="300"/>
      <point x="742" y="150"/>
      <point x="570" y="150" type="curve"/>
      <point x="480" y="150"/>
      <point x="427" y="229"/>
      <point x="394" y="311" type="curve"/>
      <point x="600" y="386"/>
      <point x="1147" y="697"/>
      <point x="1147" y="1027" type="curve"/>
      <point x="1147" y="1301"/>
      <point x="952" y="1440"/>
      <point x="630" y="1440" type="curve"/>
      <point x="431" y="1440"/>
      <point x="172" y="1339"/>
    </contour>
  </outline>
</glyph>
<glyph name="uni17A9" format="2">
  <advance width="1500"/>
  <unicode hex="17A9"/>
  <anchor x="1125" y="0" name="L"/>
  <anchor x="1125" y="1440" name="U"/>
  <outline>
    <contour>
      <point x="1207" y="0" type="line"/>
      <point x="1432" y="0" type="line"/>
      <point x="1432" y="506" type="line"/>
      <point x="1207" y="506" type="line"/>
    </contour>
    <contour>
      <point x="119" y="1121" type="curve" smooth="yes"/>
      <point x="119" y="1035"/>
      <point x="168" y="937"/>
      <point x="254" y="877" type="curve"/>
      <point x="284" y="855"/>
      <point x="333" y="844"/>
      <point x="374" y="844" type="curve"/>
      <point x="464" y="844"/>
      <point x="554" y="900"/>
      <point x="554" y="986" type="curve"/>
      <point x="554" y="1046"/>
      <point x="498" y="1091"/>
      <point x="419" y="1091" type="curve"/>
      <point x="386" y="1091"/>
      <point x="363" y="1084"/>
      <point x="337" y="1072" type="curve"/>
      <point x="329" y="1087"/>
      <point x="325" y="1110"/>
      <point x="325" y="1129" type="curve"/>
      <point x="325" y="1222"/>
      <point x="438" y="1290"/>
      <point x="596" y="1290" type="curve"/>
      <point x="764" y="1290"/>
      <point x="888" y="1222"/>
      <point x="888" y="1027" type="curve"/>
      <point x="888" y="739"/>
      <point x="236" y="435"/>
      <point x="119" y="405" type="curve"/>
      <point x="119" y="199"/>
      <point x="311" y="0"/>
      <point x="498" y="0" type="curve"/>
      <point x="716" y="0"/>
      <point x="813" y="114"/>
      <point x="869" y="176" type="curve"/>
      <point x="869" y="0" type="line"/>
      <point x="1094" y="0" type="line"/>
      <point x="1094" y="506" type="line"/>
      <point x="869" y="506" type="line"/>
      <point x="869" y="379" type="line"/>
      <point x="813" y="300"/>
      <point x="689" y="150"/>
      <point x="517" y="150" type="curve"/>
      <point x="427" y="150"/>
      <point x="374" y="229"/>
      <point x="341" y="311" type="curve"/>
      <point x="547" y="386"/>
      <point x="1094" y="697"/>
      <point x="1094" y="1027" type="curve"/>
      <point x="1094" y="1301"/>
      <point x="899" y="1440"/>
      <point x="577" y="1440" type="curve"/>
      <point x="378" y="1440"/>
      <point x="119" y="1339"/>
    </contour>
  </outline>
</glyph>
<glyph name="uni17AA" format="2">
  <advance width="1315"/>
  <unicode hex="17AA"/>
  <anchor x="1125" y="-188" name="L"/>
  <anchor x="1125" y="2040" name="U"/>
  <outline>
    <contour>
      <point x="172" y="1121" type="curve" smooth="yes"/>
      <point x="172" y="1035"/>
      <point x="221" y="937"/>
      <point x="307" y="877" type="curve" smooth="yes"/>
      <point x="337" y="855"/>
      <point x="386" y="844"/>
      <point x="427" y="844" type="curve" smooth="yes"/>
      <point x="517" y="844"/>
      <point x="607" y="900"/>
      <point x="607" y="986" type="curve" smooth="yes"/>
      <point x="607" y="1046"/>
      <point x="551" y="1091"/>
      <point x="472" y="1091" type="curve" smooth="yes"/>
      <point x="439" y="1091"/>
      <point x="416" y="1084"/>
      <point x="390" y="1072" type="curve"/>
      <point x="382" y="1087"/>
      <point x="378" y="1110"/>
      <point x="378" y="1129" type="curve" smooth="yes"/>
      <point x="378" y="1222"/>
      <point x="491" y="1290"/>
      <point x="649" y="1290" type="curve" smooth="yes"/>
      <point x="817" y="1290"/>
      <point x="941" y="1222"/>
      <point x="941" y="1027" type="curve" smooth="yes"/>
      <point x="941" y="739"/>
      <point x="289" y="435"/>
      <point x="172" y="405" type="curve"/>
      <point x="172" y="199"/>
      <point x="364" y="0"/>
      <point x="551" y="0" type="curve" smooth="yes"/>
      <point x="769" y="0"/>
      <point x="866" y="114"/>
      <point x="922" y="176" type="curve"/>
      <point x="922" y="-113" type="line" smooth="yes"/>
      <point x="922" y="-146"/>
      <point x="937" y="-188"/>
      <point x="960" y="-188" type="curve" smooth="yes"/>
      <point x="1204" y="-188" type="line"/>
      <point x="1155" y="-169"/>
      <point x="1147" y="-124"/>
      <point x="1147" y="-75" type="curve" smooth="yes"/>
      <point x="1147" y="506" type="line"/>
      <point x="922" y="506" type="line"/>
      <point x="922" y="379" type="line"/>
      <point x="866" y="300"/>
      <point x="742" y="150"/>
      <point x="570" y="150" type="curve" smooth="yes"/>
      <point x="480" y="150"/>
      <point x="427" y="229"/>
      <point x="394" y="311" type="curve"/>
      <point x="600" y="386"/>
      <point x="1147" y="697"/>
      <point x="1147" y="1027" type="curve" smooth="yes"/>
      <point x="1147" y="1301"/>
      <point x="952" y="1440"/>
      <point x="630" y="1440" type="curve" smooth="yes"/>
      <point x="564" y="1440"/>
      <point x="492" y="1429"/>
      <point x="425" y="1406" type="curve"/>
      <point x="382" y="1412"/>
      <point x="248" y="1473"/>
      <point x="248" y="1545" type="curve" smooth="yes"/>
      <point x="248" y="1620"/>
      <point x="304" y="1650"/>
      <point x="367" y="1650" type="curve" smooth="yes"/>
      <point x="390" y="1650"/>
      <point x="446" y="1620"/>
      <point x="514" y="1586" type="curve"/>
      <point x="604" y="1534"/>
      <point x="720" y="1466"/>
      <point x="866" y="1466" type="curve" smooth="yes"/>
      <point x="997" y="1466"/>
      <point x="1174" y="1582"/>
      <point x="1174" y="1744" type="curve" smooth="yes"/>
      <point x="1174" y="1841"/>
      <point x="1155" y="1894"/>
      <point x="1095" y="1976" type="curve" smooth="yes"/>
      <point x="1035" y="2059"/>
      <point x="956" y="2115"/>
      <point x="855" y="2115" type="curve" smooth="yes"/>
      <point x="757" y="2115"/>
      <point x="720" y="2074"/>
      <point x="720" y="2025" type="curve" smooth="yes"/>
      <point x="720" y="1957"/>
      <point x="802" y="1916"/>
      <point x="874" y="1886" type="curve"/>
      <point x="896" y="1875"/>
      <point x="919" y="1860"/>
      <point x="934" y="1849" type="curve"/>
      <point x="975" y="1815"/>
      <point x="990" y="1785"/>
      <point x="990" y="1744" type="curve" smooth="yes"/>
      <point x="990" y="1699"/>
      <point x="949" y="1635"/>
      <point x="851" y="1635" type="curve" smooth="yes"/>
      <point x="814" y="1635"/>
      <point x="738" y="1668"/>
      <point x="667" y="1710" type="curve" smooth="yes"/>
      <point x="577" y="1764"/>
      <point x="484" y="1822"/>
      <point x="341" y="1822" type="curve" smooth="yes"/>
      <point x="202" y="1822"/>
      <point x="79" y="1699"/>
      <point x="79" y="1571" type="curve" smooth="yes"/>
      <point x="79" y="1441"/>
      <point x="238" y="1366"/>
      <point x="304" y="1347" type="curve"/>
      <point x="226" y="1295"/>
      <point x="172" y="1220"/>
    </contour>
  </outline>
</glyph>
<glyph name="uni17AC" format="2">
  <advance width="1425"/>
  <unicode hex="17AC"/>
  <anchor x="1200" y="-600" name="L"/>
  <anchor x="1200" y="1440" name="U"/>
  <outline>
    <contour>
      <point x="874" y="-248" type="curve" smooth="yes"/>
      <point x="874" y="-311"/>
      <point x="937" y="-360"/>
      <point x="997" y="-371" type="curve"/>
      <point x="997" y="-428"/>
      <point x="956" y="-461"/>
      <point x="915" y="-461" type="curve" smooth="yes"/>
      <point x="851" y="-461"/>
      <point x="791" y="-401"/>
      <point x="725" y="-325" type="curve"/>
      <point x="645" y="-233"/>
      <point x="525" y="-158"/>
      <point x="401" y="-158" type="curve"/>
      <point x="251" y="-158"/>
      <point x="127" y="-383"/>
      <point x="124" y="-431" type="curve"/>
      <point x="247" y="-311"/>
      <point x="304" y="-285"/>
      <point x="379" y="-285" type="curve"/>
      <point x="457" y="-285"/>
      <point x="556" y="-378"/>
      <point x="615" y="-450" type="curve" smooth="yes"/>
      <point x="680" y="-529"/>
      <point x="799" y="-596"/>
      <point x="904" y="-596" type="curve"/>
      <point x="971" y="-596"/>
      <point x="1020" y="-585"/>
      <point x="1057" y="-570" type="curve"/>
      <point x="1091" y="-593"/>
      <point x="1147" y="-615"/>
      <point x="1226" y="-615" type="curve"/>
      <point x="1279" y="-615"/>
      <point x="1312" y="-604"/>
      <point x="1327" y="-589" type="curve"/>
      <point x="1354" y="-563"/>
      <point x="1372" y="-521"/>
      <point x="1384" y="-454" type="curve"/>
      <point x="1365" y="-476"/>
      <point x="1324" y="-499"/>
      <point x="1290" y="-499" type="curve"/>
      <point x="1249" y="-499"/>
      <point x="1204" y="-484"/>
      <point x="1181" y="-469" type="curve"/>
      <point x="1211" y="-420"/>
      <point x="1226" y="-356"/>
      <point x="1226" y="-289" type="curve"/>
      <point x="1226" y="-184"/>
      <point x="1121" y="-128"/>
      <point x="1031" y="-128" type="curve"/>
      <point x="964" y="-128"/>
      <point x="874" y="-180"/>
    </contour>
    <contour>
      <point x="270" y="206" type="line"/>
      <point x="270" y="101"/>
      <point x="552" y="0"/>
      <point x="758" y="0" type="curve" smooth="yes"/>
      <point x="964" y="0"/>
      <point x="1245" y="101"/>
      <point x="1245" y="206" type="curve" smooth="yes"/>
      <point x="1245" y="971" type="line" smooth="yes"/>
      <point x="1245" y="1020"/>
      <point x="1170" y="1058"/>
      <point x="1091" y="1095" type="curve" smooth="yes"/>
      <point x="1054" y="1112"/>
      <point x="994" y="1140"/>
      <point x="994" y="1200" type="curve" smooth="yes"/>
      <point x="994" y="1241"/>
      <point x="1035" y="1282"/>
      <point x="1069" y="1282" type="curve" smooth="yes"/>
      <point x="1125" y="1282"/>
      <point x="1170" y="1200"/>
      <point x="1245" y="1200" type="curve" smooth="yes"/>
      <point x="1354" y="1200"/>
      <point x="1410" y="1241"/>
      <point x="1417" y="1384" type="curve"/>
      <point x="1395" y="1357"/>
      <point x="1357" y="1346"/>
      <point x="1339" y="1346" type="curve" smooth="yes"/>
      <point x="1309" y="1346"/>
      <point x="1266" y="1370"/>
      <point x="1234" y="1391" type="curve" smooth="yes"/>
      <point x="1196" y="1416"/>
      <point x="1159" y="1440"/>
      <point x="1102" y="1440" type="curve" smooth="yes"/>
      <point x="982" y="1440"/>
      <point x="851" y="1297"/>
      <point x="851" y="1177" type="curve" smooth="yes"/>
      <point x="851" y="1110"/>
      <point x="874" y="1046"/>
      <point x="967" y="997" type="curve" smooth="yes"/>
      <point x="994" y="982"/>
      <point x="1020" y="960"/>
      <point x="1020" y="915" type="curve" smooth="yes"/>
      <point x="1020" y="217" type="line" smooth="yes"/>
      <point x="1020" y="169"/>
      <point x="852" y="131"/>
      <point x="758" y="131" type="curve" smooth="yes"/>
      <point x="664" y="131"/>
      <point x="495" y="169"/>
      <point x="495" y="217" type="curve" smooth="yes"/>
      <point x="495" y="971" type="line" smooth="yes"/>
      <point x="495" y="1020"/>
      <point x="420" y="1058"/>
      <point x="341" y="1095" type="curve" smooth="yes"/>
      <point x="304" y="1112"/>
      <point x="244" y="1140"/>
      <point x="244" y="1200" type="curve" smooth="yes"/>
      <point x="244" y="1241"/>
      <point x="285" y="1282"/>
      <point x="319" y="1282" type="curve" smooth="yes"/>
      <point x="375" y="1282"/>
      <point x="420" y="1200"/>
      <point x="495" y="1200" type="curve" smooth="yes"/>
      <point x="604" y="1200"/>
      <point x="660" y="1241"/>
      <point x="667" y="1384" type="curve"/>
      <point x="645" y="1357"/>
      <point x="607" y="1346"/>
      <point x="589" y="1346" type="curve" smooth="yes"/>
      <point x="559" y="1346"/>
      <point x="516" y="1370"/>
      <point x="484" y="1391" type="curve" smooth="yes"/>
      <point x="446" y="1416"/>
      <point x="409" y="1440"/>
      <point x="352" y="1440" type="curve" smooth="yes"/>
      <point x="232" y="1440"/>
      <point x="101" y="1297"/>
      <point x="101" y="1177" type="curve" smooth="yes"/>
      <point x="101" y="1110"/>
      <point x="124" y="1046"/>
      <point x="217" y="997" type="curve" smooth="yes"/>
      <point x="244" y="982"/>
      <point x="270" y="960"/>
      <point x="270" y="915" type="curve" smooth="yes"/>
    </contour>
  </outline>
</glyph>
<glyph name="uni17AD" format="2">
  <advance width="1425"/>
  <unicode hex="17AD"/>
  <anchor x="1200" y="-600" name="L"/>
  <anchor x="1200" y="1440" name="U"/>
  <outline>
    <contour>
      <point x="874" y="-248" type="curve" smooth="yes"/>
      <point x="874" y="-311"/>
      <point x="937" y="-360"/>
      <point x="997" y="-371" type="curve"/>
      <point x="997" y="-427"/>
      <point x="954" y="-461"/>
      <point x="915" y="-461" type="curve" smooth="yes"/>
      <point x="851" y="-461"/>
      <point x="791" y="-401"/>
      <point x="725" y="-325" type="curve" smooth="yes"/>
      <point x="645" y="-233"/>
      <point x="525" y="-158"/>
      <point x="401" y="-158" type="curve"/>
      <point x="251" y="-158"/>
      <point x="127" y="-383"/>
      <point x="124" y="-431" type="curve"/>
      <point x="247" y="-311"/>
      <point x="304" y="-285"/>
      <point x="379" y="-285" type="curve"/>
      <point x="457" y="-285"/>
      <point x="555" y="-379"/>
      <point x="614" y="-451" type="curve"/>
      <point x="679" y="-529"/>
      <point x="799" y="-596"/>
      <point x="904" y="-596" type="curve"/>
      <point x="1129" y="-596"/>
      <point x="1226" y="-469"/>
      <point x="1226" y="-289" type="curve"/>
      <point x="1226" y="-184"/>
      <point x="1121" y="-128"/>
      <point x="1031" y="-128" type="curve"/>
      <point x="964" y="-128"/>
      <point x="874" y="-180"/>
    </contour>
    <contour>
      <point x="607" y="281" type="curve" smooth="yes"/>
      <point x="607" y="244"/>
      <point x="552" y="180"/>
      <point x="495" y="169" type="curve"/>
      <point x="495" y="375" type="line"/>
      <point x="563" y="375"/>
      <point x="607" y="337"/>
    </contour>
    <contour>
      <point x="270" y="97" type="line"/>
      <point x="297" y="19"/>
      <point x="398" y="0"/>
      <point x="465" y="0" type="curve"/>
      <point x="630" y="34"/>
      <point x="719" y="169"/>
      <point x="719" y="292" type="curve"/>
      <point x="719" y="412"/>
      <point x="619" y="454"/>
      <point x="495" y="469" type="curve"/>
      <point x="495" y="1147" type="line"/>
      <point x="495" y="1189"/>
      <point x="533" y="1253"/>
      <point x="555" y="1253" type="curve" smooth="yes"/>
      <point x="563" y="1253"/>
      <point x="593" y="1226"/>
      <point x="623" y="1196" type="curve" smooth="yes"/>
      <point x="664" y="1155"/>
      <point x="717" y="1114"/>
      <point x="758" y="1114" type="curve" smooth="yes"/>
      <point x="799" y="1114"/>
      <point x="852" y="1155"/>
      <point x="893" y="1196" type="curve" smooth="yes"/>
      <point x="923" y="1226"/>
      <point x="953" y="1253"/>
      <point x="960" y="1253" type="curve" smooth="yes"/>
      <point x="983" y="1253"/>
      <point x="1020" y="1189"/>
      <point x="1020" y="1147" type="curve" smooth="yes"/>
      <point x="1020" y="0" type="line"/>
      <point x="1245" y="0" type="line"/>
      <point x="1245" y="1185" type="line"/>
      <point x="1245" y="1245"/>
      <point x="1092" y="1440"/>
      <point x="987" y="1440" type="curve" smooth="yes"/>
      <point x="930" y="1440"/>
      <point x="874" y="1395"/>
      <point x="829" y="1350" type="curve"/>
      <point x="799" y="1316"/>
      <point x="765" y="1290"/>
      <point x="758" y="1290" type="curve" smooth="yes"/>
      <point x="750" y="1290"/>
      <point x="717" y="1316"/>
      <point x="687" y="1350" type="curve"/>
      <point x="642" y="1395"/>
      <point x="585" y="1440"/>
      <point x="529" y="1440" type="curve" smooth="yes"/>
      <point x="420" y="1440"/>
      <point x="270" y="1245"/>
      <point x="270" y="1185" type="curve" smooth="yes"/>
    </contour>
  </outline>
</glyph>
<glyph name="uni17AF" format="2">
  <advance width="1465"/>
  <unicode hex="17AF"/>
  <anchor x="1237" y="0" name="L"/>
  <anchor x="1237" y="1665" name="U"/>
  <outline>
    <contour>
      <point x="1285" y="1241" type="line"/>
      <point x="1285" y="1346"/>
      <point x="1079" y="1440"/>
      <point x="872" y="1440" type="curve" smooth="yes"/>
      <point x="771" y="1440"/>
      <point x="681" y="1402"/>
      <point x="625" y="1369" type="curve" smooth="yes"/>
      <point x="584" y="1346"/>
      <point x="550" y="1327"/>
      <point x="546" y="1327" type="curve" smooth="yes"/>
      <point x="531" y="1327"/>
      <point x="527" y="1339"/>
      <point x="527" y="1354" type="curve" smooth="yes"/>
      <point x="527" y="1365"/>
      <point x="531" y="1417"/>
      <point x="542" y="1451" type="curve" smooth="yes"/>
      <point x="557" y="1496"/>
      <point x="569" y="1537"/>
      <point x="569" y="1597" type="curve" smooth="yes"/>
      <point x="569" y="1676"/>
      <point x="490" y="1747"/>
      <point x="400" y="1747" type="curve" smooth="yes"/>
      <point x="325" y="1747"/>
      <point x="284" y="1729"/>
      <point x="227" y="1691" type="curve"/>
      <point x="332" y="1691"/>
      <point x="363" y="1635"/>
      <point x="363" y="1609" type="curve" smooth="yes"/>
      <point x="363" y="1582"/>
      <point x="355" y="1530"/>
      <point x="344" y="1489" type="curve" smooth="yes"/>
      <point x="332" y="1440"/>
      <point x="321" y="1391"/>
      <point x="321" y="1346" type="curve" smooth="yes"/>
      <point x="321" y="1241"/>
      <point x="389" y="1147"/>
      <point x="539" y="1147" type="curve" smooth="yes"/>
      <point x="606" y="1147"/>
      <point x="649" y="1185"/>
      <point x="696" y="1226" type="curve" smooth="yes"/>
      <point x="740" y="1265"/>
      <point x="812" y="1290"/>
      <point x="861" y="1290" type="curve" smooth="yes"/>
      <point x="955" y="1290"/>
      <point x="1034" y="1256"/>
      <point x="1060" y="1204" type="curve"/>
      <point x="1060" y="270" type="line" smooth="yes"/>
      <point x="1060" y="225"/>
      <point x="1041" y="199"/>
      <point x="1007" y="199" type="curve" smooth="yes"/>
      <point x="977" y="199"/>
      <point x="827" y="319"/>
      <point x="797" y="319" type="curve" smooth="yes"/>
      <point x="767" y="319"/>
      <point x="617" y="199"/>
      <point x="587" y="199" type="curve" smooth="yes"/>
      <point x="554" y="199"/>
      <point x="542" y="232"/>
      <point x="535" y="274" type="curve"/>
      <point x="535" y="812" type="line"/>
      <point x="509" y="891"/>
      <point x="407" y="910"/>
      <point x="340" y="910" type="curve"/>
      <point x="175" y="876"/>
      <point x="86" y="749"/>
      <point x="86" y="617" type="curve" smooth="yes"/>
      <point x="86" y="535"/>
      <point x="146" y="471"/>
      <point x="210" y="471" type="curve" smooth="yes"/>
      <point x="228" y="471"/>
      <point x="255" y="485"/>
      <point x="255" y="508" type="curve" smooth="yes"/>
      <point x="255" y="525"/>
      <point x="251" y="538"/>
      <point x="232" y="557" type="curve" smooth="yes"/>
      <point x="213" y="576"/>
      <point x="198" y="595"/>
      <point x="198" y="629" type="curve" smooth="yes"/>
      <point x="198" y="666"/>
      <point x="254" y="730"/>
      <point x="310" y="741" type="curve"/>
      <point x="310" y="82" type="line" smooth="yes"/>
      <point x="310" y="41"/>
      <point x="351" y="0"/>
      <point x="392" y="0" type="curve" smooth="yes"/>
      <point x="516" y="0" type="line" smooth="yes"/>
      <point x="546" y="0"/>
      <point x="614" y="49"/>
      <point x="659" y="82" type="curve" smooth="yes"/>
      <point x="704" y="116"/>
      <point x="775" y="169"/>
      <point x="797" y="169" type="curve" smooth="yes"/>
      <point x="820" y="169"/>
      <point x="891" y="116"/>
      <point x="936" y="82" type="curve" smooth="yes"/>
      <point x="981" y="49"/>
      <point x="1049" y="0"/>
      <point x="1079" y="0" type="curve" smooth="yes"/>
      <point x="1202" y="0" type="line" smooth="yes"/>
      <point x="1244" y="0"/>
      <point x="1285" y="41"/>
      <point x="1285" y="82" type="curve" smooth="yes"/>
    </contour>
  </outline>
</glyph>
